%TF.GenerationSoftware,KiCad,Pcbnew,9.0.2*%
%TF.CreationDate,2025-07-15T17:02:53+05:30*%
%TF.ProjectId,peripherals-board-v2,70657269-7068-4657-9261-6c732d626f61,2*%
%TF.SameCoordinates,Original*%
%TF.FileFunction,Legend,Top*%
%TF.FilePolarity,Positive*%
%FSLAX46Y46*%
G04 Gerber Fmt 4.6, Leading zero omitted, Abs format (unit mm)*
G04 Created by KiCad (PCBNEW 9.0.2) date 2025-07-15 17:02:53*
%MOMM*%
%LPD*%
G01*
G04 APERTURE LIST*
%ADD10C,0.187500*%
%ADD11C,0.360000*%
%ADD12C,0.100000*%
%ADD13C,0.120000*%
G04 APERTURE END LIST*
D10*
X71235714Y-89806678D02*
X71235714Y-88306678D01*
X71235714Y-89020964D02*
X72092857Y-89020964D01*
X72092857Y-89806678D02*
X72092857Y-88306678D01*
X72664286Y-88306678D02*
X73021429Y-89806678D01*
X73021429Y-89806678D02*
X73307143Y-88735250D01*
X73307143Y-88735250D02*
X73592858Y-89806678D01*
X73592858Y-89806678D02*
X73950001Y-88306678D01*
X76521429Y-89806678D02*
X76021429Y-89092392D01*
X75664286Y-89806678D02*
X75664286Y-88306678D01*
X75664286Y-88306678D02*
X76235715Y-88306678D01*
X76235715Y-88306678D02*
X76378572Y-88378107D01*
X76378572Y-88378107D02*
X76450001Y-88449535D01*
X76450001Y-88449535D02*
X76521429Y-88592392D01*
X76521429Y-88592392D02*
X76521429Y-88806678D01*
X76521429Y-88806678D02*
X76450001Y-88949535D01*
X76450001Y-88949535D02*
X76378572Y-89020964D01*
X76378572Y-89020964D02*
X76235715Y-89092392D01*
X76235715Y-89092392D02*
X75664286Y-89092392D01*
X77164286Y-89020964D02*
X77664286Y-89020964D01*
X77878572Y-89806678D02*
X77164286Y-89806678D01*
X77164286Y-89806678D02*
X77164286Y-88306678D01*
X77164286Y-88306678D02*
X77878572Y-88306678D01*
X78307144Y-88306678D02*
X78807144Y-89806678D01*
X78807144Y-89806678D02*
X79307144Y-88306678D01*
X80878572Y-88449535D02*
X80950000Y-88378107D01*
X80950000Y-88378107D02*
X81092858Y-88306678D01*
X81092858Y-88306678D02*
X81450000Y-88306678D01*
X81450000Y-88306678D02*
X81592858Y-88378107D01*
X81592858Y-88378107D02*
X81664286Y-88449535D01*
X81664286Y-88449535D02*
X81735715Y-88592392D01*
X81735715Y-88592392D02*
X81735715Y-88735250D01*
X81735715Y-88735250D02*
X81664286Y-88949535D01*
X81664286Y-88949535D02*
X80807143Y-89806678D01*
X80807143Y-89806678D02*
X81735715Y-89806678D01*
D11*
X65571428Y-60439565D02*
X65485714Y-60525280D01*
X65485714Y-60525280D02*
X65228571Y-60610994D01*
X65228571Y-60610994D02*
X65057143Y-60610994D01*
X65057143Y-60610994D02*
X64800000Y-60525280D01*
X64800000Y-60525280D02*
X64628571Y-60353851D01*
X64628571Y-60353851D02*
X64542857Y-60182422D01*
X64542857Y-60182422D02*
X64457143Y-59839565D01*
X64457143Y-59839565D02*
X64457143Y-59582422D01*
X64457143Y-59582422D02*
X64542857Y-59239565D01*
X64542857Y-59239565D02*
X64628571Y-59068137D01*
X64628571Y-59068137D02*
X64800000Y-58896708D01*
X64800000Y-58896708D02*
X65057143Y-58810994D01*
X65057143Y-58810994D02*
X65228571Y-58810994D01*
X65228571Y-58810994D02*
X65485714Y-58896708D01*
X65485714Y-58896708D02*
X65571428Y-58982422D01*
X66085714Y-58810994D02*
X67114286Y-58810994D01*
X66600000Y-60610994D02*
X66600000Y-58810994D01*
X68742857Y-60610994D02*
X68142857Y-59753851D01*
X67714286Y-60610994D02*
X67714286Y-58810994D01*
X67714286Y-58810994D02*
X68400000Y-58810994D01*
X68400000Y-58810994D02*
X68571429Y-58896708D01*
X68571429Y-58896708D02*
X68657143Y-58982422D01*
X68657143Y-58982422D02*
X68742857Y-59153851D01*
X68742857Y-59153851D02*
X68742857Y-59410994D01*
X68742857Y-59410994D02*
X68657143Y-59582422D01*
X68657143Y-59582422D02*
X68571429Y-59668137D01*
X68571429Y-59668137D02*
X68400000Y-59753851D01*
X68400000Y-59753851D02*
X67714286Y-59753851D01*
X70371429Y-60610994D02*
X69514286Y-60610994D01*
X69514286Y-60610994D02*
X69514286Y-58810994D01*
X70971429Y-59925280D02*
X72342858Y-59925280D01*
X71657143Y-60610994D02*
X71657143Y-59239565D01*
X73114286Y-60096708D02*
X73971429Y-60096708D01*
X72942857Y-60610994D02*
X73542857Y-58810994D01*
X73542857Y-58810994D02*
X74142857Y-60610994D01*
X75600000Y-60610994D02*
X74742857Y-60610994D01*
X74742857Y-60610994D02*
X74742857Y-58810994D01*
X75942857Y-58810994D02*
X76971429Y-58810994D01*
X76457143Y-60610994D02*
X76457143Y-58810994D01*
X77571429Y-59925280D02*
X78942858Y-59925280D01*
X78257143Y-60610994D02*
X78257143Y-59239565D01*
X79800000Y-60610994D02*
X79800000Y-58810994D01*
X79800000Y-58810994D02*
X80228571Y-58810994D01*
X80228571Y-58810994D02*
X80485714Y-58896708D01*
X80485714Y-58896708D02*
X80657143Y-59068137D01*
X80657143Y-59068137D02*
X80742857Y-59239565D01*
X80742857Y-59239565D02*
X80828571Y-59582422D01*
X80828571Y-59582422D02*
X80828571Y-59839565D01*
X80828571Y-59839565D02*
X80742857Y-60182422D01*
X80742857Y-60182422D02*
X80657143Y-60353851D01*
X80657143Y-60353851D02*
X80485714Y-60525280D01*
X80485714Y-60525280D02*
X80228571Y-60610994D01*
X80228571Y-60610994D02*
X79800000Y-60610994D01*
X81600000Y-59668137D02*
X82200000Y-59668137D01*
X82457143Y-60610994D02*
X81600000Y-60610994D01*
X81600000Y-60610994D02*
X81600000Y-58810994D01*
X81600000Y-58810994D02*
X82457143Y-58810994D01*
X83828571Y-59668137D02*
X83228571Y-59668137D01*
X83228571Y-60610994D02*
X83228571Y-58810994D01*
X83228571Y-58810994D02*
X84085714Y-58810994D01*
X84771428Y-59668137D02*
X85371428Y-59668137D01*
X85628571Y-60610994D02*
X84771428Y-60610994D01*
X84771428Y-60610994D02*
X84771428Y-58810994D01*
X84771428Y-58810994D02*
X85628571Y-58810994D01*
X86314285Y-60096708D02*
X87171428Y-60096708D01*
X86142856Y-60610994D02*
X86742856Y-58810994D01*
X86742856Y-58810994D02*
X87342856Y-60610994D01*
X87685713Y-58810994D02*
X88714285Y-58810994D01*
X88199999Y-60610994D02*
X88199999Y-58810994D01*
D12*
X46455200Y-53130952D02*
X46417104Y-53245238D01*
X46417104Y-53245238D02*
X46417104Y-53435714D01*
X46417104Y-53435714D02*
X46455200Y-53511905D01*
X46455200Y-53511905D02*
X46493295Y-53550000D01*
X46493295Y-53550000D02*
X46569485Y-53588095D01*
X46569485Y-53588095D02*
X46645676Y-53588095D01*
X46645676Y-53588095D02*
X46721866Y-53550000D01*
X46721866Y-53550000D02*
X46759961Y-53511905D01*
X46759961Y-53511905D02*
X46798057Y-53435714D01*
X46798057Y-53435714D02*
X46836152Y-53283333D01*
X46836152Y-53283333D02*
X46874247Y-53207143D01*
X46874247Y-53207143D02*
X46912342Y-53169048D01*
X46912342Y-53169048D02*
X46988533Y-53130952D01*
X46988533Y-53130952D02*
X47064723Y-53130952D01*
X47064723Y-53130952D02*
X47140914Y-53169048D01*
X47140914Y-53169048D02*
X47179009Y-53207143D01*
X47179009Y-53207143D02*
X47217104Y-53283333D01*
X47217104Y-53283333D02*
X47217104Y-53473810D01*
X47217104Y-53473810D02*
X47179009Y-53588095D01*
X46417104Y-53930953D02*
X47217104Y-53930953D01*
X47179009Y-54730952D02*
X47217104Y-54654762D01*
X47217104Y-54654762D02*
X47217104Y-54540476D01*
X47217104Y-54540476D02*
X47179009Y-54426190D01*
X47179009Y-54426190D02*
X47102819Y-54350000D01*
X47102819Y-54350000D02*
X47026628Y-54311905D01*
X47026628Y-54311905D02*
X46874247Y-54273809D01*
X46874247Y-54273809D02*
X46759961Y-54273809D01*
X46759961Y-54273809D02*
X46607580Y-54311905D01*
X46607580Y-54311905D02*
X46531390Y-54350000D01*
X46531390Y-54350000D02*
X46455200Y-54426190D01*
X46455200Y-54426190D02*
X46417104Y-54540476D01*
X46417104Y-54540476D02*
X46417104Y-54616667D01*
X46417104Y-54616667D02*
X46455200Y-54730952D01*
X46455200Y-54730952D02*
X46493295Y-54769048D01*
X46493295Y-54769048D02*
X46759961Y-54769048D01*
X46759961Y-54769048D02*
X46759961Y-54616667D01*
X46836152Y-50809523D02*
X46798057Y-50923809D01*
X46798057Y-50923809D02*
X46759961Y-50961904D01*
X46759961Y-50961904D02*
X46683771Y-51000000D01*
X46683771Y-51000000D02*
X46569485Y-51000000D01*
X46569485Y-51000000D02*
X46493295Y-50961904D01*
X46493295Y-50961904D02*
X46455200Y-50923809D01*
X46455200Y-50923809D02*
X46417104Y-50847619D01*
X46417104Y-50847619D02*
X46417104Y-50542857D01*
X46417104Y-50542857D02*
X47217104Y-50542857D01*
X47217104Y-50542857D02*
X47217104Y-50809523D01*
X47217104Y-50809523D02*
X47179009Y-50885714D01*
X47179009Y-50885714D02*
X47140914Y-50923809D01*
X47140914Y-50923809D02*
X47064723Y-50961904D01*
X47064723Y-50961904D02*
X46988533Y-50961904D01*
X46988533Y-50961904D02*
X46912342Y-50923809D01*
X46912342Y-50923809D02*
X46874247Y-50885714D01*
X46874247Y-50885714D02*
X46836152Y-50809523D01*
X46836152Y-50809523D02*
X46836152Y-50542857D01*
X46645676Y-51304761D02*
X46645676Y-51685714D01*
X46417104Y-51228571D02*
X47217104Y-51495238D01*
X47217104Y-51495238D02*
X46417104Y-51761904D01*
X47217104Y-51914285D02*
X47217104Y-52371428D01*
X46417104Y-52142856D02*
X47217104Y-52142856D01*
X47179009Y-48290476D02*
X47217104Y-48214286D01*
X47217104Y-48214286D02*
X47217104Y-48100000D01*
X47217104Y-48100000D02*
X47179009Y-47985714D01*
X47179009Y-47985714D02*
X47102819Y-47909524D01*
X47102819Y-47909524D02*
X47026628Y-47871429D01*
X47026628Y-47871429D02*
X46874247Y-47833333D01*
X46874247Y-47833333D02*
X46759961Y-47833333D01*
X46759961Y-47833333D02*
X46607580Y-47871429D01*
X46607580Y-47871429D02*
X46531390Y-47909524D01*
X46531390Y-47909524D02*
X46455200Y-47985714D01*
X46455200Y-47985714D02*
X46417104Y-48100000D01*
X46417104Y-48100000D02*
X46417104Y-48176191D01*
X46417104Y-48176191D02*
X46455200Y-48290476D01*
X46455200Y-48290476D02*
X46493295Y-48328572D01*
X46493295Y-48328572D02*
X46759961Y-48328572D01*
X46759961Y-48328572D02*
X46759961Y-48176191D01*
X46417104Y-48671429D02*
X47217104Y-48671429D01*
X47217104Y-48671429D02*
X46417104Y-49128572D01*
X46417104Y-49128572D02*
X47217104Y-49128572D01*
X46417104Y-49509524D02*
X47217104Y-49509524D01*
X47217104Y-49509524D02*
X47217104Y-49700000D01*
X47217104Y-49700000D02*
X47179009Y-49814286D01*
X47179009Y-49814286D02*
X47102819Y-49890476D01*
X47102819Y-49890476D02*
X47026628Y-49928571D01*
X47026628Y-49928571D02*
X46874247Y-49966667D01*
X46874247Y-49966667D02*
X46759961Y-49966667D01*
X46759961Y-49966667D02*
X46607580Y-49928571D01*
X46607580Y-49928571D02*
X46531390Y-49890476D01*
X46531390Y-49890476D02*
X46455200Y-49814286D01*
X46455200Y-49814286D02*
X46417104Y-49700000D01*
X46417104Y-49700000D02*
X46417104Y-49509524D01*
X60561904Y-101344800D02*
X60676190Y-101382895D01*
X60676190Y-101382895D02*
X60866666Y-101382895D01*
X60866666Y-101382895D02*
X60942857Y-101344800D01*
X60942857Y-101344800D02*
X60980952Y-101306704D01*
X60980952Y-101306704D02*
X61019047Y-101230514D01*
X61019047Y-101230514D02*
X61019047Y-101154323D01*
X61019047Y-101154323D02*
X60980952Y-101078133D01*
X60980952Y-101078133D02*
X60942857Y-101040038D01*
X60942857Y-101040038D02*
X60866666Y-101001942D01*
X60866666Y-101001942D02*
X60714285Y-100963847D01*
X60714285Y-100963847D02*
X60638095Y-100925752D01*
X60638095Y-100925752D02*
X60600000Y-100887657D01*
X60600000Y-100887657D02*
X60561904Y-100811466D01*
X60561904Y-100811466D02*
X60561904Y-100735276D01*
X60561904Y-100735276D02*
X60600000Y-100659085D01*
X60600000Y-100659085D02*
X60638095Y-100620990D01*
X60638095Y-100620990D02*
X60714285Y-100582895D01*
X60714285Y-100582895D02*
X60904762Y-100582895D01*
X60904762Y-100582895D02*
X61019047Y-100620990D01*
X61285714Y-100582895D02*
X61476190Y-101382895D01*
X61476190Y-101382895D02*
X61628571Y-100811466D01*
X61628571Y-100811466D02*
X61780952Y-101382895D01*
X61780952Y-101382895D02*
X61971429Y-100582895D01*
X63152381Y-100963847D02*
X63266667Y-101001942D01*
X63266667Y-101001942D02*
X63304762Y-101040038D01*
X63304762Y-101040038D02*
X63342858Y-101116228D01*
X63342858Y-101116228D02*
X63342858Y-101230514D01*
X63342858Y-101230514D02*
X63304762Y-101306704D01*
X63304762Y-101306704D02*
X63266667Y-101344800D01*
X63266667Y-101344800D02*
X63190477Y-101382895D01*
X63190477Y-101382895D02*
X62885715Y-101382895D01*
X62885715Y-101382895D02*
X62885715Y-100582895D01*
X62885715Y-100582895D02*
X63152381Y-100582895D01*
X63152381Y-100582895D02*
X63228572Y-100620990D01*
X63228572Y-100620990D02*
X63266667Y-100659085D01*
X63266667Y-100659085D02*
X63304762Y-100735276D01*
X63304762Y-100735276D02*
X63304762Y-100811466D01*
X63304762Y-100811466D02*
X63266667Y-100887657D01*
X63266667Y-100887657D02*
X63228572Y-100925752D01*
X63228572Y-100925752D02*
X63152381Y-100963847D01*
X63152381Y-100963847D02*
X62885715Y-100963847D01*
X63838096Y-101001942D02*
X63838096Y-101382895D01*
X63571429Y-100582895D02*
X63838096Y-101001942D01*
X63838096Y-101001942D02*
X64104762Y-100582895D01*
X64371429Y-101382895D02*
X64371429Y-100582895D01*
X64371429Y-100582895D02*
X64676191Y-100582895D01*
X64676191Y-100582895D02*
X64752381Y-100620990D01*
X64752381Y-100620990D02*
X64790476Y-100659085D01*
X64790476Y-100659085D02*
X64828572Y-100735276D01*
X64828572Y-100735276D02*
X64828572Y-100849561D01*
X64828572Y-100849561D02*
X64790476Y-100925752D01*
X64790476Y-100925752D02*
X64752381Y-100963847D01*
X64752381Y-100963847D02*
X64676191Y-101001942D01*
X64676191Y-101001942D02*
X64371429Y-101001942D01*
X65133333Y-101154323D02*
X65514286Y-101154323D01*
X65057143Y-101382895D02*
X65323810Y-100582895D01*
X65323810Y-100582895D02*
X65590476Y-101382895D01*
X65819047Y-101344800D02*
X65933333Y-101382895D01*
X65933333Y-101382895D02*
X66123809Y-101382895D01*
X66123809Y-101382895D02*
X66200000Y-101344800D01*
X66200000Y-101344800D02*
X66238095Y-101306704D01*
X66238095Y-101306704D02*
X66276190Y-101230514D01*
X66276190Y-101230514D02*
X66276190Y-101154323D01*
X66276190Y-101154323D02*
X66238095Y-101078133D01*
X66238095Y-101078133D02*
X66200000Y-101040038D01*
X66200000Y-101040038D02*
X66123809Y-101001942D01*
X66123809Y-101001942D02*
X65971428Y-100963847D01*
X65971428Y-100963847D02*
X65895238Y-100925752D01*
X65895238Y-100925752D02*
X65857143Y-100887657D01*
X65857143Y-100887657D02*
X65819047Y-100811466D01*
X65819047Y-100811466D02*
X65819047Y-100735276D01*
X65819047Y-100735276D02*
X65857143Y-100659085D01*
X65857143Y-100659085D02*
X65895238Y-100620990D01*
X65895238Y-100620990D02*
X65971428Y-100582895D01*
X65971428Y-100582895D02*
X66161905Y-100582895D01*
X66161905Y-100582895D02*
X66276190Y-100620990D01*
X66580952Y-101344800D02*
X66695238Y-101382895D01*
X66695238Y-101382895D02*
X66885714Y-101382895D01*
X66885714Y-101382895D02*
X66961905Y-101344800D01*
X66961905Y-101344800D02*
X67000000Y-101306704D01*
X67000000Y-101306704D02*
X67038095Y-101230514D01*
X67038095Y-101230514D02*
X67038095Y-101154323D01*
X67038095Y-101154323D02*
X67000000Y-101078133D01*
X67000000Y-101078133D02*
X66961905Y-101040038D01*
X66961905Y-101040038D02*
X66885714Y-101001942D01*
X66885714Y-101001942D02*
X66733333Y-100963847D01*
X66733333Y-100963847D02*
X66657143Y-100925752D01*
X66657143Y-100925752D02*
X66619048Y-100887657D01*
X66619048Y-100887657D02*
X66580952Y-100811466D01*
X66580952Y-100811466D02*
X66580952Y-100735276D01*
X66580952Y-100735276D02*
X66619048Y-100659085D01*
X66619048Y-100659085D02*
X66657143Y-100620990D01*
X66657143Y-100620990D02*
X66733333Y-100582895D01*
X66733333Y-100582895D02*
X66923810Y-100582895D01*
X66923810Y-100582895D02*
X67038095Y-100620990D01*
X104336152Y-62016667D02*
X104336152Y-62283333D01*
X103917104Y-62397619D02*
X103917104Y-62016667D01*
X103917104Y-62016667D02*
X104717104Y-62016667D01*
X104717104Y-62016667D02*
X104717104Y-62397619D01*
X103917104Y-62740477D02*
X104717104Y-62740477D01*
X104717104Y-62740477D02*
X103917104Y-63197620D01*
X103917104Y-63197620D02*
X104717104Y-63197620D01*
X104145676Y-63540476D02*
X104145676Y-63921429D01*
X103917104Y-63464286D02*
X104717104Y-63730953D01*
X104717104Y-63730953D02*
X103917104Y-63997619D01*
X104629009Y-67390476D02*
X104667104Y-67314286D01*
X104667104Y-67314286D02*
X104667104Y-67200000D01*
X104667104Y-67200000D02*
X104629009Y-67085714D01*
X104629009Y-67085714D02*
X104552819Y-67009524D01*
X104552819Y-67009524D02*
X104476628Y-66971429D01*
X104476628Y-66971429D02*
X104324247Y-66933333D01*
X104324247Y-66933333D02*
X104209961Y-66933333D01*
X104209961Y-66933333D02*
X104057580Y-66971429D01*
X104057580Y-66971429D02*
X103981390Y-67009524D01*
X103981390Y-67009524D02*
X103905200Y-67085714D01*
X103905200Y-67085714D02*
X103867104Y-67200000D01*
X103867104Y-67200000D02*
X103867104Y-67276191D01*
X103867104Y-67276191D02*
X103905200Y-67390476D01*
X103905200Y-67390476D02*
X103943295Y-67428572D01*
X103943295Y-67428572D02*
X104209961Y-67428572D01*
X104209961Y-67428572D02*
X104209961Y-67276191D01*
X103867104Y-67771429D02*
X104667104Y-67771429D01*
X104667104Y-67771429D02*
X103867104Y-68228572D01*
X103867104Y-68228572D02*
X104667104Y-68228572D01*
X103867104Y-68609524D02*
X104667104Y-68609524D01*
X104667104Y-68609524D02*
X104667104Y-68800000D01*
X104667104Y-68800000D02*
X104629009Y-68914286D01*
X104629009Y-68914286D02*
X104552819Y-68990476D01*
X104552819Y-68990476D02*
X104476628Y-69028571D01*
X104476628Y-69028571D02*
X104324247Y-69066667D01*
X104324247Y-69066667D02*
X104209961Y-69066667D01*
X104209961Y-69066667D02*
X104057580Y-69028571D01*
X104057580Y-69028571D02*
X103981390Y-68990476D01*
X103981390Y-68990476D02*
X103905200Y-68914286D01*
X103905200Y-68914286D02*
X103867104Y-68800000D01*
X103867104Y-68800000D02*
X103867104Y-68609524D01*
X104667104Y-60247619D02*
X104667104Y-59866667D01*
X104667104Y-59866667D02*
X104286152Y-59828571D01*
X104286152Y-59828571D02*
X104324247Y-59866667D01*
X104324247Y-59866667D02*
X104362342Y-59942857D01*
X104362342Y-59942857D02*
X104362342Y-60133333D01*
X104362342Y-60133333D02*
X104324247Y-60209524D01*
X104324247Y-60209524D02*
X104286152Y-60247619D01*
X104286152Y-60247619D02*
X104209961Y-60285714D01*
X104209961Y-60285714D02*
X104019485Y-60285714D01*
X104019485Y-60285714D02*
X103943295Y-60247619D01*
X103943295Y-60247619D02*
X103905200Y-60209524D01*
X103905200Y-60209524D02*
X103867104Y-60133333D01*
X103867104Y-60133333D02*
X103867104Y-59942857D01*
X103867104Y-59942857D02*
X103905200Y-59866667D01*
X103905200Y-59866667D02*
X103943295Y-59828571D01*
X104667104Y-60514286D02*
X103867104Y-60780953D01*
X103867104Y-60780953D02*
X104667104Y-61047619D01*
X52766666Y-91867104D02*
X52766666Y-92667104D01*
X52766666Y-92667104D02*
X52500000Y-92095676D01*
X52500000Y-92095676D02*
X52233333Y-92667104D01*
X52233333Y-92667104D02*
X52233333Y-91867104D01*
X50609523Y-92629009D02*
X50685713Y-92667104D01*
X50685713Y-92667104D02*
X50799999Y-92667104D01*
X50799999Y-92667104D02*
X50914285Y-92629009D01*
X50914285Y-92629009D02*
X50990475Y-92552819D01*
X50990475Y-92552819D02*
X51028570Y-92476628D01*
X51028570Y-92476628D02*
X51066666Y-92324247D01*
X51066666Y-92324247D02*
X51066666Y-92209961D01*
X51066666Y-92209961D02*
X51028570Y-92057580D01*
X51028570Y-92057580D02*
X50990475Y-91981390D01*
X50990475Y-91981390D02*
X50914285Y-91905200D01*
X50914285Y-91905200D02*
X50799999Y-91867104D01*
X50799999Y-91867104D02*
X50723808Y-91867104D01*
X50723808Y-91867104D02*
X50609523Y-91905200D01*
X50609523Y-91905200D02*
X50571427Y-91943295D01*
X50571427Y-91943295D02*
X50571427Y-92209961D01*
X50571427Y-92209961D02*
X50723808Y-92209961D01*
X50228570Y-91867104D02*
X50228570Y-92667104D01*
X50228570Y-92667104D02*
X49771427Y-91867104D01*
X49771427Y-91867104D02*
X49771427Y-92667104D01*
X49390475Y-91867104D02*
X49390475Y-92667104D01*
X49390475Y-92667104D02*
X49199999Y-92667104D01*
X49199999Y-92667104D02*
X49085713Y-92629009D01*
X49085713Y-92629009D02*
X49009523Y-92552819D01*
X49009523Y-92552819D02*
X48971428Y-92476628D01*
X48971428Y-92476628D02*
X48933332Y-92324247D01*
X48933332Y-92324247D02*
X48933332Y-92209961D01*
X48933332Y-92209961D02*
X48971428Y-92057580D01*
X48971428Y-92057580D02*
X49009523Y-91981390D01*
X49009523Y-91981390D02*
X49085713Y-91905200D01*
X49085713Y-91905200D02*
X49199999Y-91867104D01*
X49199999Y-91867104D02*
X49390475Y-91867104D01*
X55202380Y-92667104D02*
X55583332Y-92667104D01*
X55583332Y-92667104D02*
X55621428Y-92286152D01*
X55621428Y-92286152D02*
X55583332Y-92324247D01*
X55583332Y-92324247D02*
X55507142Y-92362342D01*
X55507142Y-92362342D02*
X55316666Y-92362342D01*
X55316666Y-92362342D02*
X55240475Y-92324247D01*
X55240475Y-92324247D02*
X55202380Y-92286152D01*
X55202380Y-92286152D02*
X55164285Y-92209961D01*
X55164285Y-92209961D02*
X55164285Y-92019485D01*
X55164285Y-92019485D02*
X55202380Y-91943295D01*
X55202380Y-91943295D02*
X55240475Y-91905200D01*
X55240475Y-91905200D02*
X55316666Y-91867104D01*
X55316666Y-91867104D02*
X55507142Y-91867104D01*
X55507142Y-91867104D02*
X55583332Y-91905200D01*
X55583332Y-91905200D02*
X55621428Y-91943295D01*
X54935713Y-92667104D02*
X54669046Y-91867104D01*
X54669046Y-91867104D02*
X54402380Y-92667104D01*
X48320990Y-61159523D02*
X48282895Y-61235713D01*
X48282895Y-61235713D02*
X48282895Y-61349999D01*
X48282895Y-61349999D02*
X48320990Y-61464285D01*
X48320990Y-61464285D02*
X48397180Y-61540475D01*
X48397180Y-61540475D02*
X48473371Y-61578570D01*
X48473371Y-61578570D02*
X48625752Y-61616666D01*
X48625752Y-61616666D02*
X48740038Y-61616666D01*
X48740038Y-61616666D02*
X48892419Y-61578570D01*
X48892419Y-61578570D02*
X48968609Y-61540475D01*
X48968609Y-61540475D02*
X49044800Y-61464285D01*
X49044800Y-61464285D02*
X49082895Y-61349999D01*
X49082895Y-61349999D02*
X49082895Y-61273808D01*
X49082895Y-61273808D02*
X49044800Y-61159523D01*
X49044800Y-61159523D02*
X49006704Y-61121427D01*
X49006704Y-61121427D02*
X48740038Y-61121427D01*
X48740038Y-61121427D02*
X48740038Y-61273808D01*
X49082895Y-60778570D02*
X48282895Y-60778570D01*
X48282895Y-60778570D02*
X49082895Y-60321427D01*
X49082895Y-60321427D02*
X48282895Y-60321427D01*
X49082895Y-59940475D02*
X48282895Y-59940475D01*
X48282895Y-59940475D02*
X48282895Y-59749999D01*
X48282895Y-59749999D02*
X48320990Y-59635713D01*
X48320990Y-59635713D02*
X48397180Y-59559523D01*
X48397180Y-59559523D02*
X48473371Y-59521428D01*
X48473371Y-59521428D02*
X48625752Y-59483332D01*
X48625752Y-59483332D02*
X48740038Y-59483332D01*
X48740038Y-59483332D02*
X48892419Y-59521428D01*
X48892419Y-59521428D02*
X48968609Y-59559523D01*
X48968609Y-59559523D02*
X49044800Y-59635713D01*
X49044800Y-59635713D02*
X49082895Y-59749999D01*
X49082895Y-59749999D02*
X49082895Y-59940475D01*
X48282895Y-63659523D02*
X48282895Y-63202380D01*
X49082895Y-63430952D02*
X48282895Y-63430952D01*
X48282895Y-63011904D02*
X49082895Y-62478570D01*
X48282895Y-62478570D02*
X49082895Y-63011904D01*
X49082895Y-65733332D02*
X48701942Y-65999999D01*
X49082895Y-66190475D02*
X48282895Y-66190475D01*
X48282895Y-66190475D02*
X48282895Y-65885713D01*
X48282895Y-65885713D02*
X48320990Y-65809523D01*
X48320990Y-65809523D02*
X48359085Y-65771428D01*
X48359085Y-65771428D02*
X48435276Y-65733332D01*
X48435276Y-65733332D02*
X48549561Y-65733332D01*
X48549561Y-65733332D02*
X48625752Y-65771428D01*
X48625752Y-65771428D02*
X48663847Y-65809523D01*
X48663847Y-65809523D02*
X48701942Y-65885713D01*
X48701942Y-65885713D02*
X48701942Y-66190475D01*
X48282895Y-65466666D02*
X49082895Y-64933332D01*
X48282895Y-64933332D02*
X49082895Y-65466666D01*
X48282895Y-68352380D02*
X48282895Y-68733332D01*
X48282895Y-68733332D02*
X48663847Y-68771428D01*
X48663847Y-68771428D02*
X48625752Y-68733332D01*
X48625752Y-68733332D02*
X48587657Y-68657142D01*
X48587657Y-68657142D02*
X48587657Y-68466666D01*
X48587657Y-68466666D02*
X48625752Y-68390475D01*
X48625752Y-68390475D02*
X48663847Y-68352380D01*
X48663847Y-68352380D02*
X48740038Y-68314285D01*
X48740038Y-68314285D02*
X48930514Y-68314285D01*
X48930514Y-68314285D02*
X49006704Y-68352380D01*
X49006704Y-68352380D02*
X49044800Y-68390475D01*
X49044800Y-68390475D02*
X49082895Y-68466666D01*
X49082895Y-68466666D02*
X49082895Y-68657142D01*
X49082895Y-68657142D02*
X49044800Y-68733332D01*
X49044800Y-68733332D02*
X49006704Y-68771428D01*
X48282895Y-68085713D02*
X49082895Y-67819046D01*
X49082895Y-67819046D02*
X48282895Y-67552380D01*
X51378571Y-65220990D02*
X51302381Y-65182895D01*
X51302381Y-65182895D02*
X51188095Y-65182895D01*
X51188095Y-65182895D02*
X51073809Y-65220990D01*
X51073809Y-65220990D02*
X50997619Y-65297180D01*
X50997619Y-65297180D02*
X50959524Y-65373371D01*
X50959524Y-65373371D02*
X50921428Y-65525752D01*
X50921428Y-65525752D02*
X50921428Y-65640038D01*
X50921428Y-65640038D02*
X50959524Y-65792419D01*
X50959524Y-65792419D02*
X50997619Y-65868609D01*
X50997619Y-65868609D02*
X51073809Y-65944800D01*
X51073809Y-65944800D02*
X51188095Y-65982895D01*
X51188095Y-65982895D02*
X51264286Y-65982895D01*
X51264286Y-65982895D02*
X51378571Y-65944800D01*
X51378571Y-65944800D02*
X51416667Y-65906704D01*
X51416667Y-65906704D02*
X51416667Y-65640038D01*
X51416667Y-65640038D02*
X51264286Y-65640038D01*
X51759524Y-65982895D02*
X51759524Y-65182895D01*
X51759524Y-65182895D02*
X52064286Y-65182895D01*
X52064286Y-65182895D02*
X52140476Y-65220990D01*
X52140476Y-65220990D02*
X52178571Y-65259085D01*
X52178571Y-65259085D02*
X52216667Y-65335276D01*
X52216667Y-65335276D02*
X52216667Y-65449561D01*
X52216667Y-65449561D02*
X52178571Y-65525752D01*
X52178571Y-65525752D02*
X52140476Y-65563847D01*
X52140476Y-65563847D02*
X52064286Y-65601942D01*
X52064286Y-65601942D02*
X51759524Y-65601942D01*
X52597619Y-65982895D02*
X52750000Y-65982895D01*
X52750000Y-65982895D02*
X52826190Y-65944800D01*
X52826190Y-65944800D02*
X52864286Y-65906704D01*
X52864286Y-65906704D02*
X52940476Y-65792419D01*
X52940476Y-65792419D02*
X52978571Y-65640038D01*
X52978571Y-65640038D02*
X52978571Y-65335276D01*
X52978571Y-65335276D02*
X52940476Y-65259085D01*
X52940476Y-65259085D02*
X52902381Y-65220990D01*
X52902381Y-65220990D02*
X52826190Y-65182895D01*
X52826190Y-65182895D02*
X52673809Y-65182895D01*
X52673809Y-65182895D02*
X52597619Y-65220990D01*
X52597619Y-65220990D02*
X52559524Y-65259085D01*
X52559524Y-65259085D02*
X52521428Y-65335276D01*
X52521428Y-65335276D02*
X52521428Y-65525752D01*
X52521428Y-65525752D02*
X52559524Y-65601942D01*
X52559524Y-65601942D02*
X52597619Y-65640038D01*
X52597619Y-65640038D02*
X52673809Y-65678133D01*
X52673809Y-65678133D02*
X52826190Y-65678133D01*
X52826190Y-65678133D02*
X52902381Y-65640038D01*
X52902381Y-65640038D02*
X52940476Y-65601942D01*
X52940476Y-65601942D02*
X52978571Y-65525752D01*
X50647618Y-62720990D02*
X50571428Y-62682895D01*
X50571428Y-62682895D02*
X50457142Y-62682895D01*
X50457142Y-62682895D02*
X50342856Y-62720990D01*
X50342856Y-62720990D02*
X50266666Y-62797180D01*
X50266666Y-62797180D02*
X50228571Y-62873371D01*
X50228571Y-62873371D02*
X50190475Y-63025752D01*
X50190475Y-63025752D02*
X50190475Y-63140038D01*
X50190475Y-63140038D02*
X50228571Y-63292419D01*
X50228571Y-63292419D02*
X50266666Y-63368609D01*
X50266666Y-63368609D02*
X50342856Y-63444800D01*
X50342856Y-63444800D02*
X50457142Y-63482895D01*
X50457142Y-63482895D02*
X50533333Y-63482895D01*
X50533333Y-63482895D02*
X50647618Y-63444800D01*
X50647618Y-63444800D02*
X50685714Y-63406704D01*
X50685714Y-63406704D02*
X50685714Y-63140038D01*
X50685714Y-63140038D02*
X50533333Y-63140038D01*
X51028571Y-63482895D02*
X51028571Y-62682895D01*
X51028571Y-62682895D02*
X51333333Y-62682895D01*
X51333333Y-62682895D02*
X51409523Y-62720990D01*
X51409523Y-62720990D02*
X51447618Y-62759085D01*
X51447618Y-62759085D02*
X51485714Y-62835276D01*
X51485714Y-62835276D02*
X51485714Y-62949561D01*
X51485714Y-62949561D02*
X51447618Y-63025752D01*
X51447618Y-63025752D02*
X51409523Y-63063847D01*
X51409523Y-63063847D02*
X51333333Y-63101942D01*
X51333333Y-63101942D02*
X51028571Y-63101942D01*
X52247618Y-63482895D02*
X51790475Y-63482895D01*
X52019047Y-63482895D02*
X52019047Y-62682895D01*
X52019047Y-62682895D02*
X51942856Y-62797180D01*
X51942856Y-62797180D02*
X51866666Y-62873371D01*
X51866666Y-62873371D02*
X51790475Y-62911466D01*
X53009523Y-63482895D02*
X52552380Y-63482895D01*
X52780952Y-63482895D02*
X52780952Y-62682895D01*
X52780952Y-62682895D02*
X52704761Y-62797180D01*
X52704761Y-62797180D02*
X52628571Y-62873371D01*
X52628571Y-62873371D02*
X52552380Y-62911466D01*
X60228571Y-65270990D02*
X60152381Y-65232895D01*
X60152381Y-65232895D02*
X60038095Y-65232895D01*
X60038095Y-65232895D02*
X59923809Y-65270990D01*
X59923809Y-65270990D02*
X59847619Y-65347180D01*
X59847619Y-65347180D02*
X59809524Y-65423371D01*
X59809524Y-65423371D02*
X59771428Y-65575752D01*
X59771428Y-65575752D02*
X59771428Y-65690038D01*
X59771428Y-65690038D02*
X59809524Y-65842419D01*
X59809524Y-65842419D02*
X59847619Y-65918609D01*
X59847619Y-65918609D02*
X59923809Y-65994800D01*
X59923809Y-65994800D02*
X60038095Y-66032895D01*
X60038095Y-66032895D02*
X60114286Y-66032895D01*
X60114286Y-66032895D02*
X60228571Y-65994800D01*
X60228571Y-65994800D02*
X60266667Y-65956704D01*
X60266667Y-65956704D02*
X60266667Y-65690038D01*
X60266667Y-65690038D02*
X60114286Y-65690038D01*
X60609524Y-66032895D02*
X60609524Y-65232895D01*
X60609524Y-65232895D02*
X60914286Y-65232895D01*
X60914286Y-65232895D02*
X60990476Y-65270990D01*
X60990476Y-65270990D02*
X61028571Y-65309085D01*
X61028571Y-65309085D02*
X61066667Y-65385276D01*
X61066667Y-65385276D02*
X61066667Y-65499561D01*
X61066667Y-65499561D02*
X61028571Y-65575752D01*
X61028571Y-65575752D02*
X60990476Y-65613847D01*
X60990476Y-65613847D02*
X60914286Y-65651942D01*
X60914286Y-65651942D02*
X60609524Y-65651942D01*
X61523809Y-65575752D02*
X61447619Y-65537657D01*
X61447619Y-65537657D02*
X61409524Y-65499561D01*
X61409524Y-65499561D02*
X61371428Y-65423371D01*
X61371428Y-65423371D02*
X61371428Y-65385276D01*
X61371428Y-65385276D02*
X61409524Y-65309085D01*
X61409524Y-65309085D02*
X61447619Y-65270990D01*
X61447619Y-65270990D02*
X61523809Y-65232895D01*
X61523809Y-65232895D02*
X61676190Y-65232895D01*
X61676190Y-65232895D02*
X61752381Y-65270990D01*
X61752381Y-65270990D02*
X61790476Y-65309085D01*
X61790476Y-65309085D02*
X61828571Y-65385276D01*
X61828571Y-65385276D02*
X61828571Y-65423371D01*
X61828571Y-65423371D02*
X61790476Y-65499561D01*
X61790476Y-65499561D02*
X61752381Y-65537657D01*
X61752381Y-65537657D02*
X61676190Y-65575752D01*
X61676190Y-65575752D02*
X61523809Y-65575752D01*
X61523809Y-65575752D02*
X61447619Y-65613847D01*
X61447619Y-65613847D02*
X61409524Y-65651942D01*
X61409524Y-65651942D02*
X61371428Y-65728133D01*
X61371428Y-65728133D02*
X61371428Y-65880514D01*
X61371428Y-65880514D02*
X61409524Y-65956704D01*
X61409524Y-65956704D02*
X61447619Y-65994800D01*
X61447619Y-65994800D02*
X61523809Y-66032895D01*
X61523809Y-66032895D02*
X61676190Y-66032895D01*
X61676190Y-66032895D02*
X61752381Y-65994800D01*
X61752381Y-65994800D02*
X61790476Y-65956704D01*
X61790476Y-65956704D02*
X61828571Y-65880514D01*
X61828571Y-65880514D02*
X61828571Y-65728133D01*
X61828571Y-65728133D02*
X61790476Y-65651942D01*
X61790476Y-65651942D02*
X61752381Y-65613847D01*
X61752381Y-65613847D02*
X61676190Y-65575752D01*
X60247618Y-62720990D02*
X60171428Y-62682895D01*
X60171428Y-62682895D02*
X60057142Y-62682895D01*
X60057142Y-62682895D02*
X59942856Y-62720990D01*
X59942856Y-62720990D02*
X59866666Y-62797180D01*
X59866666Y-62797180D02*
X59828571Y-62873371D01*
X59828571Y-62873371D02*
X59790475Y-63025752D01*
X59790475Y-63025752D02*
X59790475Y-63140038D01*
X59790475Y-63140038D02*
X59828571Y-63292419D01*
X59828571Y-63292419D02*
X59866666Y-63368609D01*
X59866666Y-63368609D02*
X59942856Y-63444800D01*
X59942856Y-63444800D02*
X60057142Y-63482895D01*
X60057142Y-63482895D02*
X60133333Y-63482895D01*
X60133333Y-63482895D02*
X60247618Y-63444800D01*
X60247618Y-63444800D02*
X60285714Y-63406704D01*
X60285714Y-63406704D02*
X60285714Y-63140038D01*
X60285714Y-63140038D02*
X60133333Y-63140038D01*
X60628571Y-63482895D02*
X60628571Y-62682895D01*
X60628571Y-62682895D02*
X60933333Y-62682895D01*
X60933333Y-62682895D02*
X61009523Y-62720990D01*
X61009523Y-62720990D02*
X61047618Y-62759085D01*
X61047618Y-62759085D02*
X61085714Y-62835276D01*
X61085714Y-62835276D02*
X61085714Y-62949561D01*
X61085714Y-62949561D02*
X61047618Y-63025752D01*
X61047618Y-63025752D02*
X61009523Y-63063847D01*
X61009523Y-63063847D02*
X60933333Y-63101942D01*
X60933333Y-63101942D02*
X60628571Y-63101942D01*
X61847618Y-63482895D02*
X61390475Y-63482895D01*
X61619047Y-63482895D02*
X61619047Y-62682895D01*
X61619047Y-62682895D02*
X61542856Y-62797180D01*
X61542856Y-62797180D02*
X61466666Y-62873371D01*
X61466666Y-62873371D02*
X61390475Y-62911466D01*
X62342857Y-62682895D02*
X62419047Y-62682895D01*
X62419047Y-62682895D02*
X62495238Y-62720990D01*
X62495238Y-62720990D02*
X62533333Y-62759085D01*
X62533333Y-62759085D02*
X62571428Y-62835276D01*
X62571428Y-62835276D02*
X62609523Y-62987657D01*
X62609523Y-62987657D02*
X62609523Y-63178133D01*
X62609523Y-63178133D02*
X62571428Y-63330514D01*
X62571428Y-63330514D02*
X62533333Y-63406704D01*
X62533333Y-63406704D02*
X62495238Y-63444800D01*
X62495238Y-63444800D02*
X62419047Y-63482895D01*
X62419047Y-63482895D02*
X62342857Y-63482895D01*
X62342857Y-63482895D02*
X62266666Y-63444800D01*
X62266666Y-63444800D02*
X62228571Y-63406704D01*
X62228571Y-63406704D02*
X62190476Y-63330514D01*
X62190476Y-63330514D02*
X62152380Y-63178133D01*
X62152380Y-63178133D02*
X62152380Y-62987657D01*
X62152380Y-62987657D02*
X62190476Y-62835276D01*
X62190476Y-62835276D02*
X62228571Y-62759085D01*
X62228571Y-62759085D02*
X62266666Y-62720990D01*
X62266666Y-62720990D02*
X62342857Y-62682895D01*
X60247618Y-60220990D02*
X60171428Y-60182895D01*
X60171428Y-60182895D02*
X60057142Y-60182895D01*
X60057142Y-60182895D02*
X59942856Y-60220990D01*
X59942856Y-60220990D02*
X59866666Y-60297180D01*
X59866666Y-60297180D02*
X59828571Y-60373371D01*
X59828571Y-60373371D02*
X59790475Y-60525752D01*
X59790475Y-60525752D02*
X59790475Y-60640038D01*
X59790475Y-60640038D02*
X59828571Y-60792419D01*
X59828571Y-60792419D02*
X59866666Y-60868609D01*
X59866666Y-60868609D02*
X59942856Y-60944800D01*
X59942856Y-60944800D02*
X60057142Y-60982895D01*
X60057142Y-60982895D02*
X60133333Y-60982895D01*
X60133333Y-60982895D02*
X60247618Y-60944800D01*
X60247618Y-60944800D02*
X60285714Y-60906704D01*
X60285714Y-60906704D02*
X60285714Y-60640038D01*
X60285714Y-60640038D02*
X60133333Y-60640038D01*
X60628571Y-60982895D02*
X60628571Y-60182895D01*
X60628571Y-60182895D02*
X60933333Y-60182895D01*
X60933333Y-60182895D02*
X61009523Y-60220990D01*
X61009523Y-60220990D02*
X61047618Y-60259085D01*
X61047618Y-60259085D02*
X61085714Y-60335276D01*
X61085714Y-60335276D02*
X61085714Y-60449561D01*
X61085714Y-60449561D02*
X61047618Y-60525752D01*
X61047618Y-60525752D02*
X61009523Y-60563847D01*
X61009523Y-60563847D02*
X60933333Y-60601942D01*
X60933333Y-60601942D02*
X60628571Y-60601942D01*
X61847618Y-60982895D02*
X61390475Y-60982895D01*
X61619047Y-60982895D02*
X61619047Y-60182895D01*
X61619047Y-60182895D02*
X61542856Y-60297180D01*
X61542856Y-60297180D02*
X61466666Y-60373371D01*
X61466666Y-60373371D02*
X61390475Y-60411466D01*
X62152380Y-60259085D02*
X62190476Y-60220990D01*
X62190476Y-60220990D02*
X62266666Y-60182895D01*
X62266666Y-60182895D02*
X62457142Y-60182895D01*
X62457142Y-60182895D02*
X62533333Y-60220990D01*
X62533333Y-60220990D02*
X62571428Y-60259085D01*
X62571428Y-60259085D02*
X62609523Y-60335276D01*
X62609523Y-60335276D02*
X62609523Y-60411466D01*
X62609523Y-60411466D02*
X62571428Y-60525752D01*
X62571428Y-60525752D02*
X62114285Y-60982895D01*
X62114285Y-60982895D02*
X62609523Y-60982895D01*
X89978571Y-60170990D02*
X89902381Y-60132895D01*
X89902381Y-60132895D02*
X89788095Y-60132895D01*
X89788095Y-60132895D02*
X89673809Y-60170990D01*
X89673809Y-60170990D02*
X89597619Y-60247180D01*
X89597619Y-60247180D02*
X89559524Y-60323371D01*
X89559524Y-60323371D02*
X89521428Y-60475752D01*
X89521428Y-60475752D02*
X89521428Y-60590038D01*
X89521428Y-60590038D02*
X89559524Y-60742419D01*
X89559524Y-60742419D02*
X89597619Y-60818609D01*
X89597619Y-60818609D02*
X89673809Y-60894800D01*
X89673809Y-60894800D02*
X89788095Y-60932895D01*
X89788095Y-60932895D02*
X89864286Y-60932895D01*
X89864286Y-60932895D02*
X89978571Y-60894800D01*
X89978571Y-60894800D02*
X90016667Y-60856704D01*
X90016667Y-60856704D02*
X90016667Y-60590038D01*
X90016667Y-60590038D02*
X89864286Y-60590038D01*
X90359524Y-60932895D02*
X90359524Y-60132895D01*
X90359524Y-60132895D02*
X90664286Y-60132895D01*
X90664286Y-60132895D02*
X90740476Y-60170990D01*
X90740476Y-60170990D02*
X90778571Y-60209085D01*
X90778571Y-60209085D02*
X90816667Y-60285276D01*
X90816667Y-60285276D02*
X90816667Y-60399561D01*
X90816667Y-60399561D02*
X90778571Y-60475752D01*
X90778571Y-60475752D02*
X90740476Y-60513847D01*
X90740476Y-60513847D02*
X90664286Y-60551942D01*
X90664286Y-60551942D02*
X90359524Y-60551942D01*
X91083333Y-60132895D02*
X91616667Y-60132895D01*
X91616667Y-60132895D02*
X91273809Y-60932895D01*
X89978571Y-62670990D02*
X89902381Y-62632895D01*
X89902381Y-62632895D02*
X89788095Y-62632895D01*
X89788095Y-62632895D02*
X89673809Y-62670990D01*
X89673809Y-62670990D02*
X89597619Y-62747180D01*
X89597619Y-62747180D02*
X89559524Y-62823371D01*
X89559524Y-62823371D02*
X89521428Y-62975752D01*
X89521428Y-62975752D02*
X89521428Y-63090038D01*
X89521428Y-63090038D02*
X89559524Y-63242419D01*
X89559524Y-63242419D02*
X89597619Y-63318609D01*
X89597619Y-63318609D02*
X89673809Y-63394800D01*
X89673809Y-63394800D02*
X89788095Y-63432895D01*
X89788095Y-63432895D02*
X89864286Y-63432895D01*
X89864286Y-63432895D02*
X89978571Y-63394800D01*
X89978571Y-63394800D02*
X90016667Y-63356704D01*
X90016667Y-63356704D02*
X90016667Y-63090038D01*
X90016667Y-63090038D02*
X89864286Y-63090038D01*
X90359524Y-63432895D02*
X90359524Y-62632895D01*
X90359524Y-62632895D02*
X90664286Y-62632895D01*
X90664286Y-62632895D02*
X90740476Y-62670990D01*
X90740476Y-62670990D02*
X90778571Y-62709085D01*
X90778571Y-62709085D02*
X90816667Y-62785276D01*
X90816667Y-62785276D02*
X90816667Y-62899561D01*
X90816667Y-62899561D02*
X90778571Y-62975752D01*
X90778571Y-62975752D02*
X90740476Y-63013847D01*
X90740476Y-63013847D02*
X90664286Y-63051942D01*
X90664286Y-63051942D02*
X90359524Y-63051942D01*
X91502381Y-62632895D02*
X91350000Y-62632895D01*
X91350000Y-62632895D02*
X91273809Y-62670990D01*
X91273809Y-62670990D02*
X91235714Y-62709085D01*
X91235714Y-62709085D02*
X91159524Y-62823371D01*
X91159524Y-62823371D02*
X91121428Y-62975752D01*
X91121428Y-62975752D02*
X91121428Y-63280514D01*
X91121428Y-63280514D02*
X91159524Y-63356704D01*
X91159524Y-63356704D02*
X91197619Y-63394800D01*
X91197619Y-63394800D02*
X91273809Y-63432895D01*
X91273809Y-63432895D02*
X91426190Y-63432895D01*
X91426190Y-63432895D02*
X91502381Y-63394800D01*
X91502381Y-63394800D02*
X91540476Y-63356704D01*
X91540476Y-63356704D02*
X91578571Y-63280514D01*
X91578571Y-63280514D02*
X91578571Y-63090038D01*
X91578571Y-63090038D02*
X91540476Y-63013847D01*
X91540476Y-63013847D02*
X91502381Y-62975752D01*
X91502381Y-62975752D02*
X91426190Y-62937657D01*
X91426190Y-62937657D02*
X91273809Y-62937657D01*
X91273809Y-62937657D02*
X91197619Y-62975752D01*
X91197619Y-62975752D02*
X91159524Y-63013847D01*
X91159524Y-63013847D02*
X91121428Y-63090038D01*
X89978571Y-65170990D02*
X89902381Y-65132895D01*
X89902381Y-65132895D02*
X89788095Y-65132895D01*
X89788095Y-65132895D02*
X89673809Y-65170990D01*
X89673809Y-65170990D02*
X89597619Y-65247180D01*
X89597619Y-65247180D02*
X89559524Y-65323371D01*
X89559524Y-65323371D02*
X89521428Y-65475752D01*
X89521428Y-65475752D02*
X89521428Y-65590038D01*
X89521428Y-65590038D02*
X89559524Y-65742419D01*
X89559524Y-65742419D02*
X89597619Y-65818609D01*
X89597619Y-65818609D02*
X89673809Y-65894800D01*
X89673809Y-65894800D02*
X89788095Y-65932895D01*
X89788095Y-65932895D02*
X89864286Y-65932895D01*
X89864286Y-65932895D02*
X89978571Y-65894800D01*
X89978571Y-65894800D02*
X90016667Y-65856704D01*
X90016667Y-65856704D02*
X90016667Y-65590038D01*
X90016667Y-65590038D02*
X89864286Y-65590038D01*
X90359524Y-65932895D02*
X90359524Y-65132895D01*
X90359524Y-65132895D02*
X90664286Y-65132895D01*
X90664286Y-65132895D02*
X90740476Y-65170990D01*
X90740476Y-65170990D02*
X90778571Y-65209085D01*
X90778571Y-65209085D02*
X90816667Y-65285276D01*
X90816667Y-65285276D02*
X90816667Y-65399561D01*
X90816667Y-65399561D02*
X90778571Y-65475752D01*
X90778571Y-65475752D02*
X90740476Y-65513847D01*
X90740476Y-65513847D02*
X90664286Y-65551942D01*
X90664286Y-65551942D02*
X90359524Y-65551942D01*
X91083333Y-65132895D02*
X91578571Y-65132895D01*
X91578571Y-65132895D02*
X91311905Y-65437657D01*
X91311905Y-65437657D02*
X91426190Y-65437657D01*
X91426190Y-65437657D02*
X91502381Y-65475752D01*
X91502381Y-65475752D02*
X91540476Y-65513847D01*
X91540476Y-65513847D02*
X91578571Y-65590038D01*
X91578571Y-65590038D02*
X91578571Y-65780514D01*
X91578571Y-65780514D02*
X91540476Y-65856704D01*
X91540476Y-65856704D02*
X91502381Y-65894800D01*
X91502381Y-65894800D02*
X91426190Y-65932895D01*
X91426190Y-65932895D02*
X91197619Y-65932895D01*
X91197619Y-65932895D02*
X91121428Y-65894800D01*
X91121428Y-65894800D02*
X91083333Y-65856704D01*
X95390476Y-67370990D02*
X95314286Y-67332895D01*
X95314286Y-67332895D02*
X95200000Y-67332895D01*
X95200000Y-67332895D02*
X95085714Y-67370990D01*
X95085714Y-67370990D02*
X95009524Y-67447180D01*
X95009524Y-67447180D02*
X94971429Y-67523371D01*
X94971429Y-67523371D02*
X94933333Y-67675752D01*
X94933333Y-67675752D02*
X94933333Y-67790038D01*
X94933333Y-67790038D02*
X94971429Y-67942419D01*
X94971429Y-67942419D02*
X95009524Y-68018609D01*
X95009524Y-68018609D02*
X95085714Y-68094800D01*
X95085714Y-68094800D02*
X95200000Y-68132895D01*
X95200000Y-68132895D02*
X95276191Y-68132895D01*
X95276191Y-68132895D02*
X95390476Y-68094800D01*
X95390476Y-68094800D02*
X95428572Y-68056704D01*
X95428572Y-68056704D02*
X95428572Y-67790038D01*
X95428572Y-67790038D02*
X95276191Y-67790038D01*
X95771429Y-68132895D02*
X95771429Y-67332895D01*
X95771429Y-67332895D02*
X96228572Y-68132895D01*
X96228572Y-68132895D02*
X96228572Y-67332895D01*
X96609524Y-68132895D02*
X96609524Y-67332895D01*
X96609524Y-67332895D02*
X96800000Y-67332895D01*
X96800000Y-67332895D02*
X96914286Y-67370990D01*
X96914286Y-67370990D02*
X96990476Y-67447180D01*
X96990476Y-67447180D02*
X97028571Y-67523371D01*
X97028571Y-67523371D02*
X97066667Y-67675752D01*
X97066667Y-67675752D02*
X97066667Y-67790038D01*
X97066667Y-67790038D02*
X97028571Y-67942419D01*
X97028571Y-67942419D02*
X96990476Y-68018609D01*
X96990476Y-68018609D02*
X96914286Y-68094800D01*
X96914286Y-68094800D02*
X96800000Y-68132895D01*
X96800000Y-68132895D02*
X96609524Y-68132895D01*
X98447619Y-67332895D02*
X98066667Y-67332895D01*
X98066667Y-67332895D02*
X98028571Y-67713847D01*
X98028571Y-67713847D02*
X98066667Y-67675752D01*
X98066667Y-67675752D02*
X98142857Y-67637657D01*
X98142857Y-67637657D02*
X98333333Y-67637657D01*
X98333333Y-67637657D02*
X98409524Y-67675752D01*
X98409524Y-67675752D02*
X98447619Y-67713847D01*
X98447619Y-67713847D02*
X98485714Y-67790038D01*
X98485714Y-67790038D02*
X98485714Y-67980514D01*
X98485714Y-67980514D02*
X98447619Y-68056704D01*
X98447619Y-68056704D02*
X98409524Y-68094800D01*
X98409524Y-68094800D02*
X98333333Y-68132895D01*
X98333333Y-68132895D02*
X98142857Y-68132895D01*
X98142857Y-68132895D02*
X98066667Y-68094800D01*
X98066667Y-68094800D02*
X98028571Y-68056704D01*
X98714286Y-67332895D02*
X98980953Y-68132895D01*
X98980953Y-68132895D02*
X99247619Y-67332895D01*
X95647618Y-56994800D02*
X95761904Y-57032895D01*
X95761904Y-57032895D02*
X95952380Y-57032895D01*
X95952380Y-57032895D02*
X96028571Y-56994800D01*
X96028571Y-56994800D02*
X96066666Y-56956704D01*
X96066666Y-56956704D02*
X96104761Y-56880514D01*
X96104761Y-56880514D02*
X96104761Y-56804323D01*
X96104761Y-56804323D02*
X96066666Y-56728133D01*
X96066666Y-56728133D02*
X96028571Y-56690038D01*
X96028571Y-56690038D02*
X95952380Y-56651942D01*
X95952380Y-56651942D02*
X95799999Y-56613847D01*
X95799999Y-56613847D02*
X95723809Y-56575752D01*
X95723809Y-56575752D02*
X95685714Y-56537657D01*
X95685714Y-56537657D02*
X95647618Y-56461466D01*
X95647618Y-56461466D02*
X95647618Y-56385276D01*
X95647618Y-56385276D02*
X95685714Y-56309085D01*
X95685714Y-56309085D02*
X95723809Y-56270990D01*
X95723809Y-56270990D02*
X95799999Y-56232895D01*
X95799999Y-56232895D02*
X95990476Y-56232895D01*
X95990476Y-56232895D02*
X96104761Y-56270990D01*
X96904762Y-56956704D02*
X96866666Y-56994800D01*
X96866666Y-56994800D02*
X96752381Y-57032895D01*
X96752381Y-57032895D02*
X96676190Y-57032895D01*
X96676190Y-57032895D02*
X96561904Y-56994800D01*
X96561904Y-56994800D02*
X96485714Y-56918609D01*
X96485714Y-56918609D02*
X96447619Y-56842419D01*
X96447619Y-56842419D02*
X96409523Y-56690038D01*
X96409523Y-56690038D02*
X96409523Y-56575752D01*
X96409523Y-56575752D02*
X96447619Y-56423371D01*
X96447619Y-56423371D02*
X96485714Y-56347180D01*
X96485714Y-56347180D02*
X96561904Y-56270990D01*
X96561904Y-56270990D02*
X96676190Y-56232895D01*
X96676190Y-56232895D02*
X96752381Y-56232895D01*
X96752381Y-56232895D02*
X96866666Y-56270990D01*
X96866666Y-56270990D02*
X96904762Y-56309085D01*
X97628571Y-57032895D02*
X97247619Y-57032895D01*
X97247619Y-57032895D02*
X97247619Y-56232895D01*
X98590476Y-56270990D02*
X98514286Y-56232895D01*
X98514286Y-56232895D02*
X98400000Y-56232895D01*
X98400000Y-56232895D02*
X98285714Y-56270990D01*
X98285714Y-56270990D02*
X98209524Y-56347180D01*
X98209524Y-56347180D02*
X98171429Y-56423371D01*
X98171429Y-56423371D02*
X98133333Y-56575752D01*
X98133333Y-56575752D02*
X98133333Y-56690038D01*
X98133333Y-56690038D02*
X98171429Y-56842419D01*
X98171429Y-56842419D02*
X98209524Y-56918609D01*
X98209524Y-56918609D02*
X98285714Y-56994800D01*
X98285714Y-56994800D02*
X98400000Y-57032895D01*
X98400000Y-57032895D02*
X98476191Y-57032895D01*
X98476191Y-57032895D02*
X98590476Y-56994800D01*
X98590476Y-56994800D02*
X98628572Y-56956704D01*
X98628572Y-56956704D02*
X98628572Y-56690038D01*
X98628572Y-56690038D02*
X98476191Y-56690038D01*
X98971429Y-57032895D02*
X98971429Y-56232895D01*
X98971429Y-56232895D02*
X99428572Y-57032895D01*
X99428572Y-57032895D02*
X99428572Y-56232895D01*
X99809524Y-57032895D02*
X99809524Y-56232895D01*
X99809524Y-56232895D02*
X100000000Y-56232895D01*
X100000000Y-56232895D02*
X100114286Y-56270990D01*
X100114286Y-56270990D02*
X100190476Y-56347180D01*
X100190476Y-56347180D02*
X100228571Y-56423371D01*
X100228571Y-56423371D02*
X100266667Y-56575752D01*
X100266667Y-56575752D02*
X100266667Y-56690038D01*
X100266667Y-56690038D02*
X100228571Y-56842419D01*
X100228571Y-56842419D02*
X100190476Y-56918609D01*
X100190476Y-56918609D02*
X100114286Y-56994800D01*
X100114286Y-56994800D02*
X100000000Y-57032895D01*
X100000000Y-57032895D02*
X99809524Y-57032895D01*
X91447619Y-56232895D02*
X91066667Y-56232895D01*
X91066667Y-56232895D02*
X91028571Y-56613847D01*
X91028571Y-56613847D02*
X91066667Y-56575752D01*
X91066667Y-56575752D02*
X91142857Y-56537657D01*
X91142857Y-56537657D02*
X91333333Y-56537657D01*
X91333333Y-56537657D02*
X91409524Y-56575752D01*
X91409524Y-56575752D02*
X91447619Y-56613847D01*
X91447619Y-56613847D02*
X91485714Y-56690038D01*
X91485714Y-56690038D02*
X91485714Y-56880514D01*
X91485714Y-56880514D02*
X91447619Y-56956704D01*
X91447619Y-56956704D02*
X91409524Y-56994800D01*
X91409524Y-56994800D02*
X91333333Y-57032895D01*
X91333333Y-57032895D02*
X91142857Y-57032895D01*
X91142857Y-57032895D02*
X91066667Y-56994800D01*
X91066667Y-56994800D02*
X91028571Y-56956704D01*
X91714286Y-56232895D02*
X91980953Y-57032895D01*
X91980953Y-57032895D02*
X92247619Y-56232895D01*
X93128571Y-56994800D02*
X93242857Y-57032895D01*
X93242857Y-57032895D02*
X93433333Y-57032895D01*
X93433333Y-57032895D02*
X93509524Y-56994800D01*
X93509524Y-56994800D02*
X93547619Y-56956704D01*
X93547619Y-56956704D02*
X93585714Y-56880514D01*
X93585714Y-56880514D02*
X93585714Y-56804323D01*
X93585714Y-56804323D02*
X93547619Y-56728133D01*
X93547619Y-56728133D02*
X93509524Y-56690038D01*
X93509524Y-56690038D02*
X93433333Y-56651942D01*
X93433333Y-56651942D02*
X93280952Y-56613847D01*
X93280952Y-56613847D02*
X93204762Y-56575752D01*
X93204762Y-56575752D02*
X93166667Y-56537657D01*
X93166667Y-56537657D02*
X93128571Y-56461466D01*
X93128571Y-56461466D02*
X93128571Y-56385276D01*
X93128571Y-56385276D02*
X93166667Y-56309085D01*
X93166667Y-56309085D02*
X93204762Y-56270990D01*
X93204762Y-56270990D02*
X93280952Y-56232895D01*
X93280952Y-56232895D02*
X93471429Y-56232895D01*
X93471429Y-56232895D02*
X93585714Y-56270990D01*
X93928572Y-57032895D02*
X93928572Y-56232895D01*
X93928572Y-56232895D02*
X94119048Y-56232895D01*
X94119048Y-56232895D02*
X94233334Y-56270990D01*
X94233334Y-56270990D02*
X94309524Y-56347180D01*
X94309524Y-56347180D02*
X94347619Y-56423371D01*
X94347619Y-56423371D02*
X94385715Y-56575752D01*
X94385715Y-56575752D02*
X94385715Y-56690038D01*
X94385715Y-56690038D02*
X94347619Y-56842419D01*
X94347619Y-56842419D02*
X94309524Y-56918609D01*
X94309524Y-56918609D02*
X94233334Y-56994800D01*
X94233334Y-56994800D02*
X94119048Y-57032895D01*
X94119048Y-57032895D02*
X93928572Y-57032895D01*
X94690476Y-56804323D02*
X95071429Y-56804323D01*
X94614286Y-57032895D02*
X94880953Y-56232895D01*
X94880953Y-56232895D02*
X95147619Y-57032895D01*
X83147618Y-56994800D02*
X83261904Y-57032895D01*
X83261904Y-57032895D02*
X83452380Y-57032895D01*
X83452380Y-57032895D02*
X83528571Y-56994800D01*
X83528571Y-56994800D02*
X83566666Y-56956704D01*
X83566666Y-56956704D02*
X83604761Y-56880514D01*
X83604761Y-56880514D02*
X83604761Y-56804323D01*
X83604761Y-56804323D02*
X83566666Y-56728133D01*
X83566666Y-56728133D02*
X83528571Y-56690038D01*
X83528571Y-56690038D02*
X83452380Y-56651942D01*
X83452380Y-56651942D02*
X83299999Y-56613847D01*
X83299999Y-56613847D02*
X83223809Y-56575752D01*
X83223809Y-56575752D02*
X83185714Y-56537657D01*
X83185714Y-56537657D02*
X83147618Y-56461466D01*
X83147618Y-56461466D02*
X83147618Y-56385276D01*
X83147618Y-56385276D02*
X83185714Y-56309085D01*
X83185714Y-56309085D02*
X83223809Y-56270990D01*
X83223809Y-56270990D02*
X83299999Y-56232895D01*
X83299999Y-56232895D02*
X83490476Y-56232895D01*
X83490476Y-56232895D02*
X83604761Y-56270990D01*
X84404762Y-56956704D02*
X84366666Y-56994800D01*
X84366666Y-56994800D02*
X84252381Y-57032895D01*
X84252381Y-57032895D02*
X84176190Y-57032895D01*
X84176190Y-57032895D02*
X84061904Y-56994800D01*
X84061904Y-56994800D02*
X83985714Y-56918609D01*
X83985714Y-56918609D02*
X83947619Y-56842419D01*
X83947619Y-56842419D02*
X83909523Y-56690038D01*
X83909523Y-56690038D02*
X83909523Y-56575752D01*
X83909523Y-56575752D02*
X83947619Y-56423371D01*
X83947619Y-56423371D02*
X83985714Y-56347180D01*
X83985714Y-56347180D02*
X84061904Y-56270990D01*
X84061904Y-56270990D02*
X84176190Y-56232895D01*
X84176190Y-56232895D02*
X84252381Y-56232895D01*
X84252381Y-56232895D02*
X84366666Y-56270990D01*
X84366666Y-56270990D02*
X84404762Y-56309085D01*
X85128571Y-57032895D02*
X84747619Y-57032895D01*
X84747619Y-57032895D02*
X84747619Y-56232895D01*
X86090476Y-56270990D02*
X86014286Y-56232895D01*
X86014286Y-56232895D02*
X85900000Y-56232895D01*
X85900000Y-56232895D02*
X85785714Y-56270990D01*
X85785714Y-56270990D02*
X85709524Y-56347180D01*
X85709524Y-56347180D02*
X85671429Y-56423371D01*
X85671429Y-56423371D02*
X85633333Y-56575752D01*
X85633333Y-56575752D02*
X85633333Y-56690038D01*
X85633333Y-56690038D02*
X85671429Y-56842419D01*
X85671429Y-56842419D02*
X85709524Y-56918609D01*
X85709524Y-56918609D02*
X85785714Y-56994800D01*
X85785714Y-56994800D02*
X85900000Y-57032895D01*
X85900000Y-57032895D02*
X85976191Y-57032895D01*
X85976191Y-57032895D02*
X86090476Y-56994800D01*
X86090476Y-56994800D02*
X86128572Y-56956704D01*
X86128572Y-56956704D02*
X86128572Y-56690038D01*
X86128572Y-56690038D02*
X85976191Y-56690038D01*
X86471429Y-57032895D02*
X86471429Y-56232895D01*
X86471429Y-56232895D02*
X86928572Y-57032895D01*
X86928572Y-57032895D02*
X86928572Y-56232895D01*
X87309524Y-57032895D02*
X87309524Y-56232895D01*
X87309524Y-56232895D02*
X87500000Y-56232895D01*
X87500000Y-56232895D02*
X87614286Y-56270990D01*
X87614286Y-56270990D02*
X87690476Y-56347180D01*
X87690476Y-56347180D02*
X87728571Y-56423371D01*
X87728571Y-56423371D02*
X87766667Y-56575752D01*
X87766667Y-56575752D02*
X87766667Y-56690038D01*
X87766667Y-56690038D02*
X87728571Y-56842419D01*
X87728571Y-56842419D02*
X87690476Y-56918609D01*
X87690476Y-56918609D02*
X87614286Y-56994800D01*
X87614286Y-56994800D02*
X87500000Y-57032895D01*
X87500000Y-57032895D02*
X87309524Y-57032895D01*
X78947619Y-56232895D02*
X78566667Y-56232895D01*
X78566667Y-56232895D02*
X78528571Y-56613847D01*
X78528571Y-56613847D02*
X78566667Y-56575752D01*
X78566667Y-56575752D02*
X78642857Y-56537657D01*
X78642857Y-56537657D02*
X78833333Y-56537657D01*
X78833333Y-56537657D02*
X78909524Y-56575752D01*
X78909524Y-56575752D02*
X78947619Y-56613847D01*
X78947619Y-56613847D02*
X78985714Y-56690038D01*
X78985714Y-56690038D02*
X78985714Y-56880514D01*
X78985714Y-56880514D02*
X78947619Y-56956704D01*
X78947619Y-56956704D02*
X78909524Y-56994800D01*
X78909524Y-56994800D02*
X78833333Y-57032895D01*
X78833333Y-57032895D02*
X78642857Y-57032895D01*
X78642857Y-57032895D02*
X78566667Y-56994800D01*
X78566667Y-56994800D02*
X78528571Y-56956704D01*
X79214286Y-56232895D02*
X79480953Y-57032895D01*
X79480953Y-57032895D02*
X79747619Y-56232895D01*
X80628571Y-56994800D02*
X80742857Y-57032895D01*
X80742857Y-57032895D02*
X80933333Y-57032895D01*
X80933333Y-57032895D02*
X81009524Y-56994800D01*
X81009524Y-56994800D02*
X81047619Y-56956704D01*
X81047619Y-56956704D02*
X81085714Y-56880514D01*
X81085714Y-56880514D02*
X81085714Y-56804323D01*
X81085714Y-56804323D02*
X81047619Y-56728133D01*
X81047619Y-56728133D02*
X81009524Y-56690038D01*
X81009524Y-56690038D02*
X80933333Y-56651942D01*
X80933333Y-56651942D02*
X80780952Y-56613847D01*
X80780952Y-56613847D02*
X80704762Y-56575752D01*
X80704762Y-56575752D02*
X80666667Y-56537657D01*
X80666667Y-56537657D02*
X80628571Y-56461466D01*
X80628571Y-56461466D02*
X80628571Y-56385276D01*
X80628571Y-56385276D02*
X80666667Y-56309085D01*
X80666667Y-56309085D02*
X80704762Y-56270990D01*
X80704762Y-56270990D02*
X80780952Y-56232895D01*
X80780952Y-56232895D02*
X80971429Y-56232895D01*
X80971429Y-56232895D02*
X81085714Y-56270990D01*
X81428572Y-57032895D02*
X81428572Y-56232895D01*
X81428572Y-56232895D02*
X81619048Y-56232895D01*
X81619048Y-56232895D02*
X81733334Y-56270990D01*
X81733334Y-56270990D02*
X81809524Y-56347180D01*
X81809524Y-56347180D02*
X81847619Y-56423371D01*
X81847619Y-56423371D02*
X81885715Y-56575752D01*
X81885715Y-56575752D02*
X81885715Y-56690038D01*
X81885715Y-56690038D02*
X81847619Y-56842419D01*
X81847619Y-56842419D02*
X81809524Y-56918609D01*
X81809524Y-56918609D02*
X81733334Y-56994800D01*
X81733334Y-56994800D02*
X81619048Y-57032895D01*
X81619048Y-57032895D02*
X81428572Y-57032895D01*
X82190476Y-56804323D02*
X82571429Y-56804323D01*
X82114286Y-57032895D02*
X82380953Y-56232895D01*
X82380953Y-56232895D02*
X82647619Y-57032895D01*
X70447618Y-56994800D02*
X70561904Y-57032895D01*
X70561904Y-57032895D02*
X70752380Y-57032895D01*
X70752380Y-57032895D02*
X70828571Y-56994800D01*
X70828571Y-56994800D02*
X70866666Y-56956704D01*
X70866666Y-56956704D02*
X70904761Y-56880514D01*
X70904761Y-56880514D02*
X70904761Y-56804323D01*
X70904761Y-56804323D02*
X70866666Y-56728133D01*
X70866666Y-56728133D02*
X70828571Y-56690038D01*
X70828571Y-56690038D02*
X70752380Y-56651942D01*
X70752380Y-56651942D02*
X70599999Y-56613847D01*
X70599999Y-56613847D02*
X70523809Y-56575752D01*
X70523809Y-56575752D02*
X70485714Y-56537657D01*
X70485714Y-56537657D02*
X70447618Y-56461466D01*
X70447618Y-56461466D02*
X70447618Y-56385276D01*
X70447618Y-56385276D02*
X70485714Y-56309085D01*
X70485714Y-56309085D02*
X70523809Y-56270990D01*
X70523809Y-56270990D02*
X70599999Y-56232895D01*
X70599999Y-56232895D02*
X70790476Y-56232895D01*
X70790476Y-56232895D02*
X70904761Y-56270990D01*
X71704762Y-56956704D02*
X71666666Y-56994800D01*
X71666666Y-56994800D02*
X71552381Y-57032895D01*
X71552381Y-57032895D02*
X71476190Y-57032895D01*
X71476190Y-57032895D02*
X71361904Y-56994800D01*
X71361904Y-56994800D02*
X71285714Y-56918609D01*
X71285714Y-56918609D02*
X71247619Y-56842419D01*
X71247619Y-56842419D02*
X71209523Y-56690038D01*
X71209523Y-56690038D02*
X71209523Y-56575752D01*
X71209523Y-56575752D02*
X71247619Y-56423371D01*
X71247619Y-56423371D02*
X71285714Y-56347180D01*
X71285714Y-56347180D02*
X71361904Y-56270990D01*
X71361904Y-56270990D02*
X71476190Y-56232895D01*
X71476190Y-56232895D02*
X71552381Y-56232895D01*
X71552381Y-56232895D02*
X71666666Y-56270990D01*
X71666666Y-56270990D02*
X71704762Y-56309085D01*
X72428571Y-57032895D02*
X72047619Y-57032895D01*
X72047619Y-57032895D02*
X72047619Y-56232895D01*
X67928571Y-56994800D02*
X68042857Y-57032895D01*
X68042857Y-57032895D02*
X68233333Y-57032895D01*
X68233333Y-57032895D02*
X68309524Y-56994800D01*
X68309524Y-56994800D02*
X68347619Y-56956704D01*
X68347619Y-56956704D02*
X68385714Y-56880514D01*
X68385714Y-56880514D02*
X68385714Y-56804323D01*
X68385714Y-56804323D02*
X68347619Y-56728133D01*
X68347619Y-56728133D02*
X68309524Y-56690038D01*
X68309524Y-56690038D02*
X68233333Y-56651942D01*
X68233333Y-56651942D02*
X68080952Y-56613847D01*
X68080952Y-56613847D02*
X68004762Y-56575752D01*
X68004762Y-56575752D02*
X67966667Y-56537657D01*
X67966667Y-56537657D02*
X67928571Y-56461466D01*
X67928571Y-56461466D02*
X67928571Y-56385276D01*
X67928571Y-56385276D02*
X67966667Y-56309085D01*
X67966667Y-56309085D02*
X68004762Y-56270990D01*
X68004762Y-56270990D02*
X68080952Y-56232895D01*
X68080952Y-56232895D02*
X68271429Y-56232895D01*
X68271429Y-56232895D02*
X68385714Y-56270990D01*
X68728572Y-57032895D02*
X68728572Y-56232895D01*
X68728572Y-56232895D02*
X68919048Y-56232895D01*
X68919048Y-56232895D02*
X69033334Y-56270990D01*
X69033334Y-56270990D02*
X69109524Y-56347180D01*
X69109524Y-56347180D02*
X69147619Y-56423371D01*
X69147619Y-56423371D02*
X69185715Y-56575752D01*
X69185715Y-56575752D02*
X69185715Y-56690038D01*
X69185715Y-56690038D02*
X69147619Y-56842419D01*
X69147619Y-56842419D02*
X69109524Y-56918609D01*
X69109524Y-56918609D02*
X69033334Y-56994800D01*
X69033334Y-56994800D02*
X68919048Y-57032895D01*
X68919048Y-57032895D02*
X68728572Y-57032895D01*
X69490476Y-56804323D02*
X69871429Y-56804323D01*
X69414286Y-57032895D02*
X69680953Y-56232895D01*
X69680953Y-56232895D02*
X69947619Y-57032895D01*
X66247619Y-56232895D02*
X65866667Y-56232895D01*
X65866667Y-56232895D02*
X65828571Y-56613847D01*
X65828571Y-56613847D02*
X65866667Y-56575752D01*
X65866667Y-56575752D02*
X65942857Y-56537657D01*
X65942857Y-56537657D02*
X66133333Y-56537657D01*
X66133333Y-56537657D02*
X66209524Y-56575752D01*
X66209524Y-56575752D02*
X66247619Y-56613847D01*
X66247619Y-56613847D02*
X66285714Y-56690038D01*
X66285714Y-56690038D02*
X66285714Y-56880514D01*
X66285714Y-56880514D02*
X66247619Y-56956704D01*
X66247619Y-56956704D02*
X66209524Y-56994800D01*
X66209524Y-56994800D02*
X66133333Y-57032895D01*
X66133333Y-57032895D02*
X65942857Y-57032895D01*
X65942857Y-57032895D02*
X65866667Y-56994800D01*
X65866667Y-56994800D02*
X65828571Y-56956704D01*
X66514286Y-56232895D02*
X66780953Y-57032895D01*
X66780953Y-57032895D02*
X67047619Y-56232895D01*
X73390476Y-56270990D02*
X73314286Y-56232895D01*
X73314286Y-56232895D02*
X73200000Y-56232895D01*
X73200000Y-56232895D02*
X73085714Y-56270990D01*
X73085714Y-56270990D02*
X73009524Y-56347180D01*
X73009524Y-56347180D02*
X72971429Y-56423371D01*
X72971429Y-56423371D02*
X72933333Y-56575752D01*
X72933333Y-56575752D02*
X72933333Y-56690038D01*
X72933333Y-56690038D02*
X72971429Y-56842419D01*
X72971429Y-56842419D02*
X73009524Y-56918609D01*
X73009524Y-56918609D02*
X73085714Y-56994800D01*
X73085714Y-56994800D02*
X73200000Y-57032895D01*
X73200000Y-57032895D02*
X73276191Y-57032895D01*
X73276191Y-57032895D02*
X73390476Y-56994800D01*
X73390476Y-56994800D02*
X73428572Y-56956704D01*
X73428572Y-56956704D02*
X73428572Y-56690038D01*
X73428572Y-56690038D02*
X73276191Y-56690038D01*
X73771429Y-57032895D02*
X73771429Y-56232895D01*
X73771429Y-56232895D02*
X74228572Y-57032895D01*
X74228572Y-57032895D02*
X74228572Y-56232895D01*
X74609524Y-57032895D02*
X74609524Y-56232895D01*
X74609524Y-56232895D02*
X74800000Y-56232895D01*
X74800000Y-56232895D02*
X74914286Y-56270990D01*
X74914286Y-56270990D02*
X74990476Y-56347180D01*
X74990476Y-56347180D02*
X75028571Y-56423371D01*
X75028571Y-56423371D02*
X75066667Y-56575752D01*
X75066667Y-56575752D02*
X75066667Y-56690038D01*
X75066667Y-56690038D02*
X75028571Y-56842419D01*
X75028571Y-56842419D02*
X74990476Y-56918609D01*
X74990476Y-56918609D02*
X74914286Y-56994800D01*
X74914286Y-56994800D02*
X74800000Y-57032895D01*
X74800000Y-57032895D02*
X74609524Y-57032895D01*
X60790476Y-56270990D02*
X60714286Y-56232895D01*
X60714286Y-56232895D02*
X60600000Y-56232895D01*
X60600000Y-56232895D02*
X60485714Y-56270990D01*
X60485714Y-56270990D02*
X60409524Y-56347180D01*
X60409524Y-56347180D02*
X60371429Y-56423371D01*
X60371429Y-56423371D02*
X60333333Y-56575752D01*
X60333333Y-56575752D02*
X60333333Y-56690038D01*
X60333333Y-56690038D02*
X60371429Y-56842419D01*
X60371429Y-56842419D02*
X60409524Y-56918609D01*
X60409524Y-56918609D02*
X60485714Y-56994800D01*
X60485714Y-56994800D02*
X60600000Y-57032895D01*
X60600000Y-57032895D02*
X60676191Y-57032895D01*
X60676191Y-57032895D02*
X60790476Y-56994800D01*
X60790476Y-56994800D02*
X60828572Y-56956704D01*
X60828572Y-56956704D02*
X60828572Y-56690038D01*
X60828572Y-56690038D02*
X60676191Y-56690038D01*
X61171429Y-57032895D02*
X61171429Y-56232895D01*
X61171429Y-56232895D02*
X61628572Y-57032895D01*
X61628572Y-57032895D02*
X61628572Y-56232895D01*
X62009524Y-57032895D02*
X62009524Y-56232895D01*
X62009524Y-56232895D02*
X62200000Y-56232895D01*
X62200000Y-56232895D02*
X62314286Y-56270990D01*
X62314286Y-56270990D02*
X62390476Y-56347180D01*
X62390476Y-56347180D02*
X62428571Y-56423371D01*
X62428571Y-56423371D02*
X62466667Y-56575752D01*
X62466667Y-56575752D02*
X62466667Y-56690038D01*
X62466667Y-56690038D02*
X62428571Y-56842419D01*
X62428571Y-56842419D02*
X62390476Y-56918609D01*
X62390476Y-56918609D02*
X62314286Y-56994800D01*
X62314286Y-56994800D02*
X62200000Y-57032895D01*
X62200000Y-57032895D02*
X62009524Y-57032895D01*
X57847618Y-56994800D02*
X57961904Y-57032895D01*
X57961904Y-57032895D02*
X58152380Y-57032895D01*
X58152380Y-57032895D02*
X58228571Y-56994800D01*
X58228571Y-56994800D02*
X58266666Y-56956704D01*
X58266666Y-56956704D02*
X58304761Y-56880514D01*
X58304761Y-56880514D02*
X58304761Y-56804323D01*
X58304761Y-56804323D02*
X58266666Y-56728133D01*
X58266666Y-56728133D02*
X58228571Y-56690038D01*
X58228571Y-56690038D02*
X58152380Y-56651942D01*
X58152380Y-56651942D02*
X57999999Y-56613847D01*
X57999999Y-56613847D02*
X57923809Y-56575752D01*
X57923809Y-56575752D02*
X57885714Y-56537657D01*
X57885714Y-56537657D02*
X57847618Y-56461466D01*
X57847618Y-56461466D02*
X57847618Y-56385276D01*
X57847618Y-56385276D02*
X57885714Y-56309085D01*
X57885714Y-56309085D02*
X57923809Y-56270990D01*
X57923809Y-56270990D02*
X57999999Y-56232895D01*
X57999999Y-56232895D02*
X58190476Y-56232895D01*
X58190476Y-56232895D02*
X58304761Y-56270990D01*
X59104762Y-56956704D02*
X59066666Y-56994800D01*
X59066666Y-56994800D02*
X58952381Y-57032895D01*
X58952381Y-57032895D02*
X58876190Y-57032895D01*
X58876190Y-57032895D02*
X58761904Y-56994800D01*
X58761904Y-56994800D02*
X58685714Y-56918609D01*
X58685714Y-56918609D02*
X58647619Y-56842419D01*
X58647619Y-56842419D02*
X58609523Y-56690038D01*
X58609523Y-56690038D02*
X58609523Y-56575752D01*
X58609523Y-56575752D02*
X58647619Y-56423371D01*
X58647619Y-56423371D02*
X58685714Y-56347180D01*
X58685714Y-56347180D02*
X58761904Y-56270990D01*
X58761904Y-56270990D02*
X58876190Y-56232895D01*
X58876190Y-56232895D02*
X58952381Y-56232895D01*
X58952381Y-56232895D02*
X59066666Y-56270990D01*
X59066666Y-56270990D02*
X59104762Y-56309085D01*
X59828571Y-57032895D02*
X59447619Y-57032895D01*
X59447619Y-57032895D02*
X59447619Y-56232895D01*
X55328571Y-56994800D02*
X55442857Y-57032895D01*
X55442857Y-57032895D02*
X55633333Y-57032895D01*
X55633333Y-57032895D02*
X55709524Y-56994800D01*
X55709524Y-56994800D02*
X55747619Y-56956704D01*
X55747619Y-56956704D02*
X55785714Y-56880514D01*
X55785714Y-56880514D02*
X55785714Y-56804323D01*
X55785714Y-56804323D02*
X55747619Y-56728133D01*
X55747619Y-56728133D02*
X55709524Y-56690038D01*
X55709524Y-56690038D02*
X55633333Y-56651942D01*
X55633333Y-56651942D02*
X55480952Y-56613847D01*
X55480952Y-56613847D02*
X55404762Y-56575752D01*
X55404762Y-56575752D02*
X55366667Y-56537657D01*
X55366667Y-56537657D02*
X55328571Y-56461466D01*
X55328571Y-56461466D02*
X55328571Y-56385276D01*
X55328571Y-56385276D02*
X55366667Y-56309085D01*
X55366667Y-56309085D02*
X55404762Y-56270990D01*
X55404762Y-56270990D02*
X55480952Y-56232895D01*
X55480952Y-56232895D02*
X55671429Y-56232895D01*
X55671429Y-56232895D02*
X55785714Y-56270990D01*
X56128572Y-57032895D02*
X56128572Y-56232895D01*
X56128572Y-56232895D02*
X56319048Y-56232895D01*
X56319048Y-56232895D02*
X56433334Y-56270990D01*
X56433334Y-56270990D02*
X56509524Y-56347180D01*
X56509524Y-56347180D02*
X56547619Y-56423371D01*
X56547619Y-56423371D02*
X56585715Y-56575752D01*
X56585715Y-56575752D02*
X56585715Y-56690038D01*
X56585715Y-56690038D02*
X56547619Y-56842419D01*
X56547619Y-56842419D02*
X56509524Y-56918609D01*
X56509524Y-56918609D02*
X56433334Y-56994800D01*
X56433334Y-56994800D02*
X56319048Y-57032895D01*
X56319048Y-57032895D02*
X56128572Y-57032895D01*
X56890476Y-56804323D02*
X57271429Y-56804323D01*
X56814286Y-57032895D02*
X57080953Y-56232895D01*
X57080953Y-56232895D02*
X57347619Y-57032895D01*
X53647619Y-56232895D02*
X53266667Y-56232895D01*
X53266667Y-56232895D02*
X53228571Y-56613847D01*
X53228571Y-56613847D02*
X53266667Y-56575752D01*
X53266667Y-56575752D02*
X53342857Y-56537657D01*
X53342857Y-56537657D02*
X53533333Y-56537657D01*
X53533333Y-56537657D02*
X53609524Y-56575752D01*
X53609524Y-56575752D02*
X53647619Y-56613847D01*
X53647619Y-56613847D02*
X53685714Y-56690038D01*
X53685714Y-56690038D02*
X53685714Y-56880514D01*
X53685714Y-56880514D02*
X53647619Y-56956704D01*
X53647619Y-56956704D02*
X53609524Y-56994800D01*
X53609524Y-56994800D02*
X53533333Y-57032895D01*
X53533333Y-57032895D02*
X53342857Y-57032895D01*
X53342857Y-57032895D02*
X53266667Y-56994800D01*
X53266667Y-56994800D02*
X53228571Y-56956704D01*
X53914286Y-56232895D02*
X54180953Y-57032895D01*
X54180953Y-57032895D02*
X54447619Y-56232895D01*
X104286152Y-64509524D02*
X104286152Y-64776190D01*
X103867104Y-64890476D02*
X103867104Y-64509524D01*
X103867104Y-64509524D02*
X104667104Y-64509524D01*
X104667104Y-64509524D02*
X104667104Y-64890476D01*
X103867104Y-65233334D02*
X104667104Y-65233334D01*
X104667104Y-65233334D02*
X103867104Y-65690477D01*
X103867104Y-65690477D02*
X104667104Y-65690477D01*
X104286152Y-66338095D02*
X104248057Y-66452381D01*
X104248057Y-66452381D02*
X104209961Y-66490476D01*
X104209961Y-66490476D02*
X104133771Y-66528572D01*
X104133771Y-66528572D02*
X104019485Y-66528572D01*
X104019485Y-66528572D02*
X103943295Y-66490476D01*
X103943295Y-66490476D02*
X103905200Y-66452381D01*
X103905200Y-66452381D02*
X103867104Y-66376191D01*
X103867104Y-66376191D02*
X103867104Y-66071429D01*
X103867104Y-66071429D02*
X104667104Y-66071429D01*
X104667104Y-66071429D02*
X104667104Y-66338095D01*
X104667104Y-66338095D02*
X104629009Y-66414286D01*
X104629009Y-66414286D02*
X104590914Y-66452381D01*
X104590914Y-66452381D02*
X104514723Y-66490476D01*
X104514723Y-66490476D02*
X104438533Y-66490476D01*
X104438533Y-66490476D02*
X104362342Y-66452381D01*
X104362342Y-66452381D02*
X104324247Y-66414286D01*
X104324247Y-66414286D02*
X104286152Y-66338095D01*
X104286152Y-66338095D02*
X104286152Y-66071429D01*
D13*
%TO.C,C5*%
X59950000Y-67853748D02*
X59950000Y-68376252D01*
X61420000Y-67853748D02*
X61420000Y-68376252D01*
%TO.C,J12*%
X97315000Y-61735000D02*
X97315000Y-66875000D01*
X97315000Y-59135000D02*
X97315000Y-60465000D01*
X95985000Y-59135000D02*
X97315000Y-59135000D01*
X94655000Y-66875000D02*
X97315000Y-66875000D01*
X94655000Y-61735000D02*
X97315000Y-61735000D01*
X94655000Y-61735000D02*
X94655000Y-66875000D01*
%TO.C,J13*%
X97315000Y-61735000D02*
X97315000Y-66875000D01*
X97315000Y-61735000D02*
X99975000Y-61735000D01*
X97315000Y-66875000D02*
X99975000Y-66875000D01*
X98645000Y-59135000D02*
X99975000Y-59135000D01*
X99975000Y-59135000D02*
X99975000Y-60465000D01*
X99975000Y-61735000D02*
X99975000Y-66875000D01*
%TO.C,J11*%
X91995000Y-61735000D02*
X91995000Y-66875000D01*
X91995000Y-61735000D02*
X94655000Y-61735000D01*
X91995000Y-66875000D02*
X94655000Y-66875000D01*
X93325000Y-59135000D02*
X94655000Y-59135000D01*
X94655000Y-59135000D02*
X94655000Y-60465000D01*
X94655000Y-61735000D02*
X94655000Y-66875000D01*
D12*
%TO.C,J7*%
X39495000Y-58000000D02*
X46495000Y-58000000D01*
X39495000Y-70500000D02*
X39495000Y-58000000D01*
X45895000Y-59400000D02*
X45895000Y-69100000D01*
X46495000Y-58000000D02*
X46495000Y-59400000D01*
X46495000Y-59400000D02*
X45895000Y-59400000D01*
X46495000Y-69100000D02*
X45895000Y-69100000D01*
X46495000Y-70500000D02*
X39495000Y-70500000D01*
X46495000Y-70500000D02*
X46495000Y-69100000D01*
X47195000Y-69300000D02*
X46795000Y-69300000D01*
X46995000Y-69100000D01*
X47195000Y-69300000D01*
G36*
X47195000Y-69300000D02*
G01*
X46795000Y-69300000D01*
X46995000Y-69100000D01*
X47195000Y-69300000D01*
G37*
%TO.C,J3*%
X89150000Y-47500000D02*
X101650000Y-47500000D01*
X89150000Y-54500000D02*
X89150000Y-47500000D01*
X89150000Y-54500000D02*
X90550000Y-54500000D01*
X90550000Y-54500000D02*
X90550000Y-53900000D01*
X100250000Y-53900000D02*
X90550000Y-53900000D01*
X100250000Y-54500000D02*
X100250000Y-53900000D01*
X101650000Y-47500000D02*
X101650000Y-54500000D01*
X101650000Y-54500000D02*
X100250000Y-54500000D01*
X90550000Y-55000000D02*
X90350000Y-55200000D01*
X90350000Y-54800000D01*
X90550000Y-55000000D01*
G36*
X90550000Y-55000000D02*
G01*
X90350000Y-55200000D01*
X90350000Y-54800000D01*
X90550000Y-55000000D01*
G37*
D13*
%TO.C,C3*%
X81600000Y-94233748D02*
X81600000Y-94756252D01*
X83070000Y-94233748D02*
X83070000Y-94756252D01*
D12*
%TO.C,J6*%
X106500000Y-57990000D02*
X106500000Y-59390000D01*
X106500000Y-57990000D02*
X113500000Y-57990000D01*
X106500000Y-59390000D02*
X107100000Y-59390000D01*
X106500000Y-69090000D02*
X107100000Y-69090000D01*
X106500000Y-70490000D02*
X106500000Y-69090000D01*
X107100000Y-69090000D02*
X107100000Y-59390000D01*
X113500000Y-57990000D02*
X113500000Y-70490000D01*
X113500000Y-70490000D02*
X106500000Y-70490000D01*
X106000000Y-59390000D02*
X105800000Y-59190000D01*
X106200000Y-59190000D01*
X106000000Y-59390000D01*
G36*
X106000000Y-59390000D02*
G01*
X105800000Y-59190000D01*
X106200000Y-59190000D01*
X106000000Y-59390000D01*
G37*
D13*
%TO.C,C4*%
X81690000Y-98033748D02*
X81690000Y-98556252D01*
X83160000Y-98033748D02*
X83160000Y-98556252D01*
%TO.C,RZ1*%
X39496839Y-72430000D02*
X39496839Y-90430000D01*
X39496839Y-90430000D02*
X62996839Y-90430000D01*
X62996839Y-72430000D02*
X39496839Y-72430000D01*
X62996839Y-90430000D02*
X62996839Y-72430000D01*
D12*
%TO.C,J2*%
X76550000Y-47497500D02*
X89050000Y-47497500D01*
X76550000Y-54497500D02*
X76550000Y-47497500D01*
X76550000Y-54497500D02*
X77950000Y-54497500D01*
X77950000Y-54497500D02*
X77950000Y-53897500D01*
X87650000Y-53897500D02*
X77950000Y-53897500D01*
X87650000Y-54497500D02*
X87650000Y-53897500D01*
X89050000Y-47497500D02*
X89050000Y-54497500D01*
X89050000Y-54497500D02*
X87650000Y-54497500D01*
X77950000Y-54997500D02*
X77750000Y-55197500D01*
X77750000Y-54797500D01*
X77950000Y-54997500D01*
G36*
X77950000Y-54997500D02*
G01*
X77750000Y-55197500D01*
X77750000Y-54797500D01*
X77950000Y-54997500D01*
G37*
%TO.C,U3*%
X89990000Y-90449200D02*
X111190000Y-90449200D01*
X111190000Y-72549200D01*
X89990000Y-72549200D01*
X89990000Y-90449200D01*
D13*
%TO.C,C2*%
X79610000Y-98033748D02*
X79610000Y-98556252D01*
X81080000Y-98033748D02*
X81080000Y-98556252D01*
D12*
%TO.C,J1*%
X87050000Y-101100000D02*
X88650000Y-101100000D01*
X87050000Y-101500000D02*
X87050000Y-101100000D01*
X88650000Y-101100000D02*
X88650000Y-101500000D01*
X92050000Y-101100000D02*
X93650000Y-101100000D01*
X92050000Y-101500000D02*
X92050000Y-101100000D01*
X93650000Y-101100000D02*
X93650000Y-101500000D01*
X97050000Y-101100000D02*
X98650000Y-101100000D01*
X97050000Y-101500000D02*
X97050000Y-101100000D01*
X98650000Y-101100000D02*
X98650000Y-101500000D01*
X102050000Y-101100000D02*
X103650000Y-101100000D01*
X102050000Y-101500000D02*
X102050000Y-101100000D01*
X103650000Y-101100000D02*
X103650000Y-101500000D01*
X85350000Y-91500000D02*
X105350000Y-91500000D01*
X105350000Y-101500000D01*
X85350000Y-101500000D01*
X85350000Y-91500000D01*
%TO.C,U4*%
X87100000Y-61850000D02*
X65900000Y-61850000D01*
X65900000Y-87150000D01*
X87100000Y-87150000D01*
X87100000Y-61850000D01*
D13*
%TO.C,JP1*%
X62380000Y-97995000D02*
X65180000Y-97995000D01*
X62380000Y-99995000D02*
X62380000Y-97995000D01*
X65180000Y-97995000D02*
X65180000Y-99995000D01*
X65180000Y-99995000D02*
X62380000Y-99995000D01*
%TO.C,U1*%
X72815000Y-93080000D02*
X72815000Y-94340000D01*
X72815000Y-99900000D02*
X72815000Y-98640000D01*
X76575000Y-93080000D02*
X72815000Y-93080000D01*
X76575000Y-99900000D02*
X72815000Y-99900000D01*
X78095000Y-100130000D02*
X77615000Y-100130000D01*
X77855000Y-99800000D01*
X78095000Y-100130000D01*
G36*
X78095000Y-100130000D02*
G01*
X77615000Y-100130000D01*
X77855000Y-99800000D01*
X78095000Y-100130000D01*
G37*
D12*
%TO.C,J5*%
X63950000Y-47500000D02*
X76450000Y-47500000D01*
X63950000Y-54500000D02*
X63950000Y-47500000D01*
X63950000Y-54500000D02*
X65350000Y-54500000D01*
X65350000Y-54500000D02*
X65350000Y-53900000D01*
X75050000Y-53900000D02*
X65350000Y-53900000D01*
X75050000Y-54500000D02*
X75050000Y-53900000D01*
X76450000Y-47500000D02*
X76450000Y-54500000D01*
X76450000Y-54500000D02*
X75050000Y-54500000D01*
X65350000Y-55000000D02*
X65150000Y-55200000D01*
X65150000Y-54800000D01*
X65350000Y-55000000D01*
G36*
X65350000Y-55000000D02*
G01*
X65150000Y-55200000D01*
X65150000Y-54800000D01*
X65350000Y-55000000D01*
G37*
%TO.C,J8*%
X47515000Y-94420000D02*
X47515000Y-101420000D01*
X47515000Y-94420000D02*
X48915000Y-94420000D01*
X48915000Y-94420000D02*
X48915000Y-95020000D01*
X56115000Y-94420000D02*
X56115000Y-95020000D01*
X56115000Y-95020000D02*
X48915000Y-95020000D01*
X57515000Y-94420000D02*
X56115000Y-94420000D01*
X57515000Y-94420000D02*
X57515000Y-101420000D01*
X57515000Y-101420000D02*
X47515000Y-101420000D01*
X56475000Y-94120000D02*
X56275000Y-93920000D01*
X56475000Y-93720000D01*
X56475000Y-94120000D01*
G36*
X56475000Y-94120000D02*
G01*
X56275000Y-93920000D01*
X56475000Y-93720000D01*
X56475000Y-94120000D01*
G37*
D13*
%TO.C,J10*%
X53787500Y-66860000D02*
X53787500Y-59180000D01*
X53787500Y-69460000D02*
X53787500Y-68130000D01*
X55117500Y-69460000D02*
X53787500Y-69460000D01*
X56387500Y-66860000D02*
X53787500Y-66860000D01*
X56387500Y-69460000D02*
X56387500Y-66860000D01*
X58987500Y-59180000D02*
X53787500Y-59180000D01*
X58987500Y-69460000D02*
X56387500Y-69460000D01*
X58987500Y-69460000D02*
X58987500Y-59180000D01*
%TO.C,C1*%
X79620000Y-94233748D02*
X79620000Y-94756252D01*
X81090000Y-94233748D02*
X81090000Y-94756252D01*
%TO.C,J9*%
X47585000Y-52685000D02*
X47585000Y-47495000D01*
X50345000Y-47495000D02*
X47585000Y-47495000D01*
X50345000Y-52685000D02*
X47585000Y-52685000D01*
X50345000Y-52685000D02*
X50345000Y-47495000D01*
X50345000Y-53955000D02*
X50345000Y-55335000D01*
X50345000Y-55335000D02*
X48965000Y-55335000D01*
%TO.C,SW1*%
X60365000Y-94430000D02*
X60365000Y-93280000D01*
X60365000Y-97500000D02*
X60365000Y-96350000D01*
X64378333Y-96025000D02*
X64378333Y-94755000D01*
X67185000Y-93280000D02*
X60365000Y-93280000D01*
X67185000Y-94350000D02*
X67185000Y-93280000D01*
X67185000Y-97500000D02*
X60365000Y-97500000D01*
X67185000Y-97500000D02*
X67185000Y-96430000D01*
X67425000Y-97740000D02*
X66042000Y-97740000D01*
X67425000Y-97740000D02*
X67425000Y-96430000D01*
X65585000Y-96025000D02*
X61965000Y-96025000D01*
X61965000Y-94755000D01*
X65585000Y-94755000D01*
X65585000Y-96025000D01*
X65585000Y-96025000D02*
X64378333Y-96025000D01*
X64378333Y-94755000D01*
X65585000Y-94755000D01*
X65585000Y-96025000D01*
G36*
X65585000Y-96025000D02*
G01*
X64378333Y-96025000D01*
X64378333Y-94755000D01*
X65585000Y-94755000D01*
X65585000Y-96025000D01*
G37*
D12*
%TO.C,J4*%
X51350000Y-47495000D02*
X63850000Y-47495000D01*
X51350000Y-54495000D02*
X51350000Y-47495000D01*
X51350000Y-54495000D02*
X52750000Y-54495000D01*
X52750000Y-54495000D02*
X52750000Y-53895000D01*
X62450000Y-53895000D02*
X52750000Y-53895000D01*
X62450000Y-54495000D02*
X62450000Y-53895000D01*
X63850000Y-47495000D02*
X63850000Y-54495000D01*
X63850000Y-54495000D02*
X62450000Y-54495000D01*
X52750000Y-54995000D02*
X52550000Y-55195000D01*
X52550000Y-54795000D01*
X52750000Y-54995000D01*
G36*
X52750000Y-54995000D02*
G01*
X52550000Y-55195000D01*
X52550000Y-54795000D01*
X52750000Y-54995000D01*
G37*
%TD*%
M02*
