%TF.GenerationSoftware,KiCad,Pcbnew,9.0.2*%
%TF.CreationDate,2025-07-16T11:23:16+05:30*%
%TF.ProjectId,peripherals-board-v2,70657269-7068-4657-9261-6c732d626f61,2*%
%TF.SameCoordinates,Original*%
%TF.FileFunction,Copper,L1,Top*%
%TF.FilePolarity,Positive*%
%FSLAX46Y46*%
G04 Gerber Fmt 4.6, Leading zero omitted, Abs format (unit mm)*
G04 Created by KiCad (PCBNEW 9.0.2) date 2025-07-16 11:23:16*
%MOMM*%
%LPD*%
G01*
G04 APERTURE LIST*
G04 Aperture macros list*
%AMRoundRect*
0 Rectangle with rounded corners*
0 $1 Rounding radius*
0 $2 $3 $4 $5 $6 $7 $8 $9 X,Y pos of 4 corners*
0 Add a 4 corners polygon primitive as box body*
4,1,4,$2,$3,$4,$5,$6,$7,$8,$9,$2,$3,0*
0 Add four circle primitives for the rounded corners*
1,1,$1+$1,$2,$3*
1,1,$1+$1,$4,$5*
1,1,$1+$1,$6,$7*
1,1,$1+$1,$8,$9*
0 Add four rect primitives between the rounded corners*
20,1,$1+$1,$2,$3,$4,$5,0*
20,1,$1+$1,$4,$5,$6,$7,0*
20,1,$1+$1,$6,$7,$8,$9,0*
20,1,$1+$1,$8,$9,$2,$3,0*%
%AMFreePoly0*
4,1,6,1.000000,0.000000,0.500000,-0.750000,-0.500000,-0.750000,-0.500000,0.750000,0.500000,0.750000,1.000000,0.000000,1.000000,0.000000,$1*%
%AMFreePoly1*
4,1,6,0.500000,-0.750000,-0.650000,-0.750000,-0.150000,0.000000,-0.650000,0.750000,0.500000,0.750000,0.500000,-0.750000,0.500000,-0.750000,$1*%
G04 Aperture macros list end*
%TA.AperFunction,ComponentPad*%
%ADD10RoundRect,0.250000X0.725000X-0.600000X0.725000X0.600000X-0.725000X0.600000X-0.725000X-0.600000X0*%
%TD*%
%TA.AperFunction,ComponentPad*%
%ADD11O,1.950000X1.700000*%
%TD*%
%TA.AperFunction,ComponentPad*%
%ADD12C,3.600000*%
%TD*%
%TA.AperFunction,ConnectorPad*%
%ADD13C,5.600000*%
%TD*%
%TA.AperFunction,ComponentPad*%
%ADD14RoundRect,0.250000X-0.600000X-0.725000X0.600000X-0.725000X0.600000X0.725000X-0.600000X0.725000X0*%
%TD*%
%TA.AperFunction,ComponentPad*%
%ADD15O,1.700000X1.950000*%
%TD*%
%TA.AperFunction,SMDPad,CuDef*%
%ADD16RoundRect,0.250000X-0.475000X0.337500X-0.475000X-0.337500X0.475000X-0.337500X0.475000X0.337500X0*%
%TD*%
%TA.AperFunction,ComponentPad*%
%ADD17RoundRect,0.250000X-0.725000X0.600000X-0.725000X-0.600000X0.725000X-0.600000X0.725000X0.600000X0*%
%TD*%
%TA.AperFunction,ComponentPad*%
%ADD18RoundRect,0.400000X0.400000X-0.900000X0.400000X0.900000X-0.400000X0.900000X-0.400000X-0.900000X0*%
%TD*%
%TA.AperFunction,ComponentPad*%
%ADD19RoundRect,0.400050X0.400050X-0.899950X0.400050X0.899950X-0.400050X0.899950X-0.400050X-0.899950X0*%
%TD*%
%TA.AperFunction,ComponentPad*%
%ADD20RoundRect,0.400000X0.900000X-0.400000X0.900000X0.400000X-0.900000X0.400000X-0.900000X-0.400000X0*%
%TD*%
%TA.AperFunction,ComponentPad*%
%ADD21RoundRect,0.393700X0.906300X-0.393700X0.906300X0.393700X-0.906300X0.393700X-0.906300X-0.393700X0*%
%TD*%
%TA.AperFunction,ComponentPad*%
%ADD22R,1.700000X1.700000*%
%TD*%
%TA.AperFunction,ComponentPad*%
%ADD23C,1.700000*%
%TD*%
%TA.AperFunction,ComponentPad*%
%ADD24RoundRect,0.250001X-1.149999X-1.149999X1.149999X-1.149999X1.149999X1.149999X-1.149999X1.149999X0*%
%TD*%
%TA.AperFunction,ComponentPad*%
%ADD25C,2.800000*%
%TD*%
%TA.AperFunction,SMDPad,CuDef*%
%ADD26FreePoly0,180.000000*%
%TD*%
%TA.AperFunction,SMDPad,CuDef*%
%ADD27FreePoly1,180.000000*%
%TD*%
%TA.AperFunction,SMDPad,CuDef*%
%ADD28RoundRect,0.375000X0.625000X0.375000X-0.625000X0.375000X-0.625000X-0.375000X0.625000X-0.375000X0*%
%TD*%
%TA.AperFunction,SMDPad,CuDef*%
%ADD29RoundRect,0.500000X0.500000X1.400000X-0.500000X1.400000X-0.500000X-1.400000X0.500000X-1.400000X0*%
%TD*%
%TA.AperFunction,ComponentPad*%
%ADD30RoundRect,0.250000X0.600000X0.725000X-0.600000X0.725000X-0.600000X-0.725000X0.600000X-0.725000X0*%
%TD*%
%TA.AperFunction,ComponentPad*%
%ADD31RoundRect,0.250000X0.550000X0.550000X-0.550000X0.550000X-0.550000X-0.550000X0.550000X-0.550000X0*%
%TD*%
%TA.AperFunction,ComponentPad*%
%ADD32C,1.600000*%
%TD*%
%TA.AperFunction,ViaPad*%
%ADD33C,0.600000*%
%TD*%
%TA.AperFunction,Conductor*%
%ADD34C,0.200000*%
%TD*%
%TA.AperFunction,Conductor*%
%ADD35C,1.000000*%
%TD*%
G04 APERTURE END LIST*
D10*
%TO.P,J7,1,Pin_1*%
%TO.N,+5V*%
X46995000Y-68000000D03*
D11*
%TO.P,J7,2,Pin_2*%
%TO.N,/UART0_RX*%
X46995000Y-65500000D03*
%TO.P,J7,3,Pin_3*%
%TO.N,/UART0_TX*%
X46995000Y-63000000D03*
%TO.P,J7,4,Pin_4*%
%TO.N,GND*%
X46995000Y-60500000D03*
%TD*%
D12*
%TO.P,REF\u002A\u002A,1*%
%TO.N,N/C*%
X43000000Y-51000000D03*
D13*
X43000000Y-51000000D03*
%TD*%
D14*
%TO.P,J3,1,Pin_1*%
%TO.N,+5V*%
X91650000Y-55000000D03*
D15*
%TO.P,J3,2,Pin_2*%
%TO.N,/I2C0_SDA*%
X94150000Y-55000000D03*
%TO.P,J3,3,Pin_3*%
%TO.N,/I2C0_SCL*%
X96650000Y-55000000D03*
%TO.P,J3,4,Pin_4*%
%TO.N,GND*%
X99150000Y-55000000D03*
%TD*%
D16*
%TO.P,C3,1*%
%TO.N,VBAT*%
X82335000Y-93457500D03*
%TO.P,C3,2*%
%TO.N,GND*%
X82335000Y-95532500D03*
%TD*%
D12*
%TO.P,REF\u002A\u002A,1*%
%TO.N,N/C*%
X110000000Y-98000000D03*
D13*
X110000000Y-98000000D03*
%TD*%
D17*
%TO.P,J6,1,Pin_1*%
%TO.N,+5V*%
X106000000Y-60490000D03*
D11*
%TO.P,J6,2,Pin_2*%
%TO.N,/ENCA*%
X106000000Y-62990000D03*
%TO.P,J6,3,Pin_3*%
%TO.N,/ENCB*%
X106000000Y-65490000D03*
%TO.P,J6,4,Pin_4*%
%TO.N,GND*%
X106000000Y-67990000D03*
%TD*%
D16*
%TO.P,C4,1*%
%TO.N,Net-(JP1-A)*%
X82425000Y-97257500D03*
%TO.P,C4,2*%
%TO.N,GND*%
X82425000Y-99332500D03*
%TD*%
D18*
%TO.P,RZ1,1,GP0*%
%TO.N,/UART0_TX*%
X41086839Y-73210000D03*
%TO.P,RZ1,2,GP1*%
%TO.N,/UART0_RX*%
X43626839Y-73210000D03*
%TO.P,RZ1,3,GP2*%
%TO.N,/SERVO*%
X46166839Y-73210000D03*
%TO.P,RZ1,4,GP3*%
%TO.N,/GP3*%
X48706839Y-73210000D03*
%TO.P,RZ1,5,GP4*%
%TO.N,/I2C0_SDA*%
X51246839Y-73210000D03*
D19*
%TO.P,RZ1,6,GP5*%
%TO.N,/I2C0_SCL*%
X53786839Y-73210000D03*
%TO.P,RZ1,7,GP6*%
%TO.N,/GP6*%
X56326839Y-73210000D03*
%TO.P,RZ1,8,GP7*%
%TO.N,/GP7*%
X58866839Y-73210000D03*
%TO.P,RZ1,9,GP8*%
%TO.N,/RF24_CE*%
X61406839Y-73210000D03*
D20*
%TO.P,RZ1,10,GP9*%
%TO.N,/RF24_CSN*%
X62216839Y-76350000D03*
D21*
%TO.P,RZ1,11,GP10*%
%TO.N,/SPI1_SCK*%
X62216839Y-78890000D03*
%TO.P,RZ1,12,GP11*%
%TO.N,/SPI1_MOSI*%
X62216839Y-81430000D03*
%TO.P,RZ1,13,GP12*%
%TO.N,/SPI1_MISO*%
X62216839Y-83970000D03*
%TO.P,RZ1,14,GP13*%
%TO.N,/ENCA*%
X62216839Y-86510000D03*
D19*
%TO.P,RZ1,15,GP14*%
%TO.N,/ENCB*%
X61406839Y-89650000D03*
%TO.P,RZ1,16,GP15*%
%TO.N,/STBY*%
X58866839Y-89650000D03*
%TO.P,RZ1,17,GP26*%
%TO.N,/BIN1*%
X56326839Y-89650000D03*
%TO.P,RZ1,18,GP27*%
%TO.N,/BIN2*%
X53786839Y-89650000D03*
%TO.P,RZ1,19,GP28*%
%TO.N,/PWMB*%
X51246839Y-89650000D03*
%TO.P,RZ1,20,GP29*%
%TO.N,/RPLIDAR_MOTOR*%
X48706839Y-89650000D03*
%TO.P,RZ1,21,3V3*%
%TO.N,+3.3V*%
X46166839Y-89650000D03*
%TO.P,RZ1,22,GND*%
%TO.N,GND*%
X43626839Y-89650000D03*
%TO.P,RZ1,23,5V*%
%TO.N,+5V*%
X41086839Y-89650000D03*
%TD*%
D14*
%TO.P,J2,1,Pin_1*%
%TO.N,+5V*%
X79050000Y-54997500D03*
D15*
%TO.P,J2,2,Pin_2*%
%TO.N,/I2C0_SDA*%
X81550000Y-54997500D03*
%TO.P,J2,3,Pin_3*%
%TO.N,/I2C0_SCL*%
X84050000Y-54997500D03*
%TO.P,J2,4,Pin_4*%
%TO.N,GND*%
X86550000Y-54997500D03*
%TD*%
D16*
%TO.P,C5,1*%
%TO.N,+3.3V*%
X60685000Y-67077500D03*
%TO.P,C5,2*%
%TO.N,GND*%
X60685000Y-69152500D03*
%TD*%
D22*
%TO.P,U3,1,VM*%
%TO.N,VBAT*%
X91708200Y-89110000D03*
D23*
%TO.P,U3,2,VCC*%
%TO.N,+3.3V*%
X94248200Y-89110000D03*
%TO.P,U3,3,GND*%
%TO.N,GND*%
X96788200Y-89110000D03*
%TO.P,U3,4,AO1*%
%TO.N,unconnected-(U3-AO1-Pad4)*%
X99328200Y-89110000D03*
%TO.P,U3,5,AO2*%
%TO.N,unconnected-(U3-AO2-Pad5)*%
X101868200Y-89110000D03*
%TO.P,U3,6,B02*%
%TO.N,/M+*%
X104408200Y-89110000D03*
%TO.P,U3,7,B01*%
%TO.N,/M-*%
X106948200Y-89110000D03*
%TO.P,U3,8,GND*%
%TO.N,unconnected-(U3-GND-Pad8)*%
X109488200Y-89110000D03*
%TO.P,U3,9,GND*%
%TO.N,unconnected-(U3-GND-Pad9)*%
X109488200Y-73870000D03*
%TO.P,U3,10,PWMB*%
%TO.N,/PWMB*%
X106948200Y-73870000D03*
%TO.P,U3,11,BIN2*%
%TO.N,/BIN2*%
X104408200Y-73870000D03*
%TO.P,U3,12,BIN1*%
%TO.N,/BIN1*%
X101868200Y-73870000D03*
%TO.P,U3,13,STBY*%
%TO.N,/STBY*%
X99328200Y-73870000D03*
%TO.P,U3,14,AIN1*%
%TO.N,unconnected-(U3-AIN1-Pad14)*%
X96788200Y-73870000D03*
%TO.P,U3,15,AIN2*%
%TO.N,unconnected-(U3-AIN2-Pad15)*%
X94248200Y-73870000D03*
D22*
%TO.P,U3,16,PWMA*%
%TO.N,unconnected-(U3-PWMA-Pad16)*%
X91708200Y-73870000D03*
%TD*%
D12*
%TO.P,REF\u002A\u002A,1*%
%TO.N,N/C*%
X110000000Y-51000000D03*
D13*
X110000000Y-51000000D03*
%TD*%
D16*
%TO.P,C2,1*%
%TO.N,Net-(JP1-A)*%
X80345000Y-97257500D03*
%TO.P,C2,2*%
%TO.N,GND*%
X80345000Y-99332500D03*
%TD*%
D24*
%TO.P,J1,1,Pin_1*%
%TO.N,VBAT*%
X87850000Y-96500000D03*
D25*
%TO.P,J1,2,Pin_2*%
%TO.N,GND*%
X92850000Y-96500000D03*
%TO.P,J1,3,Pin_3*%
%TO.N,/M+*%
X97850000Y-96500000D03*
%TO.P,J1,4,Pin_4*%
%TO.N,/M-*%
X102850000Y-96500000D03*
%TD*%
D22*
%TO.P,U4,1,VIN*%
%TO.N,+5V*%
X68400000Y-68150000D03*
D23*
%TO.P,U4,2,3V3*%
%TO.N,unconnected-(U4-3V3-Pad2)*%
X68400000Y-70690000D03*
%TO.P,U4,3,GND*%
%TO.N,GND*%
X68400000Y-73230000D03*
%TO.P,U4,4,SCL*%
%TO.N,/I2C0_SCL*%
X68400000Y-75770000D03*
%TO.P,U4,5,SDA*%
%TO.N,/I2C0_SDA*%
X68400000Y-78310000D03*
%TO.P,U4,6,RST*%
%TO.N,unconnected-(U4-RST-Pad6)*%
X68400000Y-80850000D03*
D22*
%TO.P,U4,7,INT*%
%TO.N,unconnected-(U4-INT-Pad7)*%
X84429320Y-70690000D03*
D23*
%TO.P,U4,8,ADR*%
%TO.N,unconnected-(U4-ADR-Pad8)*%
X84429320Y-73230000D03*
%TO.P,U4,9*%
%TO.N,N/C*%
X84429320Y-75770000D03*
%TO.P,U4,10,PS1*%
%TO.N,unconnected-(U4-PS1-Pad10)*%
X84429320Y-78310000D03*
%TD*%
D26*
%TO.P,JP1,1,A*%
%TO.N,Net-(JP1-A)*%
X64505000Y-98995000D03*
D27*
%TO.P,JP1,2,B*%
%TO.N,+5V*%
X63055000Y-98995000D03*
%TD*%
D28*
%TO.P,U1,1,GND*%
%TO.N,GND*%
X77875000Y-98790000D03*
%TO.P,U1,2,VO*%
%TO.N,Net-(JP1-A)*%
X77875000Y-96490000D03*
D29*
X71575000Y-96490000D03*
D28*
%TO.P,U1,3,VI*%
%TO.N,VBAT*%
X77875000Y-94190000D03*
%TD*%
D14*
%TO.P,J5,1,Pin_1*%
%TO.N,+5V*%
X66450000Y-55000000D03*
D15*
%TO.P,J5,2,Pin_2*%
%TO.N,/I2C0_SDA*%
X68950000Y-55000000D03*
%TO.P,J5,3,Pin_3*%
%TO.N,/I2C0_SCL*%
X71450000Y-55000000D03*
%TO.P,J5,4,Pin_4*%
%TO.N,GND*%
X73950000Y-55000000D03*
%TD*%
D12*
%TO.P,REF\u002A\u002A,1*%
%TO.N,N/C*%
X43000000Y-98000000D03*
D13*
X43000000Y-98000000D03*
%TD*%
D22*
%TO.P,J13,1,Pin_1*%
%TO.N,+5V*%
X98645000Y-60465000D03*
D23*
%TO.P,J13,2,Pin_2*%
X98645000Y-63005000D03*
%TO.P,J13,3,Pin_3*%
X98645000Y-65545000D03*
%TD*%
D22*
%TO.P,J11,1,Pin_1*%
%TO.N,/GP7*%
X93325000Y-60465000D03*
D23*
%TO.P,J11,2,Pin_2*%
%TO.N,/GP6*%
X93325000Y-63005000D03*
%TO.P,J11,3,Pin_3*%
%TO.N,/GP3*%
X93325000Y-65545000D03*
%TD*%
D30*
%TO.P,J8,1,Pin_1*%
%TO.N,+5V*%
X55015000Y-93920000D03*
D15*
%TO.P,J8,2,Pin_2*%
%TO.N,/RPLIDAR_MOTOR*%
X52515000Y-93920000D03*
%TO.P,J8,3,Pin_3*%
%TO.N,GND*%
X50015000Y-93920000D03*
%TD*%
D22*
%TO.P,J10,1,Pin_1*%
%TO.N,+3.3V*%
X55117500Y-68130000D03*
D23*
%TO.P,J10,2,Pin_2*%
%TO.N,GND*%
X57657500Y-68130000D03*
%TO.P,J10,3,Pin_3*%
%TO.N,/RF24_CSN*%
X55117500Y-65590000D03*
%TO.P,J10,4,Pin_4*%
%TO.N,/RF24_CE*%
X57657500Y-65590000D03*
%TO.P,J10,5,Pin_5*%
%TO.N,/SPI1_MOSI*%
X55117500Y-63050000D03*
%TO.P,J10,6,Pin_6*%
%TO.N,/SPI1_SCK*%
X57657500Y-63050000D03*
%TO.P,J10,7,Pin_7*%
%TO.N,unconnected-(J10-Pin_7-Pad7)*%
X55117500Y-60510000D03*
%TO.P,J10,8,Pin_8*%
%TO.N,/SPI1_MISO*%
X57657500Y-60510000D03*
%TD*%
D16*
%TO.P,C1,1*%
%TO.N,VBAT*%
X80355000Y-93457500D03*
%TO.P,C1,2*%
%TO.N,GND*%
X80355000Y-95532500D03*
%TD*%
D22*
%TO.P,J9,1,Pin_1*%
%TO.N,/SERVO*%
X48965000Y-53955000D03*
D23*
%TO.P,J9,2,Pin_2*%
%TO.N,VBAT*%
X48965000Y-51415000D03*
%TO.P,J9,3,Pin_3*%
%TO.N,GND*%
X48965000Y-48875000D03*
%TD*%
D31*
%TO.P,SW1,1*%
%TO.N,Net-(JP1-A)*%
X67585000Y-95390000D03*
D32*
%TO.P,SW1,2*%
%TO.N,+5V*%
X59965000Y-95390000D03*
%TD*%
D22*
%TO.P,J12,1,Pin_1*%
%TO.N,GND*%
X95985000Y-60465000D03*
D23*
%TO.P,J12,2,Pin_2*%
X95985000Y-63005000D03*
%TO.P,J12,3,Pin_3*%
X95985000Y-65545000D03*
%TD*%
D14*
%TO.P,J4,1,Pin_1*%
%TO.N,+5V*%
X53850000Y-54995000D03*
D15*
%TO.P,J4,2,Pin_2*%
%TO.N,/I2C0_SDA*%
X56350000Y-54995000D03*
%TO.P,J4,3,Pin_3*%
%TO.N,/I2C0_SCL*%
X58850000Y-54995000D03*
%TO.P,J4,4,Pin_4*%
%TO.N,GND*%
X61350000Y-54995000D03*
%TD*%
D33*
%TO.N,/GP3*%
X69310000Y-85240000D03*
X48706839Y-82876839D03*
%TO.N,/GP6*%
X56330000Y-82880000D03*
X68110000Y-85240000D03*
%TD*%
D34*
%TO.N,VBAT*%
X82335000Y-93457500D02*
X84807500Y-93457500D01*
X79622500Y-94190000D02*
X80355000Y-93457500D01*
X84807500Y-93457500D02*
X87850000Y-96500000D01*
X77875000Y-94190000D02*
X79622500Y-94190000D01*
D35*
X91708200Y-92641800D02*
X87850000Y-96500000D01*
D34*
X80355000Y-93457500D02*
X82335000Y-93457500D01*
D35*
X91708200Y-89110000D02*
X91708200Y-92641800D01*
%TO.N,GND*%
X92850000Y-96500000D02*
X96788200Y-92561800D01*
D34*
X95985000Y-65545000D02*
X95985000Y-63005000D01*
X83770000Y-97987500D02*
X83770000Y-96967500D01*
X95985000Y-63005000D02*
X95985000Y-60465000D01*
X92850000Y-96500000D02*
X90017500Y-99332500D01*
D35*
X96788200Y-92561800D02*
X96788200Y-89110000D01*
D34*
X80355000Y-95532500D02*
X82335000Y-95532500D01*
X90017500Y-99332500D02*
X82425000Y-99332500D01*
X83770000Y-96967500D02*
X82335000Y-95532500D01*
X58680000Y-69152500D02*
X60685000Y-69152500D01*
X79802500Y-98790000D02*
X80345000Y-99332500D01*
X57657500Y-68130000D02*
X58680000Y-69152500D01*
X82425000Y-99332500D02*
X83770000Y-97987500D01*
X77875000Y-98790000D02*
X79802500Y-98790000D01*
X80345000Y-99332500D02*
X82425000Y-99332500D01*
%TO.N,Net-(JP1-A)*%
X70475000Y-95390000D02*
X71575000Y-96490000D01*
X64505000Y-98995000D02*
X67585000Y-95915000D01*
X71575000Y-96490000D02*
X77875000Y-96490000D01*
X67585000Y-95390000D02*
X70475000Y-95390000D01*
X80345000Y-97257500D02*
X78642500Y-97257500D01*
X78642500Y-97257500D02*
X77875000Y-96490000D01*
X82425000Y-97257500D02*
X80345000Y-97257500D01*
X67585000Y-95915000D02*
X67585000Y-95390000D01*
%TO.N,+5V*%
X44940000Y-70055000D02*
X46995000Y-68000000D01*
X68400000Y-68150000D02*
X66520000Y-70030000D01*
X69250000Y-77040000D02*
X88280000Y-58010000D01*
X67740000Y-77040000D02*
X69250000Y-77040000D01*
X66520000Y-75820000D02*
X67740000Y-77040000D01*
X41086839Y-89050000D02*
X44940000Y-85196839D01*
X98645000Y-63005000D02*
X98645000Y-65545000D01*
X98645000Y-60465000D02*
X98645000Y-63005000D01*
X96190000Y-58010000D02*
X98645000Y-60465000D01*
X59965000Y-95905000D02*
X59965000Y-95390000D01*
X44940000Y-85196839D02*
X44940000Y-70055000D01*
X88280000Y-58010000D02*
X96190000Y-58010000D01*
X63055000Y-98995000D02*
X59965000Y-95905000D01*
X97965000Y-59815000D02*
X97965000Y-60475000D01*
X66520000Y-70030000D02*
X66520000Y-75820000D01*
%TO.N,/RPLIDAR_MOTOR*%
X48706839Y-89050000D02*
X48706839Y-90111839D01*
X48706839Y-90111839D02*
X52515000Y-93920000D01*
%TO.N,/ENCA*%
X102561450Y-66428550D02*
X106000000Y-62990000D01*
X83560000Y-86510000D02*
X88599000Y-81471000D01*
X88599000Y-81471000D02*
X88599000Y-72733900D01*
X61616839Y-86510000D02*
X83560000Y-86510000D01*
X102561450Y-68361450D02*
X102561450Y-66428550D01*
X101323900Y-69599000D02*
X102561450Y-68361450D01*
X91733900Y-69599000D02*
X101323900Y-69599000D01*
X88599000Y-72733900D02*
X91733900Y-69599000D01*
%TO.N,/ENCB*%
X61406839Y-89050000D02*
X63701000Y-89050000D01*
X65840000Y-86911000D02*
X83726100Y-86911000D01*
X89000000Y-81637100D02*
X89000000Y-72900000D01*
X83726100Y-86911000D02*
X89000000Y-81637100D01*
X91900000Y-70000000D02*
X101490000Y-70000000D01*
X63701000Y-89050000D02*
X65840000Y-86911000D01*
X101490000Y-70000000D02*
X106000000Y-65490000D01*
X89000000Y-72900000D02*
X91900000Y-70000000D01*
%TO.N,/BIN1*%
X96755300Y-77010000D02*
X98728200Y-77010000D01*
X98728200Y-77010000D02*
X101868200Y-73870000D01*
X56326839Y-90096839D02*
X57882000Y-91652000D01*
X66336100Y-88501000D02*
X85264300Y-88501000D01*
X57882000Y-91652000D02*
X63185100Y-91652000D01*
X63185100Y-91652000D02*
X66336100Y-88501000D01*
X56326839Y-89050000D02*
X56326839Y-90096839D01*
X85264300Y-88501000D02*
X96755300Y-77010000D01*
%TO.N,/STBY*%
X66170000Y-88100000D02*
X85098200Y-88100000D01*
X63019000Y-91251000D02*
X66170000Y-88100000D01*
X85098200Y-88100000D02*
X99328200Y-73870000D01*
X58866839Y-90166839D02*
X59951000Y-91251000D01*
X58866839Y-89050000D02*
X58866839Y-90166839D01*
X59951000Y-91251000D02*
X63019000Y-91251000D01*
%TO.N,/RF24_CE*%
X61940000Y-65380000D02*
X61300000Y-64740000D01*
X61940000Y-73276839D02*
X61940000Y-65380000D01*
X61406839Y-73810000D02*
X61940000Y-73276839D01*
X58507500Y-64740000D02*
X57657500Y-65590000D01*
X61300000Y-64740000D02*
X58507500Y-64740000D01*
%TO.N,/PWMB*%
X103006200Y-77812000D02*
X106948200Y-73870000D01*
X51246839Y-89050000D02*
X51246839Y-90116839D01*
X85596500Y-89303000D02*
X97087500Y-77812000D01*
X51246839Y-90116839D02*
X53584000Y-92454000D01*
X97087500Y-77812000D02*
X103006200Y-77812000D01*
X53584000Y-92454000D02*
X63533100Y-92454000D01*
X66684100Y-89303000D02*
X85596500Y-89303000D01*
X63533100Y-92454000D02*
X66684100Y-89303000D01*
%TO.N,/BIN2*%
X53786839Y-89050000D02*
X53786839Y-90106839D01*
X85430400Y-88902000D02*
X96921400Y-77411000D01*
X53786839Y-90106839D02*
X55733000Y-92053000D01*
X96921400Y-77411000D02*
X100867200Y-77411000D01*
X63367000Y-92053000D02*
X66518000Y-88902000D01*
X100867200Y-77411000D02*
X104408200Y-73870000D01*
X66518000Y-88902000D02*
X85430400Y-88902000D01*
X55733000Y-92053000D02*
X63367000Y-92053000D01*
%TO.N,/RF24_CSN*%
X61466100Y-64339000D02*
X56368500Y-64339000D01*
X62630000Y-76350000D02*
X62630000Y-65502900D01*
X56368500Y-64339000D02*
X55117500Y-65590000D01*
X62630000Y-65502900D02*
X61466100Y-64339000D01*
X61616839Y-76350000D02*
X62630000Y-76350000D01*
%TO.N,/SPI1_MOSI*%
X64218839Y-79971161D02*
X64218839Y-65957539D01*
X61616839Y-81430000D02*
X62760000Y-81430000D01*
X60031300Y-61770000D02*
X56397500Y-61770000D01*
X62760000Y-81430000D02*
X64218839Y-79971161D01*
X56397500Y-61770000D02*
X55117500Y-63050000D01*
X64218839Y-65957539D02*
X60031300Y-61770000D01*
%TO.N,/SPI1_SCK*%
X61616839Y-78890000D02*
X62700000Y-78890000D01*
X62700000Y-78890000D02*
X63817839Y-77772161D01*
X60744200Y-63050000D02*
X57657500Y-63050000D01*
X63817839Y-77772161D02*
X63817839Y-66123639D01*
X63817839Y-66123639D02*
X60744200Y-63050000D01*
%TO.N,/SPI1_MISO*%
X62700000Y-83970000D02*
X64619839Y-82050161D01*
X59338400Y-60510000D02*
X57657500Y-60510000D01*
X64619839Y-65791439D02*
X59338400Y-60510000D01*
X64619839Y-82050161D02*
X64619839Y-65791439D01*
X61616839Y-83970000D02*
X62700000Y-83970000D01*
%TO.N,/GP7*%
X61204383Y-85240000D02*
X66020000Y-85240000D01*
X92630000Y-60460000D02*
X92645000Y-60475000D01*
X90800000Y-60460000D02*
X90805000Y-60465000D01*
X66020000Y-85240000D02*
X90800000Y-60460000D01*
X90805000Y-60465000D02*
X93325000Y-60465000D01*
X58866839Y-73810000D02*
X58866839Y-82902456D01*
X58866839Y-82902456D02*
X61204383Y-85240000D01*
%TO.N,/GP3*%
X48710000Y-82880000D02*
X48706839Y-82876839D01*
X93325000Y-65545000D02*
X86849200Y-65545000D01*
X48706839Y-73810000D02*
X48706839Y-82876839D01*
X86849200Y-65545000D02*
X69310000Y-83084200D01*
X69310000Y-83084200D02*
X69310000Y-85240000D01*
%TO.N,/GP6*%
X68110000Y-83717100D02*
X88822100Y-63005000D01*
X56326839Y-73810000D02*
X56330000Y-73813161D01*
X56330000Y-73813161D02*
X56330000Y-82880000D01*
X68110000Y-85240000D02*
X68110000Y-83717100D01*
X88822100Y-63005000D02*
X93325000Y-63005000D01*
%TO.N,/UART0_TX*%
X41086839Y-68908161D02*
X46995000Y-63000000D01*
X41086839Y-73810000D02*
X41086839Y-68908161D01*
%TO.N,/UART0_RX*%
X43626839Y-73810000D02*
X43626839Y-68868161D01*
X43626839Y-68868161D02*
X46995000Y-65500000D01*
D35*
%TO.N,/M-*%
X106948200Y-92401800D02*
X106948200Y-89110000D01*
X102850000Y-96500000D02*
X106948200Y-92401800D01*
%TO.N,/M+*%
X104408200Y-89941800D02*
X104408200Y-89110000D01*
X97850000Y-96500000D02*
X104408200Y-89941800D01*
D34*
%TO.N,+3.3V*%
X56347500Y-66900000D02*
X59100000Y-66900000D01*
X59100000Y-66900000D02*
X59277500Y-67077500D01*
X59277500Y-67077500D02*
X60685000Y-67077500D01*
X55117500Y-68130000D02*
X56347500Y-66900000D01*
%TO.N,/SERVO*%
X46166839Y-73810000D02*
X46166839Y-72653161D01*
X46166839Y-72653161D02*
X48965000Y-69855000D01*
X48965000Y-69855000D02*
X48965000Y-53955000D01*
%TO.N,/I2C0_SDA*%
X81550000Y-54997500D02*
X83117500Y-53430000D01*
X68950000Y-55000000D02*
X70540000Y-53410000D01*
X83117500Y-53430000D02*
X92580000Y-53430000D01*
X56350000Y-54995000D02*
X57925000Y-53420000D01*
X51246839Y-73810000D02*
X51246839Y-60098161D01*
X70540000Y-53410000D02*
X79962500Y-53410000D01*
X92580000Y-53430000D02*
X94150000Y-55000000D01*
X57925000Y-53420000D02*
X67370000Y-53420000D01*
X79962500Y-53410000D02*
X81550000Y-54997500D01*
X51246839Y-60098161D02*
X56350000Y-54995000D01*
X67370000Y-53420000D02*
X68950000Y-55000000D01*
%TO.N,/I2C0_SCL*%
X58850000Y-54995000D02*
X60425000Y-56570000D01*
X71450000Y-55000000D02*
X73010000Y-56560000D01*
X53786839Y-72519000D02*
X51700000Y-70432161D01*
X60425000Y-56570000D02*
X69880000Y-56570000D01*
X71450000Y-55000000D02*
X71450000Y-72720000D01*
X85612500Y-56560000D02*
X95090000Y-56560000D01*
X54017900Y-57932100D02*
X55912900Y-57932100D01*
X73010000Y-56560000D02*
X82487500Y-56560000D01*
X51700000Y-60250000D02*
X54017900Y-57932100D01*
X55912900Y-57932100D02*
X58850000Y-54995000D01*
X53786839Y-73810000D02*
X53786839Y-72519000D01*
X95090000Y-56560000D02*
X96650000Y-55000000D01*
X69880000Y-56570000D02*
X71450000Y-55000000D01*
X51700000Y-70432161D02*
X51700000Y-60250000D01*
X71450000Y-72720000D02*
X68400000Y-75770000D01*
X84050000Y-54997500D02*
X85612500Y-56560000D01*
X82487500Y-56560000D02*
X84050000Y-54997500D01*
%TD*%
%TA.AperFunction,Conductor*%
%TO.N,+5V*%
G36*
X58397126Y-56392851D02*
G01*
X58533757Y-56437246D01*
X58743713Y-56470500D01*
X58743714Y-56470500D01*
X58956286Y-56470500D01*
X58956287Y-56470500D01*
X59166243Y-56437246D01*
X59302873Y-56392851D01*
X59372708Y-56390856D01*
X59428867Y-56423102D01*
X59940139Y-56934374D01*
X59940149Y-56934385D01*
X59944479Y-56938715D01*
X59944480Y-56938716D01*
X60056284Y-57050520D01*
X60056286Y-57050521D01*
X60056290Y-57050524D01*
X60175895Y-57119577D01*
X60193216Y-57129577D01*
X60305019Y-57159534D01*
X60345942Y-57170500D01*
X60345943Y-57170500D01*
X69793331Y-57170500D01*
X69793347Y-57170501D01*
X69800943Y-57170501D01*
X69959054Y-57170501D01*
X69959057Y-57170501D01*
X70111785Y-57129577D01*
X70161904Y-57100639D01*
X70248716Y-57050520D01*
X70360520Y-56938716D01*
X70360520Y-56938714D01*
X70370728Y-56928507D01*
X70370729Y-56928504D01*
X70637820Y-56661414D01*
X70699142Y-56627930D01*
X70768834Y-56632914D01*
X70824767Y-56674786D01*
X70849184Y-56740250D01*
X70849500Y-56749096D01*
X70849500Y-72419902D01*
X70829815Y-72486941D01*
X70813181Y-72507583D01*
X69962181Y-73358583D01*
X69900858Y-73392068D01*
X69831166Y-73387084D01*
X69775233Y-73345212D01*
X69750816Y-73279748D01*
X69750500Y-73270902D01*
X69750500Y-73123713D01*
X69744956Y-73088709D01*
X69717246Y-72913757D01*
X69651557Y-72711588D01*
X69555051Y-72522184D01*
X69555049Y-72522181D01*
X69555048Y-72522179D01*
X69430109Y-72350213D01*
X69279786Y-72199890D01*
X69107820Y-72074951D01*
X69107115Y-72074591D01*
X69099054Y-72070485D01*
X69048259Y-72022512D01*
X69031463Y-71954692D01*
X69053999Y-71888556D01*
X69099054Y-71849515D01*
X69107816Y-71845051D01*
X69146268Y-71817114D01*
X69279786Y-71720109D01*
X69279788Y-71720106D01*
X69279792Y-71720104D01*
X69430104Y-71569792D01*
X69430106Y-71569788D01*
X69430109Y-71569786D01*
X69548621Y-71406666D01*
X69555051Y-71397816D01*
X69651557Y-71208412D01*
X69717246Y-71006243D01*
X69750500Y-70796287D01*
X69750500Y-70583713D01*
X69717246Y-70373757D01*
X69651557Y-70171588D01*
X69555051Y-69982184D01*
X69555049Y-69982181D01*
X69555048Y-69982179D01*
X69430109Y-69810213D01*
X69316181Y-69696285D01*
X69282696Y-69634962D01*
X69287680Y-69565270D01*
X69329552Y-69509337D01*
X69360529Y-69492422D01*
X69492086Y-69443354D01*
X69492093Y-69443350D01*
X69607187Y-69357190D01*
X69607190Y-69357187D01*
X69693350Y-69242093D01*
X69693354Y-69242086D01*
X69743596Y-69107379D01*
X69743598Y-69107372D01*
X69749999Y-69047844D01*
X69750000Y-69047827D01*
X69750000Y-68400000D01*
X68833012Y-68400000D01*
X68865925Y-68342993D01*
X68900000Y-68215826D01*
X68900000Y-68084174D01*
X68865925Y-67957007D01*
X68833012Y-67900000D01*
X69750000Y-67900000D01*
X69750000Y-67252172D01*
X69749999Y-67252155D01*
X69743598Y-67192627D01*
X69743596Y-67192620D01*
X69693354Y-67057913D01*
X69693350Y-67057906D01*
X69607190Y-66942812D01*
X69607187Y-66942809D01*
X69492093Y-66856649D01*
X69492086Y-66856645D01*
X69357379Y-66806403D01*
X69357372Y-66806401D01*
X69297844Y-66800000D01*
X68650000Y-66800000D01*
X68650000Y-67716988D01*
X68592993Y-67684075D01*
X68465826Y-67650000D01*
X68334174Y-67650000D01*
X68207007Y-67684075D01*
X68150000Y-67716988D01*
X68150000Y-66800000D01*
X67502155Y-66800000D01*
X67442627Y-66806401D01*
X67442620Y-66806403D01*
X67307913Y-66856645D01*
X67307906Y-66856649D01*
X67192812Y-66942809D01*
X67192809Y-66942812D01*
X67106649Y-67057906D01*
X67106645Y-67057913D01*
X67056403Y-67192620D01*
X67056401Y-67192627D01*
X67050000Y-67252155D01*
X67050000Y-67900000D01*
X67966988Y-67900000D01*
X67934075Y-67957007D01*
X67900000Y-68084174D01*
X67900000Y-68215826D01*
X67934075Y-68342993D01*
X67966988Y-68400000D01*
X67050000Y-68400000D01*
X67050000Y-69047844D01*
X67056401Y-69107372D01*
X67056403Y-69107379D01*
X67106645Y-69242086D01*
X67106649Y-69242093D01*
X67192809Y-69357187D01*
X67192812Y-69357190D01*
X67307906Y-69443350D01*
X67307913Y-69443354D01*
X67439470Y-69492422D01*
X67495404Y-69534293D01*
X67519821Y-69599758D01*
X67504969Y-69668031D01*
X67483819Y-69696285D01*
X67369889Y-69810215D01*
X67244951Y-69982179D01*
X67148444Y-70171585D01*
X67082753Y-70373760D01*
X67049500Y-70583713D01*
X67049500Y-70796286D01*
X67082753Y-71006239D01*
X67148444Y-71208414D01*
X67244951Y-71397820D01*
X67369890Y-71569786D01*
X67520213Y-71720109D01*
X67692182Y-71845050D01*
X67700946Y-71849516D01*
X67751742Y-71897491D01*
X67768536Y-71965312D01*
X67745998Y-72031447D01*
X67700946Y-72070484D01*
X67692182Y-72074949D01*
X67520213Y-72199890D01*
X67369890Y-72350213D01*
X67244951Y-72522179D01*
X67148444Y-72711585D01*
X67082753Y-72913760D01*
X67070645Y-72990208D01*
X67049500Y-73123713D01*
X67049500Y-73336287D01*
X67082754Y-73546243D01*
X67110321Y-73631086D01*
X67148444Y-73748414D01*
X67244951Y-73937820D01*
X67369890Y-74109786D01*
X67520213Y-74260109D01*
X67692182Y-74385050D01*
X67700946Y-74389516D01*
X67751742Y-74437491D01*
X67768536Y-74505312D01*
X67745998Y-74571447D01*
X67700946Y-74610484D01*
X67692182Y-74614949D01*
X67520213Y-74739890D01*
X67369890Y-74890213D01*
X67244951Y-75062179D01*
X67148444Y-75251585D01*
X67082753Y-75453760D01*
X67055550Y-75625512D01*
X67049500Y-75663713D01*
X67049500Y-75876287D01*
X67082754Y-76086243D01*
X67121112Y-76204297D01*
X67148444Y-76288414D01*
X67244951Y-76477820D01*
X67369890Y-76649786D01*
X67520213Y-76800109D01*
X67692182Y-76925050D01*
X67700946Y-76929516D01*
X67751742Y-76977491D01*
X67768536Y-77045312D01*
X67745998Y-77111447D01*
X67700946Y-77150484D01*
X67692182Y-77154949D01*
X67520213Y-77279890D01*
X67369890Y-77430213D01*
X67244951Y-77602179D01*
X67148444Y-77791585D01*
X67082753Y-77993760D01*
X67049500Y-78203713D01*
X67049500Y-78416286D01*
X67082753Y-78626239D01*
X67148444Y-78828414D01*
X67244951Y-79017820D01*
X67369890Y-79189786D01*
X67520213Y-79340109D01*
X67692182Y-79465050D01*
X67700946Y-79469516D01*
X67751742Y-79517491D01*
X67768536Y-79585312D01*
X67745998Y-79651447D01*
X67700946Y-79690484D01*
X67692182Y-79694949D01*
X67520213Y-79819890D01*
X67369890Y-79970213D01*
X67244951Y-80142179D01*
X67148444Y-80331585D01*
X67082753Y-80533760D01*
X67049500Y-80743713D01*
X67049500Y-80956286D01*
X67082753Y-81166239D01*
X67148444Y-81368414D01*
X67244951Y-81557820D01*
X67369890Y-81729786D01*
X67520213Y-81880109D01*
X67692179Y-82005048D01*
X67692181Y-82005049D01*
X67692184Y-82005051D01*
X67881588Y-82101557D01*
X68011895Y-82143896D01*
X68069568Y-82183332D01*
X68096767Y-82247691D01*
X68084853Y-82316537D01*
X68061256Y-82349507D01*
X65807584Y-84603181D01*
X65746261Y-84636666D01*
X65719903Y-84639500D01*
X64134702Y-84639500D01*
X64067663Y-84619815D01*
X64021908Y-84567011D01*
X64011084Y-84505772D01*
X64017338Y-84426297D01*
X64017339Y-84426289D01*
X64017338Y-83553256D01*
X64037022Y-83486218D01*
X64053652Y-83465581D01*
X64978345Y-82540889D01*
X64978350Y-82540885D01*
X64988553Y-82530681D01*
X64988555Y-82530681D01*
X65100359Y-82418877D01*
X65179416Y-82281945D01*
X65220339Y-82129218D01*
X65220339Y-65880499D01*
X65220340Y-65880486D01*
X65220340Y-65712383D01*
X65197926Y-65628735D01*
X65179416Y-65559655D01*
X65170955Y-65545000D01*
X65100363Y-65422729D01*
X65100357Y-65422721D01*
X59825990Y-60148355D01*
X59825988Y-60148352D01*
X59707117Y-60029481D01*
X59707116Y-60029480D01*
X59620304Y-59979360D01*
X59620304Y-59979359D01*
X59620300Y-59979358D01*
X59570185Y-59950423D01*
X59417457Y-59909499D01*
X59259343Y-59909499D01*
X59251747Y-59909499D01*
X59251731Y-59909500D01*
X58943219Y-59909500D01*
X58876180Y-59889815D01*
X58832735Y-59841795D01*
X58812552Y-59802185D01*
X58812551Y-59802184D01*
X58687609Y-59630213D01*
X58537286Y-59479890D01*
X58365320Y-59354951D01*
X58175914Y-59258444D01*
X58175913Y-59258443D01*
X58175912Y-59258443D01*
X57973743Y-59192754D01*
X57973741Y-59192753D01*
X57973740Y-59192753D01*
X57812457Y-59167208D01*
X57763787Y-59159500D01*
X57551213Y-59159500D01*
X57502542Y-59167208D01*
X57341260Y-59192753D01*
X57139085Y-59258444D01*
X56949679Y-59354951D01*
X56777713Y-59479890D01*
X56627390Y-59630213D01*
X56502449Y-59802182D01*
X56497984Y-59810946D01*
X56450009Y-59861742D01*
X56382188Y-59878536D01*
X56316053Y-59855998D01*
X56277016Y-59810946D01*
X56272550Y-59802182D01*
X56147609Y-59630213D01*
X55997286Y-59479890D01*
X55825320Y-59354951D01*
X55635914Y-59258444D01*
X55635913Y-59258443D01*
X55635912Y-59258443D01*
X55433743Y-59192754D01*
X55433741Y-59192753D01*
X55433740Y-59192753D01*
X55272457Y-59167208D01*
X55223787Y-59159500D01*
X55011213Y-59159500D01*
X54962542Y-59167208D01*
X54801260Y-59192753D01*
X54599085Y-59258444D01*
X54409679Y-59354951D01*
X54237713Y-59479890D01*
X54087390Y-59630213D01*
X53962451Y-59802179D01*
X53865944Y-59991585D01*
X53800253Y-60193760D01*
X53767000Y-60403713D01*
X53767000Y-60616286D01*
X53798669Y-60816239D01*
X53800254Y-60826243D01*
X53862694Y-61018414D01*
X53865944Y-61028414D01*
X53962451Y-61217820D01*
X54087390Y-61389786D01*
X54237713Y-61540109D01*
X54409682Y-61665050D01*
X54418446Y-61669516D01*
X54469242Y-61717491D01*
X54486036Y-61785312D01*
X54463498Y-61851447D01*
X54418446Y-61890484D01*
X54409682Y-61894949D01*
X54237713Y-62019890D01*
X54087390Y-62170213D01*
X53962451Y-62342179D01*
X53865944Y-62531585D01*
X53800253Y-62733760D01*
X53767000Y-62943713D01*
X53767000Y-63156286D01*
X53793126Y-63321243D01*
X53800254Y-63366243D01*
X53851258Y-63523217D01*
X53865944Y-63568414D01*
X53962451Y-63757820D01*
X54087390Y-63929786D01*
X54237713Y-64080109D01*
X54409682Y-64205050D01*
X54418446Y-64209516D01*
X54469242Y-64257491D01*
X54486036Y-64325312D01*
X54463498Y-64391447D01*
X54418446Y-64430484D01*
X54409682Y-64434949D01*
X54237713Y-64559890D01*
X54087390Y-64710213D01*
X53962451Y-64882179D01*
X53865944Y-65071585D01*
X53800253Y-65273760D01*
X53767000Y-65483713D01*
X53767000Y-65696286D01*
X53796176Y-65880499D01*
X53800254Y-65906243D01*
X53856343Y-66078867D01*
X53865944Y-66108414D01*
X53962451Y-66297820D01*
X54087390Y-66469786D01*
X54200930Y-66583326D01*
X54234415Y-66644649D01*
X54229431Y-66714341D01*
X54187559Y-66770274D01*
X54156583Y-66787189D01*
X54025169Y-66836203D01*
X54025164Y-66836206D01*
X53909955Y-66922452D01*
X53909952Y-66922455D01*
X53823706Y-67037664D01*
X53823702Y-67037671D01*
X53773408Y-67172517D01*
X53767001Y-67232116D01*
X53767000Y-67232135D01*
X53767000Y-69027870D01*
X53767001Y-69027876D01*
X53773408Y-69087483D01*
X53823702Y-69222328D01*
X53823706Y-69222335D01*
X53909952Y-69337544D01*
X53909955Y-69337547D01*
X54025164Y-69423793D01*
X54025171Y-69423797D01*
X54160017Y-69474091D01*
X54160016Y-69474091D01*
X54166944Y-69474835D01*
X54219627Y-69480500D01*
X56015372Y-69480499D01*
X56074983Y-69474091D01*
X56209831Y-69423796D01*
X56325046Y-69337546D01*
X56411296Y-69222331D01*
X56460310Y-69090916D01*
X56502181Y-69034984D01*
X56567645Y-69010566D01*
X56635918Y-69025417D01*
X56664173Y-69046569D01*
X56777713Y-69160109D01*
X56949679Y-69285048D01*
X56949681Y-69285049D01*
X56949684Y-69285051D01*
X57139088Y-69381557D01*
X57341257Y-69447246D01*
X57551213Y-69480500D01*
X57551214Y-69480500D01*
X57763786Y-69480500D01*
X57763787Y-69480500D01*
X57973743Y-69447246D01*
X58016023Y-69433507D01*
X58031234Y-69433072D01*
X58045495Y-69427754D01*
X58065448Y-69432094D01*
X58085862Y-69431511D01*
X58099949Y-69439600D01*
X58113768Y-69442606D01*
X58142022Y-69463757D01*
X58195139Y-69516874D01*
X58195149Y-69516885D01*
X58199479Y-69521215D01*
X58199480Y-69521216D01*
X58311284Y-69633020D01*
X58311286Y-69633021D01*
X58311290Y-69633024D01*
X58371925Y-69668031D01*
X58448216Y-69712077D01*
X58560019Y-69742034D01*
X58600942Y-69753000D01*
X58600943Y-69753000D01*
X59421232Y-69753000D01*
X59488271Y-69772685D01*
X59526769Y-69811901D01*
X59617288Y-69958656D01*
X59741344Y-70082712D01*
X59890666Y-70174814D01*
X60057203Y-70229999D01*
X60159991Y-70240500D01*
X61210008Y-70240499D01*
X61213165Y-70240499D01*
X61213165Y-70241491D01*
X61277143Y-70256788D01*
X61325526Y-70307194D01*
X61339500Y-70364380D01*
X61339500Y-71285500D01*
X61319815Y-71352539D01*
X61267011Y-71398294D01*
X61215500Y-71409500D01*
X60943774Y-71409500D01*
X60943755Y-71409501D01*
X60865139Y-71415687D01*
X60682283Y-71464684D01*
X60513614Y-71550623D01*
X60513612Y-71550624D01*
X60366497Y-71669758D01*
X60247363Y-71816873D01*
X60247323Y-71816953D01*
X60247288Y-71816989D01*
X60243825Y-71822323D01*
X60242849Y-71821689D01*
X60199348Y-71867749D01*
X60131527Y-71884543D01*
X60065392Y-71862005D01*
X60030592Y-71821843D01*
X60029853Y-71822323D01*
X60026398Y-71817002D01*
X60026355Y-71816953D01*
X60026315Y-71816875D01*
X60026314Y-71816873D01*
X59973007Y-71751046D01*
X59907181Y-71669758D01*
X59841353Y-71616451D01*
X59760065Y-71550624D01*
X59760063Y-71550623D01*
X59649053Y-71494062D01*
X59591395Y-71464684D01*
X59471113Y-71432454D01*
X59408540Y-71415687D01*
X59336629Y-71410028D01*
X59329914Y-71409500D01*
X59329913Y-71409500D01*
X58403774Y-71409500D01*
X58403755Y-71409501D01*
X58325139Y-71415687D01*
X58142283Y-71464684D01*
X57973614Y-71550623D01*
X57973612Y-71550624D01*
X57826497Y-71669758D01*
X57707363Y-71816873D01*
X57707323Y-71816953D01*
X57707288Y-71816989D01*
X57703825Y-71822323D01*
X57702849Y-71821689D01*
X57659348Y-71867749D01*
X57591527Y-71884543D01*
X57525392Y-71862005D01*
X57490592Y-71821843D01*
X57489853Y-71822323D01*
X57486398Y-71817002D01*
X57486355Y-71816953D01*
X57486315Y-71816875D01*
X57486314Y-71816873D01*
X57433007Y-71751046D01*
X57367181Y-71669758D01*
X57301353Y-71616451D01*
X57220065Y-71550624D01*
X57220063Y-71550623D01*
X57109053Y-71494062D01*
X57051395Y-71464684D01*
X56931113Y-71432454D01*
X56868540Y-71415687D01*
X56796629Y-71410028D01*
X56789914Y-71409500D01*
X56789913Y-71409500D01*
X55863774Y-71409500D01*
X55863755Y-71409501D01*
X55785139Y-71415687D01*
X55602283Y-71464684D01*
X55433614Y-71550623D01*
X55433612Y-71550624D01*
X55286497Y-71669758D01*
X55167363Y-71816873D01*
X55167323Y-71816953D01*
X55167288Y-71816989D01*
X55163825Y-71822323D01*
X55162849Y-71821689D01*
X55119348Y-71867749D01*
X55051527Y-71884543D01*
X54985392Y-71862005D01*
X54950592Y-71821843D01*
X54949853Y-71822323D01*
X54946398Y-71817002D01*
X54946355Y-71816953D01*
X54946315Y-71816875D01*
X54946314Y-71816873D01*
X54893007Y-71751046D01*
X54827181Y-71669758D01*
X54761353Y-71616451D01*
X54680065Y-71550624D01*
X54680063Y-71550623D01*
X54569053Y-71494062D01*
X54511395Y-71464684D01*
X54391113Y-71432454D01*
X54328540Y-71415687D01*
X54249919Y-71409500D01*
X54249914Y-71409500D01*
X53577936Y-71409500D01*
X53510897Y-71389815D01*
X53490255Y-71373181D01*
X52336819Y-70219745D01*
X52303334Y-70158422D01*
X52300500Y-70132064D01*
X52300500Y-60550097D01*
X52320185Y-60483058D01*
X52336819Y-60462416D01*
X54230317Y-58568919D01*
X54291640Y-58535434D01*
X54317998Y-58532600D01*
X55826231Y-58532600D01*
X55826247Y-58532601D01*
X55833843Y-58532601D01*
X55991954Y-58532601D01*
X55991957Y-58532601D01*
X56144685Y-58491677D01*
X56194804Y-58462739D01*
X56281616Y-58412620D01*
X56393420Y-58300816D01*
X56393420Y-58300814D01*
X56403628Y-58290607D01*
X56403630Y-58290604D01*
X58271133Y-56423100D01*
X58332454Y-56389617D01*
X58397126Y-56392851D01*
G37*
%TD.AperFunction*%
%TA.AperFunction,Conductor*%
G36*
X46552370Y-67816657D02*
G01*
X46520000Y-67937465D01*
X46520000Y-68062535D01*
X46552370Y-68183343D01*
X46590854Y-68250000D01*
X45520001Y-68250000D01*
X45520001Y-68649986D01*
X45530494Y-68752697D01*
X45585641Y-68919119D01*
X45585643Y-68919124D01*
X45677684Y-69068345D01*
X45801654Y-69192315D01*
X45950875Y-69284356D01*
X45950880Y-69284358D01*
X46117302Y-69339505D01*
X46117309Y-69339506D01*
X46220019Y-69349999D01*
X46744999Y-69349999D01*
X46745000Y-69349998D01*
X46745000Y-68404145D01*
X46811657Y-68442630D01*
X46932465Y-68475000D01*
X47057535Y-68475000D01*
X47178343Y-68442630D01*
X47245000Y-68404145D01*
X47245000Y-69349999D01*
X47769972Y-69349999D01*
X47769986Y-69349998D01*
X47872697Y-69339505D01*
X48039119Y-69284358D01*
X48039130Y-69284353D01*
X48175403Y-69200299D01*
X48183020Y-69198214D01*
X48188989Y-69193043D01*
X48216238Y-69189124D01*
X48242795Y-69181858D01*
X48250330Y-69184222D01*
X48258147Y-69183099D01*
X48283189Y-69194535D01*
X48309459Y-69202780D01*
X48314519Y-69208843D01*
X48321703Y-69212124D01*
X48336588Y-69235286D01*
X48354228Y-69256422D01*
X48356167Y-69265752D01*
X48359477Y-69270902D01*
X48364500Y-69305837D01*
X48364500Y-69554902D01*
X48344815Y-69621941D01*
X48328181Y-69642583D01*
X46597582Y-71373181D01*
X46536259Y-71406666D01*
X46509901Y-71409500D01*
X45703828Y-71409500D01*
X45703809Y-71409501D01*
X45625195Y-71415687D01*
X45442351Y-71464680D01*
X45273692Y-71550614D01*
X45126582Y-71669743D01*
X45007452Y-71816855D01*
X45007321Y-71817114D01*
X45007204Y-71817237D01*
X45003914Y-71822304D01*
X45002987Y-71821702D01*
X44959344Y-71867908D01*
X44891522Y-71884700D01*
X44825388Y-71862159D01*
X44790461Y-71821850D01*
X44789764Y-71822304D01*
X44786502Y-71817281D01*
X44786357Y-71817114D01*
X44786225Y-71816855D01*
X44758268Y-71782331D01*
X44667096Y-71669743D01*
X44519988Y-71550617D01*
X44513435Y-71547278D01*
X44351324Y-71464678D01*
X44319243Y-71456082D01*
X44259584Y-71419716D01*
X44229055Y-71356869D01*
X44227339Y-71336308D01*
X44227339Y-69168257D01*
X44247024Y-69101218D01*
X44263653Y-69080581D01*
X45557915Y-67786318D01*
X45619238Y-67752834D01*
X45645596Y-67750000D01*
X46590854Y-67750000D01*
X46552370Y-67816657D01*
G37*
%TD.AperFunction*%
%TA.AperFunction,Conductor*%
G36*
X98179075Y-63197993D02*
G01*
X98244901Y-63312007D01*
X98337993Y-63405099D01*
X98452007Y-63470925D01*
X98515591Y-63487962D01*
X97914971Y-64088581D01*
X97993711Y-64205895D01*
X97994920Y-64209729D01*
X97997844Y-64212491D01*
X98005343Y-64242778D01*
X98014727Y-64272529D01*
X98013671Y-64276408D01*
X98014638Y-64280312D01*
X98004573Y-64309844D01*
X97996383Y-64339947D01*
X97993397Y-64342640D01*
X97992100Y-64346447D01*
X97947051Y-64385483D01*
X97937440Y-64390380D01*
X97883282Y-64429727D01*
X97883282Y-64429728D01*
X98515591Y-65062037D01*
X98452007Y-65079075D01*
X98337993Y-65144901D01*
X98244901Y-65237993D01*
X98179075Y-65352007D01*
X98162037Y-65415591D01*
X97529728Y-64783282D01*
X97529727Y-64783282D01*
X97490380Y-64837440D01*
X97490378Y-64837443D01*
X97425764Y-64964253D01*
X97377789Y-65015048D01*
X97309968Y-65031843D01*
X97243833Y-65009305D01*
X97204795Y-64964252D01*
X97140051Y-64837184D01*
X97140049Y-64837181D01*
X97140048Y-64837179D01*
X97015109Y-64665213D01*
X96864786Y-64514890D01*
X96692820Y-64389951D01*
X96692205Y-64389637D01*
X96684054Y-64385484D01*
X96633259Y-64337512D01*
X96616463Y-64269692D01*
X96638999Y-64203556D01*
X96684054Y-64164515D01*
X96692816Y-64160051D01*
X96791187Y-64088581D01*
X96864786Y-64035109D01*
X96864788Y-64035106D01*
X96864792Y-64035104D01*
X97015104Y-63884792D01*
X97015106Y-63884788D01*
X97015109Y-63884786D01*
X97119802Y-63740687D01*
X97140051Y-63712816D01*
X97204795Y-63585747D01*
X97252769Y-63534951D01*
X97320590Y-63518156D01*
X97386725Y-63540693D01*
X97425765Y-63585747D01*
X97490375Y-63712550D01*
X97529728Y-63766716D01*
X98162037Y-63134408D01*
X98179075Y-63197993D01*
G37*
%TD.AperFunction*%
%TA.AperFunction,Conductor*%
G36*
X97402993Y-61627784D02*
G01*
X97414579Y-61641154D01*
X97437813Y-61672191D01*
X97552906Y-61758350D01*
X97552913Y-61758354D01*
X97687620Y-61808596D01*
X97687619Y-61808596D01*
X97770444Y-61817501D01*
X97770116Y-61820550D01*
X97787014Y-61819642D01*
X97846196Y-61852642D01*
X98515591Y-62522037D01*
X98452007Y-62539075D01*
X98337993Y-62604901D01*
X98244901Y-62697993D01*
X98179075Y-62812007D01*
X98162037Y-62875591D01*
X97529728Y-62243282D01*
X97529727Y-62243282D01*
X97490380Y-62297440D01*
X97490378Y-62297443D01*
X97425764Y-62424253D01*
X97377789Y-62475048D01*
X97309968Y-62491843D01*
X97243833Y-62469305D01*
X97204795Y-62424252D01*
X97140051Y-62297184D01*
X97140049Y-62297181D01*
X97140048Y-62297179D01*
X97015109Y-62125213D01*
X96901569Y-62011673D01*
X96868084Y-61950350D01*
X96873068Y-61880658D01*
X96914940Y-61824725D01*
X96945915Y-61807810D01*
X97077331Y-61758796D01*
X97192546Y-61672546D01*
X97216045Y-61641154D01*
X97271978Y-61599283D01*
X97341670Y-61594299D01*
X97402993Y-61627784D01*
G37*
%TD.AperFunction*%
%TA.AperFunction,Conductor*%
G36*
X65050620Y-54040185D02*
G01*
X65096375Y-54092989D01*
X65106939Y-54157103D01*
X65100000Y-54225013D01*
X65100000Y-54750000D01*
X66045854Y-54750000D01*
X66007370Y-54816657D01*
X65975000Y-54937465D01*
X65975000Y-55062535D01*
X66007370Y-55183343D01*
X66045854Y-55250000D01*
X65100001Y-55250000D01*
X65100001Y-55774986D01*
X65105918Y-55832898D01*
X65093149Y-55901591D01*
X65045268Y-55952475D01*
X64982560Y-55969500D01*
X62635209Y-55969500D01*
X62568170Y-55949815D01*
X62522415Y-55897011D01*
X62512471Y-55827853D01*
X62524724Y-55789205D01*
X62601557Y-55638412D01*
X62667246Y-55436243D01*
X62700500Y-55226287D01*
X62700500Y-54763713D01*
X62667246Y-54553757D01*
X62601557Y-54351588D01*
X62524723Y-54200794D01*
X62511828Y-54132126D01*
X62538104Y-54067385D01*
X62595211Y-54027128D01*
X62635209Y-54020500D01*
X64983581Y-54020500D01*
X65050620Y-54040185D01*
G37*
%TD.AperFunction*%
%TA.AperFunction,Conductor*%
G36*
X77599056Y-54014819D02*
G01*
X77614377Y-54014191D01*
X77631901Y-54024463D01*
X77651386Y-54030185D01*
X77661424Y-54041769D01*
X77674654Y-54049525D01*
X77683843Y-54067642D01*
X77697141Y-54082989D01*
X77699794Y-54099092D01*
X77706259Y-54111838D01*
X77707705Y-54147103D01*
X77700000Y-54222513D01*
X77700000Y-54747500D01*
X78645854Y-54747500D01*
X78607370Y-54814157D01*
X78575000Y-54934965D01*
X78575000Y-55060035D01*
X78607370Y-55180843D01*
X78645854Y-55247500D01*
X77700001Y-55247500D01*
X77700001Y-55772484D01*
X77705152Y-55822897D01*
X77692383Y-55891590D01*
X77644503Y-55942475D01*
X77581794Y-55959500D01*
X75242852Y-55959500D01*
X75175813Y-55939815D01*
X75130058Y-55887011D01*
X75120114Y-55817853D01*
X75132367Y-55779205D01*
X75134517Y-55774986D01*
X75201557Y-55643412D01*
X75267246Y-55441243D01*
X75300500Y-55231287D01*
X75300500Y-54768713D01*
X75267246Y-54558757D01*
X75201557Y-54356588D01*
X75117080Y-54190793D01*
X75104185Y-54122126D01*
X75130461Y-54057385D01*
X75187568Y-54017128D01*
X75227566Y-54010500D01*
X77584347Y-54010500D01*
X77599056Y-54014819D01*
G37*
%TD.AperFunction*%
%TA.AperFunction,Conductor*%
G36*
X90249598Y-54050185D02*
G01*
X90295353Y-54102989D01*
X90305917Y-54167103D01*
X90300000Y-54225013D01*
X90300000Y-54750000D01*
X91245854Y-54750000D01*
X91207370Y-54816657D01*
X91175000Y-54937465D01*
X91175000Y-55062535D01*
X91207370Y-55183343D01*
X91245854Y-55250000D01*
X90300001Y-55250000D01*
X90300001Y-55774988D01*
X90304896Y-55822899D01*
X90292126Y-55891591D01*
X90244245Y-55942476D01*
X90181538Y-55959500D01*
X87841578Y-55959500D01*
X87774539Y-55939815D01*
X87728784Y-55887011D01*
X87718840Y-55817853D01*
X87731093Y-55779205D01*
X87733243Y-55774986D01*
X87801557Y-55640912D01*
X87867246Y-55438743D01*
X87900500Y-55228787D01*
X87900500Y-54766213D01*
X87867246Y-54556257D01*
X87801557Y-54354088D01*
X87735790Y-54225013D01*
X87728546Y-54210795D01*
X87715650Y-54142125D01*
X87741926Y-54077385D01*
X87799033Y-54037128D01*
X87839031Y-54030500D01*
X90182559Y-54030500D01*
X90249598Y-54050185D01*
G37*
%TD.AperFunction*%
%TA.AperFunction,Conductor*%
G36*
X111003472Y-47200695D02*
G01*
X111306503Y-47217713D01*
X111320301Y-47219267D01*
X111616080Y-47269522D01*
X111629636Y-47272616D01*
X111917927Y-47355672D01*
X111931051Y-47360265D01*
X112208222Y-47475072D01*
X112220744Y-47481101D01*
X112359434Y-47557753D01*
X112483328Y-47626227D01*
X112495102Y-47633625D01*
X112739789Y-47807239D01*
X112750653Y-47815904D01*
X112783095Y-47844896D01*
X112974352Y-48015815D01*
X112984184Y-48025647D01*
X113184092Y-48249342D01*
X113192763Y-48260214D01*
X113366374Y-48504897D01*
X113373772Y-48516671D01*
X113518894Y-48779248D01*
X113524927Y-48791777D01*
X113639734Y-49068948D01*
X113644327Y-49082072D01*
X113727383Y-49370363D01*
X113730477Y-49383920D01*
X113780730Y-49679688D01*
X113782287Y-49693506D01*
X113799305Y-49996527D01*
X113799500Y-50003480D01*
X113799500Y-98996519D01*
X113799305Y-99003472D01*
X113782287Y-99306493D01*
X113780730Y-99320311D01*
X113730477Y-99616079D01*
X113727383Y-99629636D01*
X113644327Y-99917927D01*
X113639734Y-99931051D01*
X113524927Y-100208222D01*
X113518894Y-100220751D01*
X113373772Y-100483328D01*
X113366374Y-100495102D01*
X113192763Y-100739785D01*
X113184092Y-100750657D01*
X112984184Y-100974352D01*
X112974352Y-100984184D01*
X112750657Y-101184092D01*
X112739785Y-101192763D01*
X112495102Y-101366374D01*
X112483328Y-101373772D01*
X112220751Y-101518894D01*
X112208222Y-101524927D01*
X111931051Y-101639734D01*
X111917927Y-101644327D01*
X111629636Y-101727383D01*
X111616079Y-101730477D01*
X111320311Y-101780730D01*
X111306493Y-101782287D01*
X111003472Y-101799305D01*
X110996519Y-101799500D01*
X42003481Y-101799500D01*
X41996528Y-101799305D01*
X41693506Y-101782287D01*
X41679688Y-101780730D01*
X41383920Y-101730477D01*
X41370363Y-101727383D01*
X41082072Y-101644327D01*
X41068948Y-101639734D01*
X40791777Y-101524927D01*
X40779248Y-101518894D01*
X40516671Y-101373772D01*
X40504897Y-101366374D01*
X40260214Y-101192763D01*
X40249342Y-101184092D01*
X40025647Y-100984184D01*
X40015815Y-100974352D01*
X39815907Y-100750657D01*
X39807236Y-100739785D01*
X39746498Y-100654183D01*
X39633625Y-100495102D01*
X39626227Y-100483328D01*
X39585699Y-100409998D01*
X39481101Y-100220744D01*
X39475072Y-100208222D01*
X39473662Y-100204819D01*
X39441441Y-100127028D01*
X39360265Y-99931051D01*
X39355672Y-99917927D01*
X39272616Y-99629636D01*
X39269522Y-99616079D01*
X39234992Y-99412849D01*
X39219267Y-99320301D01*
X39217713Y-99306503D01*
X39200695Y-99003472D01*
X39200500Y-98996519D01*
X39200500Y-97837857D01*
X39699500Y-97837857D01*
X39699500Y-98162143D01*
X39706518Y-98233400D01*
X39731284Y-98484857D01*
X39731287Y-98484874D01*
X39794545Y-98802902D01*
X39794548Y-98802913D01*
X39888686Y-99113247D01*
X40012786Y-99412849D01*
X40012788Y-99412854D01*
X40165646Y-99698830D01*
X40165657Y-99698848D01*
X40345811Y-99968467D01*
X40345821Y-99968481D01*
X40551546Y-100219158D01*
X40780841Y-100448453D01*
X40780846Y-100448457D01*
X40780847Y-100448458D01*
X41031524Y-100654183D01*
X41301158Y-100834347D01*
X41301167Y-100834352D01*
X41301169Y-100834353D01*
X41587145Y-100987211D01*
X41587147Y-100987211D01*
X41587153Y-100987215D01*
X41886754Y-101111314D01*
X42197077Y-101205449D01*
X42197083Y-101205450D01*
X42197086Y-101205451D01*
X42197097Y-101205454D01*
X42396528Y-101245122D01*
X42515132Y-101268714D01*
X42837857Y-101300500D01*
X42837860Y-101300500D01*
X43162140Y-101300500D01*
X43162143Y-101300500D01*
X43484868Y-101268714D01*
X43642295Y-101237399D01*
X43802902Y-101205454D01*
X43802913Y-101205451D01*
X43802913Y-101205450D01*
X43802923Y-101205449D01*
X44113246Y-101111314D01*
X44412847Y-100987215D01*
X44698842Y-100834347D01*
X44968476Y-100654183D01*
X45219153Y-100448458D01*
X45448458Y-100219153D01*
X45654183Y-99968476D01*
X45834347Y-99698842D01*
X45987215Y-99412847D01*
X46111314Y-99113246D01*
X46144608Y-99003490D01*
X62999570Y-99003490D01*
X62999571Y-99003494D01*
X63017238Y-99113246D01*
X63022438Y-99145545D01*
X63022439Y-99145548D01*
X63084399Y-99275401D01*
X63584397Y-100025399D01*
X63595900Y-100040499D01*
X63622969Y-100076032D01*
X63731706Y-100170254D01*
X63772174Y-100188735D01*
X63862580Y-100230023D01*
X63862583Y-100230023D01*
X63862584Y-100230024D01*
X64005000Y-100250500D01*
X64005003Y-100250500D01*
X65005000Y-100250500D01*
X65076940Y-100245355D01*
X65214992Y-100204819D01*
X65336032Y-100127031D01*
X65430254Y-100018294D01*
X65483189Y-99902383D01*
X65490023Y-99887419D01*
X65490024Y-99887414D01*
X65493514Y-99863139D01*
X65510500Y-99745000D01*
X65510500Y-98890097D01*
X65530185Y-98823058D01*
X65546819Y-98802416D01*
X67622417Y-96726818D01*
X67683740Y-96693333D01*
X67710098Y-96690499D01*
X68185002Y-96690499D01*
X68185008Y-96690499D01*
X68287797Y-96679999D01*
X68454334Y-96624814D01*
X68603656Y-96532712D01*
X68727712Y-96408656D01*
X68819814Y-96259334D01*
X68874999Y-96092797D01*
X68874999Y-96092793D01*
X68875912Y-96088533D01*
X68909199Y-96027102D01*
X68970414Y-95993419D01*
X68997163Y-95990500D01*
X69950500Y-95990500D01*
X70017539Y-96010185D01*
X70063294Y-96062989D01*
X70074500Y-96114500D01*
X70074500Y-97948028D01*
X70074501Y-97948034D01*
X70085113Y-98067415D01*
X70141089Y-98263045D01*
X70141090Y-98263048D01*
X70141091Y-98263049D01*
X70235302Y-98443407D01*
X70235304Y-98443409D01*
X70363890Y-98601109D01*
X70435515Y-98659511D01*
X70521593Y-98729698D01*
X70701951Y-98823909D01*
X70897582Y-98879886D01*
X71016963Y-98890500D01*
X72133036Y-98890499D01*
X72252418Y-98879886D01*
X72448049Y-98823909D01*
X72628407Y-98729698D01*
X72786109Y-98601109D01*
X72914698Y-98443407D01*
X73008909Y-98263049D01*
X73064886Y-98067418D01*
X73075500Y-97948037D01*
X73075500Y-97214500D01*
X73095185Y-97147461D01*
X73147989Y-97101706D01*
X73199500Y-97090500D01*
X76308084Y-97090500D01*
X76375123Y-97110185D01*
X76420878Y-97162989D01*
X76422574Y-97167112D01*
X76507967Y-97339292D01*
X76507969Y-97339295D01*
X76627277Y-97487721D01*
X76627278Y-97487722D01*
X76696486Y-97543353D01*
X76736405Y-97600696D01*
X76738985Y-97670518D01*
X76703406Y-97730651D01*
X76696486Y-97736647D01*
X76627278Y-97792277D01*
X76627277Y-97792278D01*
X76507969Y-97940704D01*
X76507967Y-97940707D01*
X76423360Y-98111302D01*
X76377400Y-98296107D01*
X76374500Y-98338879D01*
X76374500Y-99241122D01*
X76374501Y-99241125D01*
X76377399Y-99283886D01*
X76377399Y-99283887D01*
X76423360Y-99468696D01*
X76507967Y-99639292D01*
X76507969Y-99639295D01*
X76627277Y-99787721D01*
X76627278Y-99787722D01*
X76775704Y-99907030D01*
X76775707Y-99907032D01*
X76946302Y-99991639D01*
X76946303Y-99991639D01*
X76946307Y-99991641D01*
X77131111Y-100037600D01*
X77173877Y-100040500D01*
X78576122Y-100040499D01*
X78618889Y-100037600D01*
X78803693Y-99991641D01*
X78974296Y-99907030D01*
X78980078Y-99902382D01*
X79044659Y-99875722D01*
X79113404Y-99888209D01*
X79164484Y-99935881D01*
X79175472Y-99960021D01*
X79185183Y-99989327D01*
X79185187Y-99989336D01*
X79216744Y-100040498D01*
X79277288Y-100138656D01*
X79401344Y-100262712D01*
X79550666Y-100354814D01*
X79717203Y-100409999D01*
X79819991Y-100420500D01*
X80870008Y-100420499D01*
X80870016Y-100420498D01*
X80870019Y-100420498D01*
X80926302Y-100414748D01*
X80972797Y-100409999D01*
X81139334Y-100354814D01*
X81288656Y-100262712D01*
X81297319Y-100254049D01*
X81358642Y-100220564D01*
X81428334Y-100225548D01*
X81472681Y-100254049D01*
X81481344Y-100262712D01*
X81630666Y-100354814D01*
X81797203Y-100409999D01*
X81899991Y-100420500D01*
X82950008Y-100420499D01*
X82950016Y-100420498D01*
X82950019Y-100420498D01*
X83006302Y-100414748D01*
X83052797Y-100409999D01*
X83219334Y-100354814D01*
X83368656Y-100262712D01*
X83492712Y-100138656D01*
X83583229Y-99991902D01*
X83635177Y-99945179D01*
X83688768Y-99933000D01*
X89930831Y-99933000D01*
X89930847Y-99933001D01*
X89938443Y-99933001D01*
X90096554Y-99933001D01*
X90096557Y-99933001D01*
X90249285Y-99892077D01*
X90299404Y-99863139D01*
X90386216Y-99813020D01*
X90498020Y-99701216D01*
X90498020Y-99701214D01*
X90508228Y-99691007D01*
X90508230Y-99691004D01*
X91937334Y-98261899D01*
X91998655Y-98228416D01*
X92068347Y-98233400D01*
X92072455Y-98235016D01*
X92237793Y-98303502D01*
X92478435Y-98367982D01*
X92725435Y-98400500D01*
X92725442Y-98400500D01*
X92974558Y-98400500D01*
X92974565Y-98400500D01*
X93221565Y-98367982D01*
X93462207Y-98303502D01*
X93692373Y-98208164D01*
X93908127Y-98083599D01*
X94105776Y-97931938D01*
X94281938Y-97755776D01*
X94433599Y-97558127D01*
X94558164Y-97342373D01*
X94653502Y-97112207D01*
X94717982Y-96871565D01*
X94750500Y-96624565D01*
X94750500Y-96375435D01*
X94717982Y-96128435D01*
X94717977Y-96128417D01*
X94717390Y-96125463D01*
X94717471Y-96124555D01*
X94717452Y-96124410D01*
X94717484Y-96124405D01*
X94723618Y-96055871D01*
X94751325Y-96013593D01*
X97425978Y-93338941D01*
X97425982Y-93338939D01*
X97565339Y-93199582D01*
X97674832Y-93035714D01*
X97676032Y-93032817D01*
X97731906Y-92897925D01*
X97731906Y-92897924D01*
X97741103Y-92875720D01*
X97750251Y-92853636D01*
X97788700Y-92660340D01*
X97788700Y-92463260D01*
X97788700Y-90070199D01*
X97808385Y-90003160D01*
X97817671Y-89990664D01*
X97943248Y-89817820D01*
X97943247Y-89817820D01*
X97943251Y-89817816D01*
X97947714Y-89809054D01*
X97995688Y-89758259D01*
X98063508Y-89741463D01*
X98129644Y-89763999D01*
X98168686Y-89809056D01*
X98173151Y-89817820D01*
X98298090Y-89989786D01*
X98448413Y-90140109D01*
X98620379Y-90265048D01*
X98620381Y-90265049D01*
X98620384Y-90265051D01*
X98809788Y-90361557D01*
X99011957Y-90427246D01*
X99221913Y-90460500D01*
X99221914Y-90460500D01*
X99434486Y-90460500D01*
X99434487Y-90460500D01*
X99644443Y-90427246D01*
X99846612Y-90361557D01*
X100036016Y-90265051D01*
X100122338Y-90202335D01*
X100207986Y-90140109D01*
X100207988Y-90140106D01*
X100207992Y-90140104D01*
X100358304Y-89989792D01*
X100358306Y-89989788D01*
X100358309Y-89989786D01*
X100483248Y-89817820D01*
X100483247Y-89817820D01*
X100483251Y-89817816D01*
X100487714Y-89809054D01*
X100535688Y-89758259D01*
X100603508Y-89741463D01*
X100669644Y-89763999D01*
X100708686Y-89809056D01*
X100713151Y-89817820D01*
X100838090Y-89989786D01*
X100988413Y-90140109D01*
X101160379Y-90265048D01*
X101160381Y-90265049D01*
X101160384Y-90265051D01*
X101349788Y-90361557D01*
X101551957Y-90427246D01*
X101761913Y-90460500D01*
X101761914Y-90460500D01*
X101974486Y-90460500D01*
X101974487Y-90460500D01*
X102159498Y-90431197D01*
X102189255Y-90426484D01*
X102189507Y-90428075D01*
X102252230Y-90431197D01*
X102309057Y-90471847D01*
X102334887Y-90536767D01*
X102321518Y-90605345D01*
X102299105Y-90635972D01*
X98336406Y-94598672D01*
X98275083Y-94632157D01*
X98224541Y-94632610D01*
X98221563Y-94632017D01*
X97974575Y-94599501D01*
X97974570Y-94599500D01*
X97974565Y-94599500D01*
X97725435Y-94599500D01*
X97725429Y-94599500D01*
X97725424Y-94599501D01*
X97478438Y-94632017D01*
X97237792Y-94696498D01*
X97007638Y-94791830D01*
X97007623Y-94791837D01*
X96791873Y-94916400D01*
X96594225Y-95068060D01*
X96594218Y-95068066D01*
X96418066Y-95244218D01*
X96418060Y-95244225D01*
X96266400Y-95441873D01*
X96141837Y-95657623D01*
X96141830Y-95657638D01*
X96046498Y-95887792D01*
X95982017Y-96128438D01*
X95949501Y-96375424D01*
X95949500Y-96375441D01*
X95949500Y-96624558D01*
X95949501Y-96624575D01*
X95971521Y-96791837D01*
X95982018Y-96871565D01*
X95986542Y-96888447D01*
X96046498Y-97112207D01*
X96141830Y-97342361D01*
X96141837Y-97342376D01*
X96266400Y-97558126D01*
X96418060Y-97755774D01*
X96418066Y-97755781D01*
X96594218Y-97931933D01*
X96594225Y-97931939D01*
X96791873Y-98083599D01*
X97007623Y-98208162D01*
X97007638Y-98208169D01*
X97106825Y-98249253D01*
X97237793Y-98303502D01*
X97478435Y-98367982D01*
X97725435Y-98400500D01*
X97725442Y-98400500D01*
X97974558Y-98400500D01*
X97974565Y-98400500D01*
X98221565Y-98367982D01*
X98462207Y-98303502D01*
X98692373Y-98208164D01*
X98908127Y-98083599D01*
X99105776Y-97931938D01*
X99281938Y-97755776D01*
X99433599Y-97558127D01*
X99558164Y-97342373D01*
X99653502Y-97112207D01*
X99717982Y-96871565D01*
X99750500Y-96624565D01*
X99750500Y-96375435D01*
X99717982Y-96128435D01*
X99717977Y-96128417D01*
X99717390Y-96125463D01*
X99717471Y-96124555D01*
X99717452Y-96124410D01*
X99717484Y-96124405D01*
X99723618Y-96055871D01*
X99751325Y-96013593D01*
X105185339Y-90579582D01*
X105248166Y-90485555D01*
X105294832Y-90415714D01*
X105357238Y-90265051D01*
X105370251Y-90233636D01*
X105407008Y-90048843D01*
X105407541Y-90046604D01*
X105423781Y-90018168D01*
X105436214Y-89994400D01*
X105435147Y-89993488D01*
X105438309Y-89989786D01*
X105563248Y-89817820D01*
X105563247Y-89817820D01*
X105563251Y-89817816D01*
X105567714Y-89809054D01*
X105615688Y-89758259D01*
X105683508Y-89741463D01*
X105749644Y-89763999D01*
X105788686Y-89809056D01*
X105793151Y-89817820D01*
X105920959Y-89993734D01*
X105920088Y-89994366D01*
X105946557Y-90053401D01*
X105947700Y-90070199D01*
X105947700Y-91936017D01*
X105928015Y-92003056D01*
X105911381Y-92023698D01*
X103336406Y-94598672D01*
X103275083Y-94632157D01*
X103224541Y-94632610D01*
X103221563Y-94632017D01*
X102974575Y-94599501D01*
X102974570Y-94599500D01*
X102974565Y-94599500D01*
X102725435Y-94599500D01*
X102725429Y-94599500D01*
X102725424Y-94599501D01*
X102478438Y-94632017D01*
X102237792Y-94696498D01*
X102007638Y-94791830D01*
X102007623Y-94791837D01*
X101791873Y-94916400D01*
X101594225Y-95068060D01*
X101594218Y-95068066D01*
X101418066Y-95244218D01*
X101418060Y-95244225D01*
X101266400Y-95441873D01*
X101141837Y-95657623D01*
X101141830Y-95657638D01*
X101046498Y-95887792D01*
X100982017Y-96128438D01*
X100949501Y-96375424D01*
X100949500Y-96375441D01*
X100949500Y-96624558D01*
X100949501Y-96624575D01*
X100971521Y-96791837D01*
X100982018Y-96871565D01*
X100986542Y-96888447D01*
X101046498Y-97112207D01*
X101141830Y-97342361D01*
X101141837Y-97342376D01*
X101266400Y-97558126D01*
X101418060Y-97755774D01*
X101418066Y-97755781D01*
X101594218Y-97931933D01*
X101594225Y-97931939D01*
X101791873Y-98083599D01*
X102007623Y-98208162D01*
X102007638Y-98208169D01*
X102106825Y-98249253D01*
X102237793Y-98303502D01*
X102478435Y-98367982D01*
X102725435Y-98400500D01*
X102725442Y-98400500D01*
X102974558Y-98400500D01*
X102974565Y-98400500D01*
X103221565Y-98367982D01*
X103462207Y-98303502D01*
X103692373Y-98208164D01*
X103908127Y-98083599D01*
X104105776Y-97931938D01*
X104199857Y-97837857D01*
X106699500Y-97837857D01*
X106699500Y-98162143D01*
X106706518Y-98233400D01*
X106731284Y-98484857D01*
X106731287Y-98484874D01*
X106794545Y-98802902D01*
X106794548Y-98802913D01*
X106888686Y-99113247D01*
X107012786Y-99412849D01*
X107012788Y-99412854D01*
X107165646Y-99698830D01*
X107165657Y-99698848D01*
X107345811Y-99968467D01*
X107345821Y-99968481D01*
X107551546Y-100219158D01*
X107780841Y-100448453D01*
X107780846Y-100448457D01*
X107780847Y-100448458D01*
X108031524Y-100654183D01*
X108301158Y-100834347D01*
X108301167Y-100834352D01*
X108301169Y-100834353D01*
X108587145Y-100987211D01*
X108587147Y-100987211D01*
X108587153Y-100987215D01*
X108886754Y-101111314D01*
X109197077Y-101205449D01*
X109197083Y-101205450D01*
X109197086Y-101205451D01*
X109197097Y-101205454D01*
X109396528Y-101245122D01*
X109515132Y-101268714D01*
X109837857Y-101300500D01*
X109837860Y-101300500D01*
X110162140Y-101300500D01*
X110162143Y-101300500D01*
X110484868Y-101268714D01*
X110642295Y-101237399D01*
X110802902Y-101205454D01*
X110802913Y-101205451D01*
X110802913Y-101205450D01*
X110802923Y-101205449D01*
X111113246Y-101111314D01*
X111412847Y-100987215D01*
X111698842Y-100834347D01*
X111968476Y-100654183D01*
X112219153Y-100448458D01*
X112448458Y-100219153D01*
X112654183Y-99968476D01*
X112834347Y-99698842D01*
X112987215Y-99412847D01*
X113111314Y-99113246D01*
X113205449Y-98802923D01*
X113205451Y-98802913D01*
X113205454Y-98802902D01*
X113238335Y-98637595D01*
X113268714Y-98484868D01*
X113300500Y-98162143D01*
X113300500Y-97837857D01*
X113268714Y-97515132D01*
X113233738Y-97339295D01*
X113205454Y-97197097D01*
X113205451Y-97197086D01*
X113205450Y-97197083D01*
X113205449Y-97197077D01*
X113111314Y-96886754D01*
X113105022Y-96871565D01*
X113030022Y-96690498D01*
X112987215Y-96587153D01*
X112930298Y-96480670D01*
X112834353Y-96301169D01*
X112834352Y-96301167D01*
X112834347Y-96301158D01*
X112654183Y-96031524D01*
X112448458Y-95780847D01*
X112448457Y-95780846D01*
X112448453Y-95780841D01*
X112219158Y-95551546D01*
X111968481Y-95345821D01*
X111968480Y-95345820D01*
X111968476Y-95345817D01*
X111698842Y-95165653D01*
X111698837Y-95165650D01*
X111698830Y-95165646D01*
X111412854Y-95012788D01*
X111412849Y-95012786D01*
X111113247Y-94888686D01*
X110802913Y-94794548D01*
X110802902Y-94794545D01*
X110484874Y-94731287D01*
X110484857Y-94731284D01*
X110240812Y-94707248D01*
X110162143Y-94699500D01*
X109837857Y-94699500D01*
X109765099Y-94706666D01*
X109515142Y-94731284D01*
X109515125Y-94731287D01*
X109197097Y-94794545D01*
X109197086Y-94794548D01*
X108886752Y-94888686D01*
X108587150Y-95012786D01*
X108587145Y-95012788D01*
X108301169Y-95165646D01*
X108301151Y-95165657D01*
X108031532Y-95345811D01*
X108031518Y-95345821D01*
X107780841Y-95551546D01*
X107551546Y-95780841D01*
X107345821Y-96031518D01*
X107345811Y-96031532D01*
X107165657Y-96301151D01*
X107165646Y-96301169D01*
X107012788Y-96587145D01*
X107012786Y-96587150D01*
X106894978Y-96871565D01*
X106888686Y-96886754D01*
X106865152Y-96964334D01*
X106794548Y-97197086D01*
X106794545Y-97197097D01*
X106731287Y-97515125D01*
X106731284Y-97515142D01*
X106709187Y-97739500D01*
X106699500Y-97837857D01*
X104199857Y-97837857D01*
X104281938Y-97755776D01*
X104433599Y-97558127D01*
X104558164Y-97342373D01*
X104653502Y-97112207D01*
X104717982Y-96871565D01*
X104750500Y-96624565D01*
X104750500Y-96375435D01*
X104717982Y-96128435D01*
X104717977Y-96128417D01*
X104717390Y-96125463D01*
X104717471Y-96124555D01*
X104717452Y-96124410D01*
X104717484Y-96124405D01*
X104723618Y-96055871D01*
X104751325Y-96013593D01*
X107585978Y-93178941D01*
X107585982Y-93178939D01*
X107725339Y-93039582D01*
X107834832Y-92875714D01*
X107910251Y-92693635D01*
X107911813Y-92685785D01*
X107948700Y-92500340D01*
X107948700Y-92303260D01*
X107948700Y-90070199D01*
X107968385Y-90003160D01*
X107977671Y-89990664D01*
X108103248Y-89817820D01*
X108103247Y-89817820D01*
X108103251Y-89817816D01*
X108107714Y-89809054D01*
X108155688Y-89758259D01*
X108223508Y-89741463D01*
X108289644Y-89763999D01*
X108328686Y-89809056D01*
X108333151Y-89817820D01*
X108458090Y-89989786D01*
X108608413Y-90140109D01*
X108780379Y-90265048D01*
X108780381Y-90265049D01*
X108780384Y-90265051D01*
X108969788Y-90361557D01*
X109171957Y-90427246D01*
X109381913Y-90460500D01*
X109381914Y-90460500D01*
X109594486Y-90460500D01*
X109594487Y-90460500D01*
X109804443Y-90427246D01*
X110006612Y-90361557D01*
X110196016Y-90265051D01*
X110282338Y-90202335D01*
X110367986Y-90140109D01*
X110367988Y-90140106D01*
X110367992Y-90140104D01*
X110518304Y-89989792D01*
X110518306Y-89989788D01*
X110518309Y-89989786D01*
X110643248Y-89817820D01*
X110643247Y-89817820D01*
X110643251Y-89817816D01*
X110739757Y-89628412D01*
X110805446Y-89426243D01*
X110838700Y-89216287D01*
X110838700Y-89003713D01*
X110805446Y-88793757D01*
X110739757Y-88591588D01*
X110643251Y-88402184D01*
X110643249Y-88402181D01*
X110643248Y-88402179D01*
X110518309Y-88230213D01*
X110367986Y-88079890D01*
X110196020Y-87954951D01*
X110006614Y-87858444D01*
X110006613Y-87858443D01*
X110006612Y-87858443D01*
X109804443Y-87792754D01*
X109804441Y-87792753D01*
X109804440Y-87792753D01*
X109643157Y-87767208D01*
X109594487Y-87759500D01*
X109381913Y-87759500D01*
X109333242Y-87767208D01*
X109171960Y-87792753D01*
X108969785Y-87858444D01*
X108780379Y-87954951D01*
X108608413Y-88079890D01*
X108458090Y-88230213D01*
X108333149Y-88402182D01*
X108328684Y-88410946D01*
X108280709Y-88461742D01*
X108212888Y-88478536D01*
X108146753Y-88455998D01*
X108107716Y-88410946D01*
X108103250Y-88402182D01*
X107978309Y-88230213D01*
X107827986Y-88079890D01*
X107656020Y-87954951D01*
X107466614Y-87858444D01*
X107466613Y-87858443D01*
X107466612Y-87858443D01*
X107264443Y-87792754D01*
X107264441Y-87792753D01*
X107264440Y-87792753D01*
X107103157Y-87767208D01*
X107054487Y-87759500D01*
X106841913Y-87759500D01*
X106793242Y-87767208D01*
X106631960Y-87792753D01*
X106429785Y-87858444D01*
X106240379Y-87954951D01*
X106068413Y-88079890D01*
X105918090Y-88230213D01*
X105793149Y-88402182D01*
X105788684Y-88410946D01*
X105740709Y-88461742D01*
X105672888Y-88478536D01*
X105606753Y-88455998D01*
X105567716Y-88410946D01*
X105563250Y-88402182D01*
X105438309Y-88230213D01*
X105287986Y-88079890D01*
X105116020Y-87954951D01*
X104926614Y-87858444D01*
X104926613Y-87858443D01*
X104926612Y-87858443D01*
X104724443Y-87792754D01*
X104724441Y-87792753D01*
X104724440Y-87792753D01*
X104563157Y-87767208D01*
X104514487Y-87759500D01*
X104301913Y-87759500D01*
X104253242Y-87767208D01*
X104091960Y-87792753D01*
X103889785Y-87858444D01*
X103700379Y-87954951D01*
X103528413Y-88079890D01*
X103378090Y-88230213D01*
X103253149Y-88402182D01*
X103248684Y-88410946D01*
X103200709Y-88461742D01*
X103132888Y-88478536D01*
X103066753Y-88455998D01*
X103027716Y-88410946D01*
X103023250Y-88402182D01*
X102898309Y-88230213D01*
X102747986Y-88079890D01*
X102576020Y-87954951D01*
X102386614Y-87858444D01*
X102386613Y-87858443D01*
X102386612Y-87858443D01*
X102184443Y-87792754D01*
X102184441Y-87792753D01*
X102184440Y-87792753D01*
X102023157Y-87767208D01*
X101974487Y-87759500D01*
X101761913Y-87759500D01*
X101713242Y-87767208D01*
X101551960Y-87792753D01*
X101349785Y-87858444D01*
X101160379Y-87954951D01*
X100988413Y-88079890D01*
X100838090Y-88230213D01*
X100713149Y-88402182D01*
X100708684Y-88410946D01*
X100660709Y-88461742D01*
X100592888Y-88478536D01*
X100526753Y-88455998D01*
X100487716Y-88410946D01*
X100483250Y-88402182D01*
X100358309Y-88230213D01*
X100207986Y-88079890D01*
X100036020Y-87954951D01*
X99846614Y-87858444D01*
X99846613Y-87858443D01*
X99846612Y-87858443D01*
X99644443Y-87792754D01*
X99644441Y-87792753D01*
X99644440Y-87792753D01*
X99483157Y-87767208D01*
X99434487Y-87759500D01*
X99221913Y-87759500D01*
X99173242Y-87767208D01*
X99011960Y-87792753D01*
X98809785Y-87858444D01*
X98620379Y-87954951D01*
X98448413Y-88079890D01*
X98298090Y-88230213D01*
X98173149Y-88402182D01*
X98168684Y-88410946D01*
X98120709Y-88461742D01*
X98052888Y-88478536D01*
X97986753Y-88455998D01*
X97947716Y-88410946D01*
X97943250Y-88402182D01*
X97818309Y-88230213D01*
X97667986Y-88079890D01*
X97496020Y-87954951D01*
X97306614Y-87858444D01*
X97306613Y-87858443D01*
X97306612Y-87858443D01*
X97104443Y-87792754D01*
X97104441Y-87792753D01*
X97104440Y-87792753D01*
X96943157Y-87767208D01*
X96894487Y-87759500D01*
X96681913Y-87759500D01*
X96633242Y-87767208D01*
X96471960Y-87792753D01*
X96269785Y-87858444D01*
X96080379Y-87954951D01*
X95908413Y-88079890D01*
X95758090Y-88230213D01*
X95633149Y-88402182D01*
X95628684Y-88410946D01*
X95580709Y-88461742D01*
X95512888Y-88478536D01*
X95446753Y-88455998D01*
X95407716Y-88410946D01*
X95403250Y-88402182D01*
X95278309Y-88230213D01*
X95127986Y-88079890D01*
X94956020Y-87954951D01*
X94766614Y-87858444D01*
X94766613Y-87858443D01*
X94766612Y-87858443D01*
X94564443Y-87792754D01*
X94564441Y-87792753D01*
X94564440Y-87792753D01*
X94403157Y-87767208D01*
X94354487Y-87759500D01*
X94141913Y-87759500D01*
X94093242Y-87767208D01*
X93931960Y-87792753D01*
X93729785Y-87858444D01*
X93540379Y-87954951D01*
X93368415Y-88079889D01*
X93254873Y-88193431D01*
X93193550Y-88226915D01*
X93123858Y-88221931D01*
X93067925Y-88180059D01*
X93051010Y-88149082D01*
X93001997Y-88017671D01*
X93001993Y-88017664D01*
X92915747Y-87902455D01*
X92915744Y-87902452D01*
X92800535Y-87816206D01*
X92800528Y-87816202D01*
X92665682Y-87765908D01*
X92665683Y-87765908D01*
X92606083Y-87759501D01*
X92606081Y-87759500D01*
X92606073Y-87759500D01*
X92606064Y-87759500D01*
X90810329Y-87759500D01*
X90810323Y-87759501D01*
X90750716Y-87765908D01*
X90615871Y-87816202D01*
X90615864Y-87816206D01*
X90500655Y-87902452D01*
X90500652Y-87902455D01*
X90414406Y-88017664D01*
X90414402Y-88017671D01*
X90364108Y-88152517D01*
X90357701Y-88212116D01*
X90357700Y-88212135D01*
X90357700Y-90007870D01*
X90357701Y-90007876D01*
X90364108Y-90067483D01*
X90414402Y-90202328D01*
X90414406Y-90202335D01*
X90500652Y-90317544D01*
X90500655Y-90317547D01*
X90615865Y-90403794D01*
X90615867Y-90403794D01*
X90615869Y-90403796D01*
X90627030Y-90407958D01*
X90682964Y-90449826D01*
X90707384Y-90515289D01*
X90707700Y-90524141D01*
X90707700Y-92176017D01*
X90688015Y-92243056D01*
X90671381Y-92263698D01*
X88371899Y-94563181D01*
X88310576Y-94596666D01*
X88284218Y-94599500D01*
X86850098Y-94599500D01*
X86783059Y-94579815D01*
X86762417Y-94563181D01*
X85295090Y-93095855D01*
X85295088Y-93095852D01*
X85176217Y-92976981D01*
X85176209Y-92976975D01*
X85069225Y-92915208D01*
X85069225Y-92915209D01*
X85039288Y-92897925D01*
X85039285Y-92897923D01*
X85039284Y-92897922D01*
X85039283Y-92897922D01*
X84983381Y-92882943D01*
X84886557Y-92856999D01*
X84728443Y-92856999D01*
X84720847Y-92856999D01*
X84720831Y-92857000D01*
X83598768Y-92857000D01*
X83531729Y-92837315D01*
X83493229Y-92798097D01*
X83472751Y-92764896D01*
X83402712Y-92651344D01*
X83278656Y-92527288D01*
X83176158Y-92464067D01*
X83129336Y-92435187D01*
X83129331Y-92435185D01*
X83086125Y-92420868D01*
X82962797Y-92380001D01*
X82962795Y-92380000D01*
X82860010Y-92369500D01*
X81809998Y-92369500D01*
X81809980Y-92369501D01*
X81707203Y-92380000D01*
X81707200Y-92380001D01*
X81540668Y-92435185D01*
X81540659Y-92435189D01*
X81410096Y-92515721D01*
X81342704Y-92534161D01*
X81279904Y-92515721D01*
X81149340Y-92435189D01*
X81149335Y-92435187D01*
X81149334Y-92435186D01*
X80982797Y-92380001D01*
X80982795Y-92380000D01*
X80880010Y-92369500D01*
X79829998Y-92369500D01*
X79829980Y-92369501D01*
X79727203Y-92380000D01*
X79727200Y-92380001D01*
X79560668Y-92435185D01*
X79560663Y-92435187D01*
X79411342Y-92527289D01*
X79287289Y-92651342D01*
X79195187Y-92800663D01*
X79195185Y-92800668D01*
X79167349Y-92884670D01*
X79150831Y-92934522D01*
X79140001Y-92967204D01*
X79139999Y-92967208D01*
X79139906Y-92968128D01*
X79139689Y-92968657D01*
X79138583Y-92973827D01*
X79137660Y-92973629D01*
X79113503Y-93032817D01*
X79056318Y-93072963D01*
X78986507Y-93075819D01*
X78961455Y-93066601D01*
X78803697Y-92988360D01*
X78618892Y-92942400D01*
X78597506Y-92940950D01*
X78576123Y-92939500D01*
X78576120Y-92939500D01*
X77173877Y-92939500D01*
X77173874Y-92939501D01*
X77131113Y-92942399D01*
X77131112Y-92942399D01*
X76946303Y-92988360D01*
X76775707Y-93072967D01*
X76775704Y-93072969D01*
X76627278Y-93192277D01*
X76627277Y-93192278D01*
X76507969Y-93340704D01*
X76507967Y-93340707D01*
X76423360Y-93511302D01*
X76377400Y-93696107D01*
X76374500Y-93738879D01*
X76374500Y-94641122D01*
X76374501Y-94641125D01*
X76377399Y-94683886D01*
X76377399Y-94683887D01*
X76423360Y-94868696D01*
X76507967Y-95039292D01*
X76507969Y-95039295D01*
X76627277Y-95187721D01*
X76627278Y-95187722D01*
X76696486Y-95243353D01*
X76736405Y-95300696D01*
X76738985Y-95370518D01*
X76703406Y-95430651D01*
X76696486Y-95436647D01*
X76627278Y-95492277D01*
X76627277Y-95492278D01*
X76507969Y-95640704D01*
X76507967Y-95640707D01*
X76420372Y-95817329D01*
X76418464Y-95816382D01*
X76382869Y-95864410D01*
X76317522Y-95889140D01*
X76308084Y-95889500D01*
X73199499Y-95889500D01*
X73132460Y-95869815D01*
X73086705Y-95817011D01*
X73075499Y-95765500D01*
X73075499Y-95031971D01*
X73075499Y-95031964D01*
X73064886Y-94912582D01*
X73008909Y-94716951D01*
X72914698Y-94536593D01*
X72816000Y-94415549D01*
X72786109Y-94378890D01*
X72662549Y-94278141D01*
X72628407Y-94250302D01*
X72448049Y-94156091D01*
X72448048Y-94156090D01*
X72448045Y-94156089D01*
X72328938Y-94122009D01*
X72252418Y-94100114D01*
X72252415Y-94100113D01*
X72252413Y-94100113D01*
X72186102Y-94094217D01*
X72133037Y-94089500D01*
X72133032Y-94089500D01*
X71016971Y-94089500D01*
X71016965Y-94089500D01*
X71016964Y-94089501D01*
X71011351Y-94090000D01*
X70897584Y-94100113D01*
X70701954Y-94156089D01*
X70646140Y-94185244D01*
X70521593Y-94250302D01*
X70521591Y-94250303D01*
X70521590Y-94250304D01*
X70363890Y-94378890D01*
X70248287Y-94520668D01*
X70235302Y-94536593D01*
X70141091Y-94716951D01*
X70141090Y-94716953D01*
X70138180Y-94722525D01*
X70135668Y-94721212D01*
X70100028Y-94766518D01*
X70033997Y-94789360D01*
X70028116Y-94789500D01*
X68997163Y-94789500D01*
X68930124Y-94769815D01*
X68884369Y-94717011D01*
X68875911Y-94691459D01*
X68875000Y-94687207D01*
X68873900Y-94683886D01*
X68819814Y-94520666D01*
X68727712Y-94371344D01*
X68603656Y-94247288D01*
X68503066Y-94185244D01*
X68454336Y-94155187D01*
X68454331Y-94155185D01*
X68452862Y-94154698D01*
X68287797Y-94100001D01*
X68287795Y-94100000D01*
X68185010Y-94089500D01*
X66984998Y-94089500D01*
X66984981Y-94089501D01*
X66882203Y-94100000D01*
X66882200Y-94100001D01*
X66715668Y-94155185D01*
X66715663Y-94155187D01*
X66566342Y-94247289D01*
X66442289Y-94371342D01*
X66350187Y-94520663D01*
X66350185Y-94520668D01*
X66324624Y-94597807D01*
X66295001Y-94687203D01*
X66295001Y-94687204D01*
X66295000Y-94687204D01*
X66284500Y-94789983D01*
X66284500Y-95990001D01*
X66284501Y-95990018D01*
X66295000Y-96092796D01*
X66295001Y-96092799D01*
X66336393Y-96217709D01*
X66338795Y-96287537D01*
X66306368Y-96344394D01*
X64947584Y-97703181D01*
X64886261Y-97736666D01*
X64859903Y-97739500D01*
X64004984Y-97739500D01*
X63941476Y-97743507D01*
X63802770Y-97781714D01*
X63802758Y-97781719D01*
X63680433Y-97857460D01*
X63584395Y-97964603D01*
X63084407Y-98714585D01*
X63075213Y-98728890D01*
X63017651Y-98860755D01*
X62999570Y-99003490D01*
X46144608Y-99003490D01*
X46205449Y-98802923D01*
X46205451Y-98802913D01*
X46205454Y-98802902D01*
X46238335Y-98637595D01*
X46268714Y-98484868D01*
X46300500Y-98162143D01*
X46300500Y-97837857D01*
X46268714Y-97515132D01*
X46233738Y-97339295D01*
X46205454Y-97197097D01*
X46205451Y-97197086D01*
X46205450Y-97197083D01*
X46205449Y-97197077D01*
X46111314Y-96886754D01*
X46105022Y-96871565D01*
X46030022Y-96690498D01*
X45987215Y-96587153D01*
X45958115Y-96532710D01*
X45930299Y-96480670D01*
X45930298Y-96480669D01*
X45920920Y-96463125D01*
X45834347Y-96301158D01*
X45654183Y-96031524D01*
X45448458Y-95780847D01*
X45448457Y-95780846D01*
X45448453Y-95780841D01*
X45219158Y-95551546D01*
X44968481Y-95345821D01*
X44968480Y-95345820D01*
X44968476Y-95345817D01*
X44698842Y-95165653D01*
X44698837Y-95165650D01*
X44698830Y-95165646D01*
X44412854Y-95012788D01*
X44412849Y-95012786D01*
X44113247Y-94888686D01*
X43802913Y-94794548D01*
X43802902Y-94794545D01*
X43484874Y-94731287D01*
X43484857Y-94731284D01*
X43240812Y-94707248D01*
X43162143Y-94699500D01*
X42837857Y-94699500D01*
X42765099Y-94706666D01*
X42515142Y-94731284D01*
X42515125Y-94731287D01*
X42197097Y-94794545D01*
X42197086Y-94794548D01*
X41886752Y-94888686D01*
X41587150Y-95012786D01*
X41587145Y-95012788D01*
X41301169Y-95165646D01*
X41301151Y-95165657D01*
X41031532Y-95345811D01*
X41031518Y-95345821D01*
X40780841Y-95551546D01*
X40551546Y-95780841D01*
X40345821Y-96031518D01*
X40345811Y-96031532D01*
X40165657Y-96301151D01*
X40165646Y-96301169D01*
X40012788Y-96587145D01*
X40012786Y-96587150D01*
X39894978Y-96871565D01*
X39888686Y-96886754D01*
X39865152Y-96964334D01*
X39794548Y-97197086D01*
X39794545Y-97197097D01*
X39731287Y-97515125D01*
X39731284Y-97515142D01*
X39709187Y-97739500D01*
X39699500Y-97837857D01*
X39200500Y-97837857D01*
X39200500Y-90612953D01*
X39786739Y-90612953D01*
X39792922Y-90691522D01*
X39841890Y-90874274D01*
X39927783Y-91042851D01*
X39927785Y-91042854D01*
X40046852Y-91189886D01*
X40193884Y-91308953D01*
X40193887Y-91308955D01*
X40362464Y-91394848D01*
X40545216Y-91443816D01*
X40623785Y-91449999D01*
X40623799Y-91450000D01*
X40836839Y-91450000D01*
X40836839Y-89900000D01*
X39786739Y-89900000D01*
X39786739Y-90612953D01*
X39200500Y-90612953D01*
X39200500Y-72246973D01*
X39786339Y-72246973D01*
X39786339Y-74173010D01*
X39786340Y-74173029D01*
X39792526Y-74251643D01*
X39813964Y-74331650D01*
X39841519Y-74434488D01*
X39863622Y-74477868D01*
X39927453Y-74603146D01*
X39933397Y-74610486D01*
X40046582Y-74750257D01*
X40141948Y-74827483D01*
X40193692Y-74869385D01*
X40253983Y-74900104D01*
X40362351Y-74955320D01*
X40545194Y-75004312D01*
X40623818Y-75010500D01*
X41549859Y-75010499D01*
X41628484Y-75004312D01*
X41811327Y-74955320D01*
X41939847Y-74889835D01*
X41979985Y-74869385D01*
X41979986Y-74869383D01*
X41979988Y-74869383D01*
X42127096Y-74750257D01*
X42246222Y-74603149D01*
X42246353Y-74602892D01*
X42246469Y-74602768D01*
X42249764Y-74597696D01*
X42250691Y-74598298D01*
X42294327Y-74552095D01*
X42362148Y-74535299D01*
X42428283Y-74557835D01*
X42463215Y-74598149D01*
X42463914Y-74597696D01*
X42467179Y-74602724D01*
X42467325Y-74602892D01*
X42467455Y-74603148D01*
X42473396Y-74610484D01*
X42586582Y-74750257D01*
X42681948Y-74827483D01*
X42733692Y-74869385D01*
X42793983Y-74900104D01*
X42902351Y-74955320D01*
X43085194Y-75004312D01*
X43163818Y-75010500D01*
X44089859Y-75010499D01*
X44168484Y-75004312D01*
X44351327Y-74955320D01*
X44479847Y-74889835D01*
X44519985Y-74869385D01*
X44519986Y-74869383D01*
X44519988Y-74869383D01*
X44667096Y-74750257D01*
X44786222Y-74603149D01*
X44786353Y-74602892D01*
X44786469Y-74602768D01*
X44789764Y-74597696D01*
X44790691Y-74598298D01*
X44834327Y-74552095D01*
X44902148Y-74535299D01*
X44968283Y-74557835D01*
X45003215Y-74598149D01*
X45003914Y-74597696D01*
X45007179Y-74602724D01*
X45007325Y-74602892D01*
X45007455Y-74603148D01*
X45013396Y-74610484D01*
X45126582Y-74750257D01*
X45221948Y-74827483D01*
X45273692Y-74869385D01*
X45333983Y-74900104D01*
X45442351Y-74955320D01*
X45625194Y-75004312D01*
X45703818Y-75010500D01*
X46629859Y-75010499D01*
X46708484Y-75004312D01*
X46891327Y-74955320D01*
X47019847Y-74889835D01*
X47059985Y-74869385D01*
X47059986Y-74869383D01*
X47059988Y-74869383D01*
X47207096Y-74750257D01*
X47326222Y-74603149D01*
X47326353Y-74602892D01*
X47326469Y-74602768D01*
X47329764Y-74597696D01*
X47330691Y-74598298D01*
X47374327Y-74552095D01*
X47442148Y-74535299D01*
X47508283Y-74557835D01*
X47543215Y-74598149D01*
X47543914Y-74597696D01*
X47547179Y-74602724D01*
X47547325Y-74602892D01*
X47547455Y-74603148D01*
X47553396Y-74610484D01*
X47666582Y-74750257D01*
X47761948Y-74827483D01*
X47813692Y-74869385D01*
X47927604Y-74927425D01*
X47982351Y-74955320D01*
X48014434Y-74963916D01*
X48074091Y-75000278D01*
X48104622Y-75063124D01*
X48106339Y-75083690D01*
X48106339Y-82297073D01*
X48086654Y-82364112D01*
X48085441Y-82365964D01*
X47997448Y-82497653D01*
X47997441Y-82497666D01*
X47937103Y-82643337D01*
X47937100Y-82643349D01*
X47906339Y-82797992D01*
X47906339Y-82955685D01*
X47937100Y-83110328D01*
X47937103Y-83110340D01*
X47997441Y-83256011D01*
X47997448Y-83256024D01*
X48085049Y-83387127D01*
X48085052Y-83387131D01*
X48196546Y-83498625D01*
X48196550Y-83498628D01*
X48327653Y-83586229D01*
X48327666Y-83586236D01*
X48473337Y-83646574D01*
X48473342Y-83646576D01*
X48627992Y-83677338D01*
X48627995Y-83677339D01*
X48627997Y-83677339D01*
X48785683Y-83677339D01*
X48785684Y-83677338D01*
X48940336Y-83646576D01*
X49053005Y-83599906D01*
X49086011Y-83586236D01*
X49086011Y-83586235D01*
X49086018Y-83586233D01*
X49217128Y-83498628D01*
X49328628Y-83387128D01*
X49416233Y-83256018D01*
X49476576Y-83110336D01*
X49507339Y-82955681D01*
X49507339Y-82797997D01*
X49507339Y-82797994D01*
X49507338Y-82797992D01*
X49480507Y-82663106D01*
X49476576Y-82643342D01*
X49470518Y-82628717D01*
X49416236Y-82497666D01*
X49416229Y-82497653D01*
X49328237Y-82365964D01*
X49307359Y-82299286D01*
X49307339Y-82297073D01*
X49307339Y-75083690D01*
X49327024Y-75016651D01*
X49379828Y-74970896D01*
X49399232Y-74963919D01*
X49431327Y-74955320D01*
X49559117Y-74890208D01*
X49599985Y-74869385D01*
X49599986Y-74869383D01*
X49599988Y-74869383D01*
X49747096Y-74750257D01*
X49866222Y-74603149D01*
X49866353Y-74602892D01*
X49866469Y-74602768D01*
X49869764Y-74597696D01*
X49870691Y-74598298D01*
X49914327Y-74552095D01*
X49982148Y-74535299D01*
X50048283Y-74557835D01*
X50083215Y-74598149D01*
X50083914Y-74597696D01*
X50087179Y-74602724D01*
X50087325Y-74602892D01*
X50087455Y-74603148D01*
X50093396Y-74610484D01*
X50206582Y-74750257D01*
X50301948Y-74827483D01*
X50353692Y-74869385D01*
X50413983Y-74900104D01*
X50522351Y-74955320D01*
X50705194Y-75004312D01*
X50783818Y-75010500D01*
X51709859Y-75010499D01*
X51788484Y-75004312D01*
X51971327Y-74955320D01*
X52099847Y-74889835D01*
X52139985Y-74869385D01*
X52139986Y-74869383D01*
X52139988Y-74869383D01*
X52287096Y-74750257D01*
X52406222Y-74603149D01*
X52406305Y-74602985D01*
X52406380Y-74602906D01*
X52409764Y-74597696D01*
X52410715Y-74598314D01*
X52454268Y-74552184D01*
X52522086Y-74535376D01*
X52588225Y-74557901D01*
X52623104Y-74598145D01*
X52623825Y-74597677D01*
X52627190Y-74602860D01*
X52627280Y-74602963D01*
X52627361Y-74603122D01*
X52627363Y-74603126D01*
X52693190Y-74684414D01*
X52746497Y-74750242D01*
X52777051Y-74774984D01*
X52893612Y-74869375D01*
X52893614Y-74869376D01*
X52934500Y-74890208D01*
X53062283Y-74955316D01*
X53245136Y-75004312D01*
X53323764Y-75010500D01*
X54249913Y-75010499D01*
X54328542Y-75004312D01*
X54511395Y-74955316D01*
X54680065Y-74869375D01*
X54827181Y-74750242D01*
X54946314Y-74603126D01*
X54946351Y-74603052D01*
X54946385Y-74603016D01*
X54949853Y-74597677D01*
X54950829Y-74598310D01*
X54994323Y-74552255D01*
X55062143Y-74535455D01*
X55128279Y-74557989D01*
X55163085Y-74598157D01*
X55163825Y-74597677D01*
X55167283Y-74603002D01*
X55167327Y-74603053D01*
X55167365Y-74603128D01*
X55219004Y-74666896D01*
X55286497Y-74750242D01*
X55317051Y-74774984D01*
X55433612Y-74869375D01*
X55433614Y-74869376D01*
X55474500Y-74890208D01*
X55602283Y-74955316D01*
X55631270Y-74963083D01*
X55637592Y-74964777D01*
X55697253Y-75001141D01*
X55727783Y-75063988D01*
X55729500Y-75084552D01*
X55729500Y-82300234D01*
X55709815Y-82367273D01*
X55708602Y-82369125D01*
X55620612Y-82500811D01*
X55620602Y-82500827D01*
X55560264Y-82646498D01*
X55560261Y-82646510D01*
X55529500Y-82801153D01*
X55529500Y-82958846D01*
X55560261Y-83113489D01*
X55560264Y-83113501D01*
X55620602Y-83259172D01*
X55620609Y-83259185D01*
X55708210Y-83390288D01*
X55708213Y-83390292D01*
X55819707Y-83501786D01*
X55819711Y-83501789D01*
X55950814Y-83589390D01*
X55950827Y-83589397D01*
X56088874Y-83646577D01*
X56096503Y-83649737D01*
X56235262Y-83677338D01*
X56251153Y-83680499D01*
X56251156Y-83680500D01*
X56251158Y-83680500D01*
X56408844Y-83680500D01*
X56408845Y-83680499D01*
X56563497Y-83649737D01*
X56709179Y-83589394D01*
X56840289Y-83501789D01*
X56951789Y-83390289D01*
X57039394Y-83259179D01*
X57099737Y-83113497D01*
X57130500Y-82958842D01*
X57130500Y-82801158D01*
X57130500Y-82801155D01*
X57130499Y-82801153D01*
X57117717Y-82736894D01*
X57099737Y-82646503D01*
X57076132Y-82589515D01*
X57039397Y-82500827D01*
X57039388Y-82500811D01*
X56951398Y-82369125D01*
X56930520Y-82302447D01*
X56930500Y-82300234D01*
X56930500Y-75082858D01*
X56950185Y-75015819D01*
X57002989Y-74970064D01*
X57022408Y-74963083D01*
X57051395Y-74955316D01*
X57220065Y-74869375D01*
X57367181Y-74750242D01*
X57486314Y-74603126D01*
X57486351Y-74603052D01*
X57486385Y-74603016D01*
X57489853Y-74597677D01*
X57490829Y-74598310D01*
X57534323Y-74552255D01*
X57602143Y-74535455D01*
X57668279Y-74557989D01*
X57703085Y-74598157D01*
X57703825Y-74597677D01*
X57707283Y-74603002D01*
X57707327Y-74603053D01*
X57707365Y-74603128D01*
X57759004Y-74666896D01*
X57826497Y-74750242D01*
X57857051Y-74774984D01*
X57973612Y-74869375D01*
X57973614Y-74869376D01*
X58033932Y-74900109D01*
X58142283Y-74955316D01*
X58171270Y-74963083D01*
X58174431Y-74963930D01*
X58234092Y-75000294D01*
X58264622Y-75063141D01*
X58266339Y-75083705D01*
X58266339Y-82815786D01*
X58266338Y-82815804D01*
X58266338Y-82981510D01*
X58266337Y-82981510D01*
X58266338Y-82981513D01*
X58301701Y-83113489D01*
X58307263Y-83134243D01*
X58320703Y-83157521D01*
X58320704Y-83157523D01*
X58386316Y-83271168D01*
X58386320Y-83271173D01*
X58505188Y-83390041D01*
X58505194Y-83390046D01*
X60560422Y-85445274D01*
X60593907Y-85506597D01*
X60588923Y-85576289D01*
X60569112Y-85610985D01*
X60556466Y-85626602D01*
X60471132Y-85794083D01*
X60422482Y-85975647D01*
X60422482Y-85975648D01*
X60416339Y-86053705D01*
X60416339Y-86966278D01*
X60416340Y-86966297D01*
X60422482Y-87044352D01*
X60471132Y-87225916D01*
X60556465Y-87393396D01*
X60591931Y-87437192D01*
X60674761Y-87539478D01*
X60820840Y-87657771D01*
X60825891Y-87661861D01*
X60824085Y-87664090D01*
X60861428Y-87707562D01*
X60871074Y-87776763D01*
X60841776Y-87840193D01*
X60782837Y-87877715D01*
X60780508Y-87878364D01*
X60682282Y-87904684D01*
X60513614Y-87990623D01*
X60513612Y-87990624D01*
X60366497Y-88109758D01*
X60247363Y-88256873D01*
X60247323Y-88256953D01*
X60247288Y-88256989D01*
X60243825Y-88262323D01*
X60242849Y-88261689D01*
X60199348Y-88307749D01*
X60131527Y-88324543D01*
X60065392Y-88302005D01*
X60030592Y-88261843D01*
X60029853Y-88262323D01*
X60026398Y-88257002D01*
X60026355Y-88256953D01*
X60026315Y-88256875D01*
X60026314Y-88256873D01*
X59964110Y-88180059D01*
X59907181Y-88109758D01*
X59841353Y-88056451D01*
X59760065Y-87990624D01*
X59760063Y-87990623D01*
X59649053Y-87934062D01*
X59591395Y-87904684D01*
X59490747Y-87877715D01*
X59408540Y-87855687D01*
X59336267Y-87850000D01*
X59329914Y-87849500D01*
X59329913Y-87849500D01*
X58403774Y-87849500D01*
X58403755Y-87849501D01*
X58325139Y-87855687D01*
X58142283Y-87904684D01*
X57973614Y-87990623D01*
X57973612Y-87990624D01*
X57826497Y-88109758D01*
X57707363Y-88256873D01*
X57707323Y-88256953D01*
X57707288Y-88256989D01*
X57703825Y-88262323D01*
X57702849Y-88261689D01*
X57659348Y-88307749D01*
X57591527Y-88324543D01*
X57525392Y-88302005D01*
X57490592Y-88261843D01*
X57489853Y-88262323D01*
X57486398Y-88257002D01*
X57486355Y-88256953D01*
X57486315Y-88256875D01*
X57486314Y-88256873D01*
X57424110Y-88180059D01*
X57367181Y-88109758D01*
X57301353Y-88056451D01*
X57220065Y-87990624D01*
X57220063Y-87990623D01*
X57109053Y-87934062D01*
X57051395Y-87904684D01*
X56950747Y-87877715D01*
X56868540Y-87855687D01*
X56796267Y-87850000D01*
X56789914Y-87849500D01*
X56789913Y-87849500D01*
X55863774Y-87849500D01*
X55863755Y-87849501D01*
X55785139Y-87855687D01*
X55602283Y-87904684D01*
X55433614Y-87990623D01*
X55433612Y-87990624D01*
X55286497Y-88109758D01*
X55167363Y-88256873D01*
X55167323Y-88256953D01*
X55167288Y-88256989D01*
X55163825Y-88262323D01*
X55162849Y-88261689D01*
X55119348Y-88307749D01*
X55051527Y-88324543D01*
X54985392Y-88302005D01*
X54950592Y-88261843D01*
X54949853Y-88262323D01*
X54946398Y-88257002D01*
X54946355Y-88256953D01*
X54946315Y-88256875D01*
X54946314Y-88256873D01*
X54884110Y-88180059D01*
X54827181Y-88109758D01*
X54761353Y-88056451D01*
X54680065Y-87990624D01*
X54680063Y-87990623D01*
X54569053Y-87934062D01*
X54511395Y-87904684D01*
X54410747Y-87877715D01*
X54328540Y-87855687D01*
X54256267Y-87850000D01*
X54249914Y-87849500D01*
X54249913Y-87849500D01*
X53323774Y-87849500D01*
X53323755Y-87849501D01*
X53245139Y-87855687D01*
X53062283Y-87904684D01*
X52893614Y-87990623D01*
X52893612Y-87990624D01*
X52746497Y-88109758D01*
X52627363Y-88256873D01*
X52627323Y-88256953D01*
X52627288Y-88256989D01*
X52623825Y-88262323D01*
X52622849Y-88261689D01*
X52579348Y-88307749D01*
X52511527Y-88324543D01*
X52445392Y-88302005D01*
X52410592Y-88261843D01*
X52409853Y-88262323D01*
X52406398Y-88257002D01*
X52406355Y-88256953D01*
X52406315Y-88256875D01*
X52406314Y-88256873D01*
X52344110Y-88180059D01*
X52287181Y-88109758D01*
X52221353Y-88056451D01*
X52140065Y-87990624D01*
X52140063Y-87990623D01*
X52029053Y-87934062D01*
X51971395Y-87904684D01*
X51870747Y-87877715D01*
X51788540Y-87855687D01*
X51716267Y-87850000D01*
X51709914Y-87849500D01*
X51709913Y-87849500D01*
X50783774Y-87849500D01*
X50783755Y-87849501D01*
X50705139Y-87855687D01*
X50522283Y-87904684D01*
X50353614Y-87990623D01*
X50353612Y-87990624D01*
X50206497Y-88109758D01*
X50087363Y-88256873D01*
X50087323Y-88256953D01*
X50087288Y-88256989D01*
X50083825Y-88262323D01*
X50082849Y-88261689D01*
X50039348Y-88307749D01*
X49971527Y-88324543D01*
X49905392Y-88302005D01*
X49870592Y-88261843D01*
X49869853Y-88262323D01*
X49866398Y-88257002D01*
X49866355Y-88256953D01*
X49866315Y-88256875D01*
X49866314Y-88256873D01*
X49804110Y-88180059D01*
X49747181Y-88109758D01*
X49681353Y-88056451D01*
X49600065Y-87990624D01*
X49600063Y-87990623D01*
X49489053Y-87934062D01*
X49431395Y-87904684D01*
X49330747Y-87877715D01*
X49248540Y-87855687D01*
X49176267Y-87850000D01*
X49169914Y-87849500D01*
X49169913Y-87849500D01*
X48243774Y-87849500D01*
X48243755Y-87849501D01*
X48165139Y-87855687D01*
X47982283Y-87904684D01*
X47813614Y-87990623D01*
X47813612Y-87990624D01*
X47666497Y-88109758D01*
X47547363Y-88256873D01*
X47547323Y-88256953D01*
X47547288Y-88256989D01*
X47543825Y-88262323D01*
X47542849Y-88261689D01*
X47499348Y-88307749D01*
X47431527Y-88324543D01*
X47365392Y-88302005D01*
X47330592Y-88261843D01*
X47329853Y-88262323D01*
X47326398Y-88257002D01*
X47326355Y-88256953D01*
X47326315Y-88256875D01*
X47326314Y-88256873D01*
X47264110Y-88180059D01*
X47207181Y-88109758D01*
X47141353Y-88056451D01*
X47060065Y-87990624D01*
X47060063Y-87990623D01*
X46949053Y-87934062D01*
X46891395Y-87904684D01*
X46790747Y-87877715D01*
X46708540Y-87855687D01*
X46636267Y-87850000D01*
X46629914Y-87849500D01*
X46629913Y-87849500D01*
X45703774Y-87849500D01*
X45703755Y-87849501D01*
X45625139Y-87855687D01*
X45442283Y-87904684D01*
X45273614Y-87990623D01*
X45273612Y-87990624D01*
X45126497Y-88109758D01*
X45007363Y-88256873D01*
X45007323Y-88256953D01*
X45007288Y-88256989D01*
X45003825Y-88262323D01*
X45002849Y-88261689D01*
X44959348Y-88307749D01*
X44891527Y-88324543D01*
X44825392Y-88302005D01*
X44790592Y-88261843D01*
X44789853Y-88262323D01*
X44786398Y-88257002D01*
X44786355Y-88256953D01*
X44786315Y-88256875D01*
X44786314Y-88256873D01*
X44724110Y-88180059D01*
X44667181Y-88109758D01*
X44601353Y-88056451D01*
X44520065Y-87990624D01*
X44520063Y-87990623D01*
X44409053Y-87934062D01*
X44351395Y-87904684D01*
X44250747Y-87877715D01*
X44168540Y-87855687D01*
X44096267Y-87850000D01*
X44089914Y-87849500D01*
X44089913Y-87849500D01*
X43163774Y-87849500D01*
X43163755Y-87849501D01*
X43085139Y-87855687D01*
X42902283Y-87904684D01*
X42733614Y-87990623D01*
X42733612Y-87990624D01*
X42586497Y-88109758D01*
X42467363Y-88256873D01*
X42467357Y-88256882D01*
X42467033Y-88257520D01*
X42466748Y-88257821D01*
X42463825Y-88262323D01*
X42463000Y-88261787D01*
X42419050Y-88308307D01*
X42351226Y-88325091D01*
X42285095Y-88302542D01*
X42250108Y-88262156D01*
X42249432Y-88262596D01*
X42246265Y-88257719D01*
X42246069Y-88257493D01*
X42245891Y-88257143D01*
X42126825Y-88110113D01*
X41979793Y-87991046D01*
X41979790Y-87991044D01*
X41811213Y-87905151D01*
X41628461Y-87856183D01*
X41549892Y-87850000D01*
X41336839Y-87850000D01*
X41336839Y-88734314D01*
X41332445Y-88729920D01*
X41241233Y-88677259D01*
X41139500Y-88650000D01*
X41034178Y-88650000D01*
X40932445Y-88677259D01*
X40841233Y-88729920D01*
X40836839Y-88734314D01*
X40836839Y-87850000D01*
X40623785Y-87850000D01*
X40545216Y-87856183D01*
X40362464Y-87905151D01*
X40193887Y-87991044D01*
X40193884Y-87991046D01*
X40046852Y-88110113D01*
X39927785Y-88257145D01*
X39927783Y-88257148D01*
X39841890Y-88425725D01*
X39792922Y-88608477D01*
X39786739Y-88687046D01*
X39786739Y-89400000D01*
X40836839Y-89400000D01*
X40836839Y-89365686D01*
X40841233Y-89370080D01*
X40932445Y-89422741D01*
X41034178Y-89450000D01*
X41139500Y-89450000D01*
X41241233Y-89422741D01*
X41332445Y-89370080D01*
X41336839Y-89365686D01*
X41336839Y-91450000D01*
X41549879Y-91450000D01*
X41549892Y-91449999D01*
X41628461Y-91443816D01*
X41811213Y-91394848D01*
X41979790Y-91308955D01*
X41979793Y-91308953D01*
X42126825Y-91189886D01*
X42245891Y-91042855D01*
X42246066Y-91042513D01*
X42246220Y-91042349D01*
X42249432Y-91037404D01*
X42250335Y-91037990D01*
X42294033Y-90991711D01*
X42361852Y-90974906D01*
X42427990Y-90997435D01*
X42463213Y-91038074D01*
X42463825Y-91037677D01*
X42466681Y-91042076D01*
X42467037Y-91042486D01*
X42467361Y-91043123D01*
X42467363Y-91043126D01*
X42533190Y-91124414D01*
X42586497Y-91190242D01*
X42667785Y-91256068D01*
X42733612Y-91309375D01*
X42733614Y-91309376D01*
X42789118Y-91337656D01*
X42902283Y-91395316D01*
X43085136Y-91444312D01*
X43163764Y-91450500D01*
X44089913Y-91450499D01*
X44168542Y-91444312D01*
X44351395Y-91395316D01*
X44520065Y-91309375D01*
X44667181Y-91190242D01*
X44786314Y-91043126D01*
X44786351Y-91043052D01*
X44786385Y-91043016D01*
X44789853Y-91037677D01*
X44790829Y-91038310D01*
X44834323Y-90992255D01*
X44902143Y-90975455D01*
X44968279Y-90997989D01*
X45003085Y-91038157D01*
X45003825Y-91037677D01*
X45007283Y-91043002D01*
X45007327Y-91043053D01*
X45007365Y-91043128D01*
X45059004Y-91106896D01*
X45126497Y-91190242D01*
X45207785Y-91256068D01*
X45273612Y-91309375D01*
X45273614Y-91309376D01*
X45329118Y-91337656D01*
X45442283Y-91395316D01*
X45625136Y-91444312D01*
X45703764Y-91450500D01*
X46629913Y-91450499D01*
X46708542Y-91444312D01*
X46891395Y-91395316D01*
X47060065Y-91309375D01*
X47207181Y-91190242D01*
X47326314Y-91043126D01*
X47326351Y-91043052D01*
X47326385Y-91043016D01*
X47329853Y-91037677D01*
X47330829Y-91038310D01*
X47374323Y-90992255D01*
X47442143Y-90975455D01*
X47508279Y-90997989D01*
X47543085Y-91038157D01*
X47543825Y-91037677D01*
X47547283Y-91043002D01*
X47547327Y-91043053D01*
X47547365Y-91043128D01*
X47599004Y-91106896D01*
X47666497Y-91190242D01*
X47747785Y-91256068D01*
X47813612Y-91309375D01*
X47813614Y-91309376D01*
X47869118Y-91337656D01*
X47982283Y-91395316D01*
X48165136Y-91444312D01*
X48243764Y-91450500D01*
X49144902Y-91450499D01*
X49211941Y-91470183D01*
X49232583Y-91486818D01*
X49979685Y-92233920D01*
X50013170Y-92295243D01*
X50008186Y-92364935D01*
X49966314Y-92420868D01*
X49911402Y-92444074D01*
X49698760Y-92477753D01*
X49496585Y-92543444D01*
X49307179Y-92639951D01*
X49135213Y-92764890D01*
X49135209Y-92764894D01*
X48984896Y-92915208D01*
X48984890Y-92915213D01*
X48859951Y-93087179D01*
X48763444Y-93276585D01*
X48697753Y-93478760D01*
X48688069Y-93539905D01*
X48664500Y-93688713D01*
X48664500Y-94151287D01*
X48665118Y-94155186D01*
X48689720Y-94310523D01*
X48697754Y-94361243D01*
X48758628Y-94548594D01*
X48763444Y-94563414D01*
X48859951Y-94752820D01*
X48984890Y-94924786D01*
X49135213Y-95075109D01*
X49307179Y-95200048D01*
X49307181Y-95200049D01*
X49307184Y-95200051D01*
X49496588Y-95296557D01*
X49698757Y-95362246D01*
X49908713Y-95395500D01*
X49908714Y-95395500D01*
X50121286Y-95395500D01*
X50121287Y-95395500D01*
X50331243Y-95362246D01*
X50533412Y-95296557D01*
X50722816Y-95200051D01*
X50770171Y-95165646D01*
X50894786Y-95075109D01*
X50894788Y-95075106D01*
X50894792Y-95075104D01*
X51045104Y-94924792D01*
X51164683Y-94760204D01*
X51220011Y-94717540D01*
X51289624Y-94711561D01*
X51351420Y-94744166D01*
X51365313Y-94760199D01*
X51392552Y-94797690D01*
X51484896Y-94924792D01*
X51635213Y-95075109D01*
X51807179Y-95200048D01*
X51807181Y-95200049D01*
X51807184Y-95200051D01*
X51996588Y-95296557D01*
X52198757Y-95362246D01*
X52408713Y-95395500D01*
X52408714Y-95395500D01*
X52621286Y-95395500D01*
X52621287Y-95395500D01*
X52831243Y-95362246D01*
X53033412Y-95296557D01*
X53222816Y-95200051D01*
X53280141Y-95158402D01*
X53394784Y-95075110D01*
X53394784Y-95075109D01*
X53394792Y-95075104D01*
X53533967Y-94935928D01*
X53595286Y-94902446D01*
X53664978Y-94907430D01*
X53720912Y-94949301D01*
X53727184Y-94958515D01*
X53822684Y-95113345D01*
X53946654Y-95237315D01*
X54095875Y-95329356D01*
X54095880Y-95329358D01*
X54262302Y-95384505D01*
X54262309Y-95384506D01*
X54365019Y-95394999D01*
X54764999Y-95394999D01*
X54765000Y-95394998D01*
X54765000Y-94324145D01*
X54831657Y-94362630D01*
X54952465Y-94395000D01*
X55077535Y-94395000D01*
X55198343Y-94362630D01*
X55265000Y-94324145D01*
X55265000Y-95394999D01*
X55664972Y-95394999D01*
X55664986Y-95394998D01*
X55767697Y-95384505D01*
X55934119Y-95329358D01*
X55934124Y-95329356D01*
X56001688Y-95287682D01*
X58665000Y-95287682D01*
X58665000Y-95492317D01*
X58697009Y-95694417D01*
X58760244Y-95889031D01*
X58853141Y-96071350D01*
X58853147Y-96071359D01*
X58885523Y-96115921D01*
X58885524Y-96115922D01*
X59565000Y-95436446D01*
X59565000Y-95442661D01*
X59592259Y-95544394D01*
X59644920Y-95635606D01*
X59719394Y-95710080D01*
X59810606Y-95762741D01*
X59912339Y-95790000D01*
X59918553Y-95790000D01*
X59239076Y-96469474D01*
X59283650Y-96501859D01*
X59465968Y-96594755D01*
X59660582Y-96657990D01*
X59862683Y-96690000D01*
X60067317Y-96690000D01*
X60269417Y-96657990D01*
X60464031Y-96594755D01*
X60646349Y-96501859D01*
X60690921Y-96469474D01*
X60011447Y-95790000D01*
X60017661Y-95790000D01*
X60119394Y-95762741D01*
X60210606Y-95710080D01*
X60285080Y-95635606D01*
X60337741Y-95544394D01*
X60365000Y-95442661D01*
X60365000Y-95436447D01*
X61044474Y-96115921D01*
X61076859Y-96071349D01*
X61169755Y-95889031D01*
X61232990Y-95694417D01*
X61265000Y-95492317D01*
X61265000Y-95287682D01*
X61232990Y-95085582D01*
X61169755Y-94890968D01*
X61076859Y-94708650D01*
X61044474Y-94664077D01*
X61044474Y-94664076D01*
X60365000Y-95343551D01*
X60365000Y-95337339D01*
X60337741Y-95235606D01*
X60285080Y-95144394D01*
X60210606Y-95069920D01*
X60119394Y-95017259D01*
X60017661Y-94990000D01*
X60011446Y-94990000D01*
X60690922Y-94310524D01*
X60690921Y-94310523D01*
X60646359Y-94278147D01*
X60646350Y-94278141D01*
X60464031Y-94185244D01*
X60269417Y-94122009D01*
X60067317Y-94090000D01*
X59862683Y-94090000D01*
X59660582Y-94122009D01*
X59465968Y-94185244D01*
X59283644Y-94278143D01*
X59239077Y-94310523D01*
X59239077Y-94310524D01*
X59918554Y-94990000D01*
X59912339Y-94990000D01*
X59810606Y-95017259D01*
X59719394Y-95069920D01*
X59644920Y-95144394D01*
X59592259Y-95235606D01*
X59565000Y-95337339D01*
X59565000Y-95343553D01*
X58885524Y-94664077D01*
X58885523Y-94664077D01*
X58853143Y-94708644D01*
X58760244Y-94890968D01*
X58697009Y-95085582D01*
X58665000Y-95287682D01*
X56001688Y-95287682D01*
X56083345Y-95237315D01*
X56125526Y-95195135D01*
X56207315Y-95113345D01*
X56299356Y-94964124D01*
X56299358Y-94964119D01*
X56354505Y-94797697D01*
X56354506Y-94797690D01*
X56364999Y-94694986D01*
X56365000Y-94694973D01*
X56365000Y-94170000D01*
X55419146Y-94170000D01*
X55457630Y-94103343D01*
X55490000Y-93982535D01*
X55490000Y-93857465D01*
X55457630Y-93736657D01*
X55419146Y-93670000D01*
X56364999Y-93670000D01*
X56364999Y-93178500D01*
X56384684Y-93111461D01*
X56437488Y-93065706D01*
X56488999Y-93054500D01*
X63446431Y-93054500D01*
X63446447Y-93054501D01*
X63454043Y-93054501D01*
X63612154Y-93054501D01*
X63612157Y-93054501D01*
X63764885Y-93013577D01*
X63819598Y-92981988D01*
X63901816Y-92934520D01*
X64013620Y-92822716D01*
X64013620Y-92822714D01*
X64023824Y-92812511D01*
X64023827Y-92812506D01*
X66896516Y-89939819D01*
X66957839Y-89906334D01*
X66984197Y-89903500D01*
X85509831Y-89903500D01*
X85509847Y-89903501D01*
X85517443Y-89903501D01*
X85675554Y-89903501D01*
X85675557Y-89903501D01*
X85828285Y-89862577D01*
X85878404Y-89833639D01*
X85965216Y-89783520D01*
X86077020Y-89671716D01*
X86077020Y-89671714D01*
X86087228Y-89661507D01*
X86087229Y-89661504D01*
X97299916Y-78448819D01*
X97361239Y-78415334D01*
X97387597Y-78412500D01*
X102919531Y-78412500D01*
X102919547Y-78412501D01*
X102927143Y-78412501D01*
X103085254Y-78412501D01*
X103085257Y-78412501D01*
X103237985Y-78371577D01*
X103288104Y-78342639D01*
X103374916Y-78292520D01*
X103486720Y-78180716D01*
X103486720Y-78180714D01*
X103496928Y-78170507D01*
X103496930Y-78170504D01*
X106463678Y-75203755D01*
X106524999Y-75170272D01*
X106589673Y-75173506D01*
X106631957Y-75187246D01*
X106841913Y-75220500D01*
X106841914Y-75220500D01*
X107054486Y-75220500D01*
X107054487Y-75220500D01*
X107264443Y-75187246D01*
X107466612Y-75121557D01*
X107656016Y-75025051D01*
X107730534Y-74970911D01*
X107827986Y-74900109D01*
X107827988Y-74900106D01*
X107827992Y-74900104D01*
X107978304Y-74749792D01*
X107978306Y-74749788D01*
X107978309Y-74749786D01*
X108088370Y-74598298D01*
X108103251Y-74577816D01*
X108107714Y-74569054D01*
X108155688Y-74518259D01*
X108223508Y-74501463D01*
X108289644Y-74523999D01*
X108328686Y-74569056D01*
X108333151Y-74577820D01*
X108458090Y-74749786D01*
X108608413Y-74900109D01*
X108780379Y-75025048D01*
X108780381Y-75025049D01*
X108780384Y-75025051D01*
X108969788Y-75121557D01*
X109171957Y-75187246D01*
X109381913Y-75220500D01*
X109381914Y-75220500D01*
X109594486Y-75220500D01*
X109594487Y-75220500D01*
X109804443Y-75187246D01*
X110006612Y-75121557D01*
X110196016Y-75025051D01*
X110270534Y-74970911D01*
X110367986Y-74900109D01*
X110367988Y-74900106D01*
X110367992Y-74900104D01*
X110518304Y-74749792D01*
X110518306Y-74749788D01*
X110518309Y-74749786D01*
X110628370Y-74598298D01*
X110643251Y-74577816D01*
X110739757Y-74388412D01*
X110805446Y-74186243D01*
X110838700Y-73976287D01*
X110838700Y-73763713D01*
X110805446Y-73553757D01*
X110739757Y-73351588D01*
X110643251Y-73162184D01*
X110643249Y-73162181D01*
X110643248Y-73162179D01*
X110518309Y-72990213D01*
X110367986Y-72839890D01*
X110196020Y-72714951D01*
X110006614Y-72618444D01*
X110006613Y-72618443D01*
X110006612Y-72618443D01*
X109804443Y-72552754D01*
X109804441Y-72552753D01*
X109804440Y-72552753D01*
X109643157Y-72527208D01*
X109594487Y-72519500D01*
X109381913Y-72519500D01*
X109333242Y-72527208D01*
X109171960Y-72552753D01*
X108969785Y-72618444D01*
X108780379Y-72714951D01*
X108608413Y-72839890D01*
X108458090Y-72990213D01*
X108333149Y-73162182D01*
X108328684Y-73170946D01*
X108280709Y-73221742D01*
X108212888Y-73238536D01*
X108146753Y-73215998D01*
X108107716Y-73170946D01*
X108103250Y-73162182D01*
X107978309Y-72990213D01*
X107827986Y-72839890D01*
X107656020Y-72714951D01*
X107466614Y-72618444D01*
X107466613Y-72618443D01*
X107466612Y-72618443D01*
X107264443Y-72552754D01*
X107264441Y-72552753D01*
X107264440Y-72552753D01*
X107103157Y-72527208D01*
X107054487Y-72519500D01*
X106841913Y-72519500D01*
X106793242Y-72527208D01*
X106631960Y-72552753D01*
X106429785Y-72618444D01*
X106240379Y-72714951D01*
X106068413Y-72839890D01*
X105918090Y-72990213D01*
X105793149Y-73162182D01*
X105788684Y-73170946D01*
X105740709Y-73221742D01*
X105672888Y-73238536D01*
X105606753Y-73215998D01*
X105567716Y-73170946D01*
X105563250Y-73162182D01*
X105438309Y-72990213D01*
X105287986Y-72839890D01*
X105116020Y-72714951D01*
X104926614Y-72618444D01*
X104926613Y-72618443D01*
X104926612Y-72618443D01*
X104724443Y-72552754D01*
X104724441Y-72552753D01*
X104724440Y-72552753D01*
X104563157Y-72527208D01*
X104514487Y-72519500D01*
X104301913Y-72519500D01*
X104253242Y-72527208D01*
X104091960Y-72552753D01*
X103889785Y-72618444D01*
X103700379Y-72714951D01*
X103528413Y-72839890D01*
X103378090Y-72990213D01*
X103253149Y-73162182D01*
X103248684Y-73170946D01*
X103200709Y-73221742D01*
X103132888Y-73238536D01*
X103066753Y-73215998D01*
X103027716Y-73170946D01*
X103023250Y-73162182D01*
X102898309Y-72990213D01*
X102747986Y-72839890D01*
X102576020Y-72714951D01*
X102386614Y-72618444D01*
X102386613Y-72618443D01*
X102386612Y-72618443D01*
X102184443Y-72552754D01*
X102184441Y-72552753D01*
X102184440Y-72552753D01*
X102023157Y-72527208D01*
X101974487Y-72519500D01*
X101761913Y-72519500D01*
X101713242Y-72527208D01*
X101551960Y-72552753D01*
X101349785Y-72618444D01*
X101160379Y-72714951D01*
X100988413Y-72839890D01*
X100838090Y-72990213D01*
X100713149Y-73162182D01*
X100708684Y-73170946D01*
X100660709Y-73221742D01*
X100592888Y-73238536D01*
X100526753Y-73215998D01*
X100487716Y-73170946D01*
X100483250Y-73162182D01*
X100358309Y-72990213D01*
X100207986Y-72839890D01*
X100036020Y-72714951D01*
X99846614Y-72618444D01*
X99846613Y-72618443D01*
X99846612Y-72618443D01*
X99644443Y-72552754D01*
X99644441Y-72552753D01*
X99644440Y-72552753D01*
X99483157Y-72527208D01*
X99434487Y-72519500D01*
X99221913Y-72519500D01*
X99173242Y-72527208D01*
X99011960Y-72552753D01*
X98809785Y-72618444D01*
X98620379Y-72714951D01*
X98448413Y-72839890D01*
X98298090Y-72990213D01*
X98173149Y-73162182D01*
X98168684Y-73170946D01*
X98120709Y-73221742D01*
X98052888Y-73238536D01*
X97986753Y-73215998D01*
X97947716Y-73170946D01*
X97943250Y-73162182D01*
X97818309Y-72990213D01*
X97667986Y-72839890D01*
X97496020Y-72714951D01*
X97306614Y-72618444D01*
X97306613Y-72618443D01*
X97306612Y-72618443D01*
X97104443Y-72552754D01*
X97104441Y-72552753D01*
X97104440Y-72552753D01*
X96943157Y-72527208D01*
X96894487Y-72519500D01*
X96681913Y-72519500D01*
X96633242Y-72527208D01*
X96471960Y-72552753D01*
X96269785Y-72618444D01*
X96080379Y-72714951D01*
X95908413Y-72839890D01*
X95758090Y-72990213D01*
X95633149Y-73162182D01*
X95628684Y-73170946D01*
X95580709Y-73221742D01*
X95512888Y-73238536D01*
X95446753Y-73215998D01*
X95407716Y-73170946D01*
X95403250Y-73162182D01*
X95278309Y-72990213D01*
X95127986Y-72839890D01*
X94956020Y-72714951D01*
X94766614Y-72618444D01*
X94766613Y-72618443D01*
X94766612Y-72618443D01*
X94564443Y-72552754D01*
X94564441Y-72552753D01*
X94564440Y-72552753D01*
X94403157Y-72527208D01*
X94354487Y-72519500D01*
X94141913Y-72519500D01*
X94093242Y-72527208D01*
X93931960Y-72552753D01*
X93729785Y-72618444D01*
X93540379Y-72714951D01*
X93368415Y-72839889D01*
X93254873Y-72953431D01*
X93193550Y-72986915D01*
X93123858Y-72981931D01*
X93067925Y-72940059D01*
X93051010Y-72909082D01*
X93001997Y-72777671D01*
X93001993Y-72777664D01*
X92915747Y-72662455D01*
X92915744Y-72662452D01*
X92800535Y-72576206D01*
X92800528Y-72576202D01*
X92665682Y-72525908D01*
X92665683Y-72525908D01*
X92606083Y-72519501D01*
X92606081Y-72519500D01*
X92606073Y-72519500D01*
X92606064Y-72519500D01*
X90810329Y-72519500D01*
X90810323Y-72519501D01*
X90750716Y-72525908D01*
X90615871Y-72576202D01*
X90615864Y-72576206D01*
X90500655Y-72662452D01*
X90500652Y-72662455D01*
X90414406Y-72777664D01*
X90414402Y-72777671D01*
X90364108Y-72912517D01*
X90357701Y-72972116D01*
X90357700Y-72972135D01*
X90357700Y-74767870D01*
X90357701Y-74767876D01*
X90364108Y-74827483D01*
X90414402Y-74962328D01*
X90414406Y-74962335D01*
X90500652Y-75077544D01*
X90500655Y-75077547D01*
X90615864Y-75163793D01*
X90615871Y-75163797D01*
X90750717Y-75214091D01*
X90750716Y-75214091D01*
X90757644Y-75214835D01*
X90810327Y-75220500D01*
X92606072Y-75220499D01*
X92665683Y-75214091D01*
X92800531Y-75163796D01*
X92915746Y-75077546D01*
X93001996Y-74962331D01*
X93051010Y-74830916D01*
X93092881Y-74774984D01*
X93158345Y-74750566D01*
X93226618Y-74765417D01*
X93254873Y-74786569D01*
X93368413Y-74900109D01*
X93540379Y-75025048D01*
X93540381Y-75025049D01*
X93540384Y-75025051D01*
X93729788Y-75121557D01*
X93931957Y-75187246D01*
X94141913Y-75220500D01*
X94141914Y-75220500D01*
X94354486Y-75220500D01*
X94354487Y-75220500D01*
X94564443Y-75187246D01*
X94766612Y-75121557D01*
X94956016Y-75025051D01*
X95030534Y-74970911D01*
X95127986Y-74900109D01*
X95127988Y-74900106D01*
X95127992Y-74900104D01*
X95278304Y-74749792D01*
X95278306Y-74749788D01*
X95278309Y-74749786D01*
X95388370Y-74598298D01*
X95403251Y-74577816D01*
X95407714Y-74569054D01*
X95455688Y-74518259D01*
X95523508Y-74501463D01*
X95589644Y-74523999D01*
X95628686Y-74569056D01*
X95633151Y-74577820D01*
X95758090Y-74749786D01*
X95908413Y-74900109D01*
X96080379Y-75025048D01*
X96080381Y-75025049D01*
X96080384Y-75025051D01*
X96269788Y-75121557D01*
X96471957Y-75187246D01*
X96681913Y-75220500D01*
X96681914Y-75220500D01*
X96829102Y-75220500D01*
X96896141Y-75240185D01*
X96941896Y-75292989D01*
X96951840Y-75362147D01*
X96922815Y-75425703D01*
X96916783Y-75432181D01*
X84885784Y-87463181D01*
X84824461Y-87496666D01*
X84798103Y-87499500D01*
X84286198Y-87499500D01*
X84264955Y-87493262D01*
X84242874Y-87491685D01*
X84232086Y-87483610D01*
X84219159Y-87479815D01*
X84204663Y-87463086D01*
X84186937Y-87449819D01*
X84182226Y-87437192D01*
X84173404Y-87427011D01*
X84170253Y-87405098D01*
X84162515Y-87384356D01*
X84165377Y-87371190D01*
X84163460Y-87357853D01*
X84172657Y-87337713D01*
X84177361Y-87316082D01*
X84190633Y-87298350D01*
X84192485Y-87294297D01*
X84198510Y-87287826D01*
X84206620Y-87279716D01*
X84206620Y-87279714D01*
X84210720Y-87275614D01*
X89358506Y-82127828D01*
X89358511Y-82127824D01*
X89368714Y-82117620D01*
X89368716Y-82117620D01*
X89480520Y-82005816D01*
X89535539Y-81910519D01*
X89559577Y-81868885D01*
X89600501Y-81716157D01*
X89600501Y-81558043D01*
X89600501Y-81550448D01*
X89600500Y-81550430D01*
X89600500Y-73200097D01*
X89620185Y-73133058D01*
X89636819Y-73112416D01*
X92112416Y-70636819D01*
X92173739Y-70603334D01*
X92200097Y-70600500D01*
X101403331Y-70600500D01*
X101403347Y-70600501D01*
X101410943Y-70600501D01*
X101569054Y-70600501D01*
X101569057Y-70600501D01*
X101721785Y-70559577D01*
X101771904Y-70530639D01*
X101858716Y-70480520D01*
X101970520Y-70368716D01*
X101970520Y-70368714D01*
X101980728Y-70358507D01*
X101980730Y-70358504D01*
X104313922Y-68025311D01*
X104375243Y-67991828D01*
X104444935Y-67996812D01*
X104500868Y-68038684D01*
X104524074Y-68093596D01*
X104555443Y-68291657D01*
X104557754Y-68306243D01*
X104620529Y-68499445D01*
X104623444Y-68508414D01*
X104719951Y-68697820D01*
X104844890Y-68869786D01*
X104995213Y-69020109D01*
X105167179Y-69145048D01*
X105167181Y-69145049D01*
X105167184Y-69145051D01*
X105356588Y-69241557D01*
X105558757Y-69307246D01*
X105768713Y-69340500D01*
X105768714Y-69340500D01*
X106231286Y-69340500D01*
X106231287Y-69340500D01*
X106441243Y-69307246D01*
X106643412Y-69241557D01*
X106832816Y-69145051D01*
X106869388Y-69118480D01*
X107004786Y-69020109D01*
X107004788Y-69020106D01*
X107004792Y-69020104D01*
X107155104Y-68869792D01*
X107155106Y-68869788D01*
X107155109Y-68869786D01*
X107280048Y-68697820D01*
X107280047Y-68697820D01*
X107280051Y-68697816D01*
X107376557Y-68508412D01*
X107442246Y-68306243D01*
X107475500Y-68096287D01*
X107475500Y-67883713D01*
X107442246Y-67673757D01*
X107376557Y-67471588D01*
X107280051Y-67282184D01*
X107280049Y-67282181D01*
X107280048Y-67282179D01*
X107155109Y-67110213D01*
X107004792Y-66959896D01*
X106981278Y-66942812D01*
X106840204Y-66840316D01*
X106797540Y-66784989D01*
X106791561Y-66715376D01*
X106824166Y-66653580D01*
X106840199Y-66639686D01*
X107004792Y-66520104D01*
X107155104Y-66369792D01*
X107155106Y-66369788D01*
X107155109Y-66369786D01*
X107280048Y-66197820D01*
X107280047Y-66197820D01*
X107280051Y-66197816D01*
X107376557Y-66008412D01*
X107442246Y-65806243D01*
X107475500Y-65596287D01*
X107475500Y-65383713D01*
X107442246Y-65173757D01*
X107376557Y-64971588D01*
X107280051Y-64782184D01*
X107280049Y-64782181D01*
X107280048Y-64782179D01*
X107155109Y-64610213D01*
X107004792Y-64459896D01*
X106970455Y-64434949D01*
X106840204Y-64340316D01*
X106797540Y-64284989D01*
X106791561Y-64215376D01*
X106824166Y-64153580D01*
X106840199Y-64139686D01*
X107004792Y-64020104D01*
X107155104Y-63869792D01*
X107155106Y-63869788D01*
X107155109Y-63869786D01*
X107280048Y-63697820D01*
X107280047Y-63697820D01*
X107280051Y-63697816D01*
X107376557Y-63508412D01*
X107442246Y-63306243D01*
X107475500Y-63096287D01*
X107475500Y-62883713D01*
X107442246Y-62673757D01*
X107376557Y-62471588D01*
X107280051Y-62282184D01*
X107280049Y-62282181D01*
X107280048Y-62282179D01*
X107155109Y-62110213D01*
X107015931Y-61971035D01*
X106982446Y-61909712D01*
X106987430Y-61840020D01*
X107029302Y-61784087D01*
X107038516Y-61777815D01*
X107193343Y-61682317D01*
X107317315Y-61558345D01*
X107409356Y-61409124D01*
X107409358Y-61409119D01*
X107464505Y-61242697D01*
X107464506Y-61242690D01*
X107474999Y-61139986D01*
X107475000Y-61139973D01*
X107475000Y-60740000D01*
X106404146Y-60740000D01*
X106442630Y-60673343D01*
X106475000Y-60552535D01*
X106475000Y-60427465D01*
X106442630Y-60306657D01*
X106404146Y-60240000D01*
X107474999Y-60240000D01*
X107474999Y-59840028D01*
X107474998Y-59840013D01*
X107464505Y-59737302D01*
X107409358Y-59570880D01*
X107409356Y-59570875D01*
X107317315Y-59421654D01*
X107193345Y-59297684D01*
X107044124Y-59205643D01*
X107044119Y-59205641D01*
X106877697Y-59150494D01*
X106877690Y-59150493D01*
X106774986Y-59140000D01*
X106250000Y-59140000D01*
X106250000Y-60085854D01*
X106183343Y-60047370D01*
X106062535Y-60015000D01*
X105937465Y-60015000D01*
X105816657Y-60047370D01*
X105750000Y-60085854D01*
X105750000Y-59140000D01*
X105225028Y-59140000D01*
X105225012Y-59140001D01*
X105122302Y-59150494D01*
X104955880Y-59205641D01*
X104955875Y-59205643D01*
X104806654Y-59297684D01*
X104682684Y-59421654D01*
X104590643Y-59570875D01*
X104590641Y-59570880D01*
X104535494Y-59737302D01*
X104535493Y-59737309D01*
X104525000Y-59840013D01*
X104525000Y-60240000D01*
X105595854Y-60240000D01*
X105557370Y-60306657D01*
X105525000Y-60427465D01*
X105525000Y-60552535D01*
X105557370Y-60673343D01*
X105595854Y-60740000D01*
X104525001Y-60740000D01*
X104525001Y-61139986D01*
X104535494Y-61242697D01*
X104590641Y-61409119D01*
X104590643Y-61409124D01*
X104682684Y-61558345D01*
X104806654Y-61682315D01*
X104961484Y-61777815D01*
X105008208Y-61829763D01*
X105019431Y-61898726D01*
X104991587Y-61962808D01*
X104984069Y-61971035D01*
X104844889Y-62110215D01*
X104719951Y-62282179D01*
X104623444Y-62471585D01*
X104557753Y-62673760D01*
X104524500Y-62883713D01*
X104524500Y-63096286D01*
X104557753Y-63306240D01*
X104602146Y-63442868D01*
X104604141Y-63512709D01*
X104571896Y-63568867D01*
X102192736Y-65948028D01*
X102080931Y-66059832D01*
X102080925Y-66059840D01*
X102031471Y-66145499D01*
X102031471Y-66145500D01*
X102001873Y-66196765D01*
X101960949Y-66349493D01*
X101960949Y-66349495D01*
X101960949Y-66517596D01*
X101960950Y-66517609D01*
X101960950Y-68061353D01*
X101941265Y-68128392D01*
X101924631Y-68149034D01*
X101111484Y-68962181D01*
X101050161Y-68995666D01*
X101023803Y-68998500D01*
X91812957Y-68998500D01*
X91654843Y-68998500D01*
X91502115Y-69039423D01*
X91502114Y-69039423D01*
X91502112Y-69039424D01*
X91502109Y-69039425D01*
X91451996Y-69068359D01*
X91451995Y-69068360D01*
X91430836Y-69080576D01*
X91365185Y-69118479D01*
X91365182Y-69118481D01*
X88118481Y-72365182D01*
X88118475Y-72365190D01*
X88075318Y-72439942D01*
X88075318Y-72439943D01*
X88039423Y-72502115D01*
X87998499Y-72654843D01*
X87998499Y-72654845D01*
X87998499Y-72822946D01*
X87998500Y-72822959D01*
X87998500Y-81170903D01*
X87978815Y-81237942D01*
X87962181Y-81258584D01*
X83347584Y-85873181D01*
X83286261Y-85906666D01*
X83259903Y-85909500D01*
X70057396Y-85909500D01*
X69990357Y-85889815D01*
X69944602Y-85837011D01*
X69934658Y-85767853D01*
X69954294Y-85716609D01*
X70019390Y-85619185D01*
X70019390Y-85619184D01*
X70019394Y-85619179D01*
X70079737Y-85473497D01*
X70110500Y-85318842D01*
X70110500Y-85161158D01*
X70110500Y-85161155D01*
X70110499Y-85161153D01*
X70087222Y-85044134D01*
X70079737Y-85006503D01*
X70063776Y-84967969D01*
X70019397Y-84860827D01*
X70019390Y-84860814D01*
X69931398Y-84729125D01*
X69910520Y-84662447D01*
X69910500Y-84660234D01*
X69910500Y-83384297D01*
X69930185Y-83317258D01*
X69946819Y-83296616D01*
X76351792Y-76891643D01*
X82867141Y-70376293D01*
X82928462Y-70342810D01*
X82998154Y-70347794D01*
X83054087Y-70389666D01*
X83078504Y-70455130D01*
X83078820Y-70463976D01*
X83078820Y-71587870D01*
X83078821Y-71587876D01*
X83085228Y-71647483D01*
X83135522Y-71782328D01*
X83135526Y-71782335D01*
X83221772Y-71897544D01*
X83221775Y-71897547D01*
X83336984Y-71983793D01*
X83336991Y-71983797D01*
X83468402Y-72032810D01*
X83524336Y-72074681D01*
X83548753Y-72140145D01*
X83533902Y-72208418D01*
X83512751Y-72236673D01*
X83399209Y-72350215D01*
X83274271Y-72522179D01*
X83177764Y-72711585D01*
X83112073Y-72913760D01*
X83099965Y-72990208D01*
X83078820Y-73123713D01*
X83078820Y-73336287D01*
X83112074Y-73546243D01*
X83139641Y-73631086D01*
X83177764Y-73748414D01*
X83274271Y-73937820D01*
X83399210Y-74109786D01*
X83549533Y-74260109D01*
X83721502Y-74385050D01*
X83730266Y-74389516D01*
X83781062Y-74437491D01*
X83797856Y-74505312D01*
X83775318Y-74571447D01*
X83730266Y-74610484D01*
X83721502Y-74614949D01*
X83549533Y-74739890D01*
X83399210Y-74890213D01*
X83274271Y-75062179D01*
X83177764Y-75251585D01*
X83112073Y-75453760D01*
X83084870Y-75625512D01*
X83078820Y-75663713D01*
X83078820Y-75876287D01*
X83112074Y-76086243D01*
X83150432Y-76204297D01*
X83177764Y-76288414D01*
X83274271Y-76477820D01*
X83399210Y-76649786D01*
X83549533Y-76800109D01*
X83721502Y-76925050D01*
X83730266Y-76929516D01*
X83781062Y-76977491D01*
X83797856Y-77045312D01*
X83775318Y-77111447D01*
X83730266Y-77150484D01*
X83721502Y-77154949D01*
X83549533Y-77279890D01*
X83399210Y-77430213D01*
X83274271Y-77602179D01*
X83177764Y-77791585D01*
X83112073Y-77993760D01*
X83078820Y-78203713D01*
X83078820Y-78416286D01*
X83112073Y-78626239D01*
X83177764Y-78828414D01*
X83274271Y-79017820D01*
X83399210Y-79189786D01*
X83549533Y-79340109D01*
X83721499Y-79465048D01*
X83721501Y-79465049D01*
X83721504Y-79465051D01*
X83910908Y-79561557D01*
X84113077Y-79627246D01*
X84323033Y-79660500D01*
X84323034Y-79660500D01*
X84535606Y-79660500D01*
X84535607Y-79660500D01*
X84745563Y-79627246D01*
X84947732Y-79561557D01*
X85137136Y-79465051D01*
X85193154Y-79424352D01*
X85309106Y-79340109D01*
X85309108Y-79340106D01*
X85309112Y-79340104D01*
X85459424Y-79189792D01*
X85459426Y-79189788D01*
X85459429Y-79189786D01*
X85584368Y-79017820D01*
X85584367Y-79017820D01*
X85584371Y-79017816D01*
X85680877Y-78828412D01*
X85746566Y-78626243D01*
X85779820Y-78416287D01*
X85779820Y-78203713D01*
X85746566Y-77993757D01*
X85680877Y-77791588D01*
X85584371Y-77602184D01*
X85584369Y-77602181D01*
X85584368Y-77602179D01*
X85459429Y-77430213D01*
X85309106Y-77279890D01*
X85137140Y-77154951D01*
X85136435Y-77154591D01*
X85128374Y-77150485D01*
X85077579Y-77102512D01*
X85060783Y-77034692D01*
X85083319Y-76968556D01*
X85128374Y-76929515D01*
X85137136Y-76925051D01*
X85183116Y-76891645D01*
X85309106Y-76800109D01*
X85309108Y-76800106D01*
X85309112Y-76800104D01*
X85459424Y-76649792D01*
X85459426Y-76649788D01*
X85459429Y-76649786D01*
X85584368Y-76477820D01*
X85584367Y-76477820D01*
X85584371Y-76477816D01*
X85680877Y-76288412D01*
X85746566Y-76086243D01*
X85779820Y-75876287D01*
X85779820Y-75663713D01*
X85746566Y-75453757D01*
X85680877Y-75251588D01*
X85584371Y-75062184D01*
X85584369Y-75062181D01*
X85584368Y-75062179D01*
X85459429Y-74890213D01*
X85309106Y-74739890D01*
X85137140Y-74614951D01*
X85136435Y-74614591D01*
X85128374Y-74610485D01*
X85077579Y-74562512D01*
X85060783Y-74494692D01*
X85083319Y-74428556D01*
X85128374Y-74389515D01*
X85137136Y-74385051D01*
X85195642Y-74342544D01*
X85309106Y-74260109D01*
X85309108Y-74260106D01*
X85309112Y-74260104D01*
X85459424Y-74109792D01*
X85459426Y-74109788D01*
X85459429Y-74109786D01*
X85584368Y-73937820D01*
X85584367Y-73937820D01*
X85584371Y-73937816D01*
X85680877Y-73748412D01*
X85746566Y-73546243D01*
X85779820Y-73336287D01*
X85779820Y-73123713D01*
X85746566Y-72913757D01*
X85680877Y-72711588D01*
X85584371Y-72522184D01*
X85584369Y-72522181D01*
X85584368Y-72522179D01*
X85459429Y-72350213D01*
X85345889Y-72236673D01*
X85312404Y-72175350D01*
X85317388Y-72105658D01*
X85359260Y-72049725D01*
X85390235Y-72032810D01*
X85521651Y-71983796D01*
X85636866Y-71897546D01*
X85723116Y-71782331D01*
X85773411Y-71647483D01*
X85779820Y-71587873D01*
X85779819Y-69792128D01*
X85773411Y-69732517D01*
X85765787Y-69712077D01*
X85723117Y-69597671D01*
X85723113Y-69597664D01*
X85636867Y-69482455D01*
X85636864Y-69482452D01*
X85521655Y-69396206D01*
X85521648Y-69396202D01*
X85386802Y-69345908D01*
X85386803Y-69345908D01*
X85327203Y-69339501D01*
X85327201Y-69339500D01*
X85327193Y-69339500D01*
X85327185Y-69339500D01*
X84203297Y-69339500D01*
X84136258Y-69319815D01*
X84090503Y-69267011D01*
X84080559Y-69197853D01*
X84109584Y-69134297D01*
X84115616Y-69127819D01*
X85504671Y-67738765D01*
X87061617Y-66181819D01*
X87122940Y-66148334D01*
X87149298Y-66145500D01*
X92039281Y-66145500D01*
X92106320Y-66165185D01*
X92149765Y-66213205D01*
X92169947Y-66252814D01*
X92169948Y-66252815D01*
X92294890Y-66424786D01*
X92445213Y-66575109D01*
X92617179Y-66700048D01*
X92617181Y-66700049D01*
X92617184Y-66700051D01*
X92806588Y-66796557D01*
X93008757Y-66862246D01*
X93218713Y-66895500D01*
X93218714Y-66895500D01*
X93431286Y-66895500D01*
X93431287Y-66895500D01*
X93641243Y-66862246D01*
X93843412Y-66796557D01*
X94032816Y-66700051D01*
X94094754Y-66655051D01*
X94204786Y-66575109D01*
X94204788Y-66575106D01*
X94204792Y-66575104D01*
X94355104Y-66424792D01*
X94355106Y-66424788D01*
X94355109Y-66424786D01*
X94480048Y-66252820D01*
X94480050Y-66252817D01*
X94480051Y-66252816D01*
X94544515Y-66126297D01*
X94592490Y-66075502D01*
X94660311Y-66058707D01*
X94726445Y-66081244D01*
X94765485Y-66126298D01*
X94829951Y-66252820D01*
X94954890Y-66424786D01*
X95105213Y-66575109D01*
X95277179Y-66700048D01*
X95277181Y-66700049D01*
X95277184Y-66700051D01*
X95466588Y-66796557D01*
X95668757Y-66862246D01*
X95878713Y-66895500D01*
X95878714Y-66895500D01*
X96091286Y-66895500D01*
X96091287Y-66895500D01*
X96301243Y-66862246D01*
X96503412Y-66796557D01*
X96692816Y-66700051D01*
X96754754Y-66655051D01*
X96864786Y-66575109D01*
X96864788Y-66575106D01*
X96864792Y-66575104D01*
X97015104Y-66424792D01*
X97015106Y-66424788D01*
X97015109Y-66424786D01*
X97140050Y-66252817D01*
X97140052Y-66252815D01*
X97204795Y-66125747D01*
X97252769Y-66074951D01*
X97320590Y-66058156D01*
X97386725Y-66080693D01*
X97425765Y-66125747D01*
X97490375Y-66252550D01*
X97529728Y-66306716D01*
X98162037Y-65674408D01*
X98179075Y-65737993D01*
X98244901Y-65852007D01*
X98337993Y-65945099D01*
X98452007Y-66010925D01*
X98515590Y-66027962D01*
X97883282Y-66660269D01*
X97883282Y-66660270D01*
X97937449Y-66699624D01*
X98126782Y-66796095D01*
X98328870Y-66861757D01*
X98538754Y-66895000D01*
X98751246Y-66895000D01*
X98961127Y-66861757D01*
X98961130Y-66861757D01*
X99163217Y-66796095D01*
X99352554Y-66699622D01*
X99406716Y-66660270D01*
X99406717Y-66660270D01*
X98774408Y-66027962D01*
X98837993Y-66010925D01*
X98952007Y-65945099D01*
X99045099Y-65852007D01*
X99110925Y-65737993D01*
X99127962Y-65674409D01*
X99760270Y-66306717D01*
X99760270Y-66306716D01*
X99799622Y-66252554D01*
X99896095Y-66063217D01*
X99961757Y-65861130D01*
X99961757Y-65861127D01*
X99995000Y-65651246D01*
X99995000Y-65438753D01*
X99961757Y-65228872D01*
X99961757Y-65228869D01*
X99896095Y-65026782D01*
X99799624Y-64837449D01*
X99760270Y-64783282D01*
X99760269Y-64783282D01*
X99127962Y-65415590D01*
X99110925Y-65352007D01*
X99045099Y-65237993D01*
X98952007Y-65144901D01*
X98837993Y-65079075D01*
X98774409Y-65062037D01*
X99406716Y-64429728D01*
X99352550Y-64390375D01*
X99342954Y-64385486D01*
X99292157Y-64337512D01*
X99275361Y-64269692D01*
X99297897Y-64203556D01*
X99342954Y-64164514D01*
X99352554Y-64159622D01*
X99406716Y-64120270D01*
X99406717Y-64120270D01*
X98774408Y-63487962D01*
X98837993Y-63470925D01*
X98952007Y-63405099D01*
X99045099Y-63312007D01*
X99110925Y-63197993D01*
X99127962Y-63134409D01*
X99760270Y-63766717D01*
X99760270Y-63766716D01*
X99799622Y-63712554D01*
X99896095Y-63523217D01*
X99961757Y-63321130D01*
X99961757Y-63321127D01*
X99995000Y-63111246D01*
X99995000Y-62898753D01*
X99961757Y-62688872D01*
X99961757Y-62688869D01*
X99896095Y-62486782D01*
X99799624Y-62297449D01*
X99760270Y-62243282D01*
X99760269Y-62243282D01*
X99127962Y-62875590D01*
X99110925Y-62812007D01*
X99045099Y-62697993D01*
X98952007Y-62604901D01*
X98837993Y-62539075D01*
X98774409Y-62522037D01*
X99443802Y-61852642D01*
X99505125Y-61819157D01*
X99519833Y-61820078D01*
X99519556Y-61817501D01*
X99602375Y-61808598D01*
X99737086Y-61758354D01*
X99737093Y-61758350D01*
X99852187Y-61672190D01*
X99852190Y-61672187D01*
X99938350Y-61557093D01*
X99938354Y-61557086D01*
X99988596Y-61422379D01*
X99988598Y-61422372D01*
X99994999Y-61362844D01*
X99995000Y-61362827D01*
X99995000Y-60715000D01*
X99078012Y-60715000D01*
X99110925Y-60657993D01*
X99145000Y-60530826D01*
X99145000Y-60399174D01*
X99110925Y-60272007D01*
X99078012Y-60215000D01*
X99995000Y-60215000D01*
X99995000Y-59567172D01*
X99994999Y-59567155D01*
X99988598Y-59507627D01*
X99988596Y-59507620D01*
X99938354Y-59372913D01*
X99938350Y-59372906D01*
X99852190Y-59257812D01*
X99852187Y-59257809D01*
X99737093Y-59171649D01*
X99737086Y-59171645D01*
X99602379Y-59121403D01*
X99602372Y-59121401D01*
X99542844Y-59115000D01*
X98895000Y-59115000D01*
X98895000Y-60031988D01*
X98837993Y-59999075D01*
X98710826Y-59965000D01*
X98579174Y-59965000D01*
X98452007Y-59999075D01*
X98395000Y-60031988D01*
X98395000Y-59115000D01*
X97747155Y-59115000D01*
X97687627Y-59121401D01*
X97687620Y-59121403D01*
X97552913Y-59171645D01*
X97552906Y-59171649D01*
X97437812Y-59257809D01*
X97414578Y-59288846D01*
X97358644Y-59330716D01*
X97288952Y-59335700D01*
X97227629Y-59302214D01*
X97216046Y-59288846D01*
X97192814Y-59257812D01*
X97192546Y-59257454D01*
X97192544Y-59257453D01*
X97192544Y-59257452D01*
X97077335Y-59171206D01*
X97077328Y-59171202D01*
X96942482Y-59120908D01*
X96942483Y-59120908D01*
X96882883Y-59114501D01*
X96882881Y-59114500D01*
X96882873Y-59114500D01*
X96882864Y-59114500D01*
X95087129Y-59114500D01*
X95087123Y-59114501D01*
X95027516Y-59120908D01*
X94892671Y-59171202D01*
X94892664Y-59171206D01*
X94777455Y-59257452D01*
X94754266Y-59288429D01*
X94698332Y-59330299D01*
X94628640Y-59335283D01*
X94567317Y-59301797D01*
X94555734Y-59288429D01*
X94532814Y-59257812D01*
X94532546Y-59257454D01*
X94532544Y-59257453D01*
X94532544Y-59257452D01*
X94417335Y-59171206D01*
X94417328Y-59171202D01*
X94282482Y-59120908D01*
X94282483Y-59120908D01*
X94222883Y-59114501D01*
X94222881Y-59114500D01*
X94222873Y-59114500D01*
X94222864Y-59114500D01*
X92427129Y-59114500D01*
X92427123Y-59114501D01*
X92367516Y-59120908D01*
X92232671Y-59171202D01*
X92232664Y-59171206D01*
X92117455Y-59257452D01*
X92117452Y-59257455D01*
X92031206Y-59372664D01*
X92031202Y-59372671D01*
X91980908Y-59507517D01*
X91974501Y-59567116D01*
X91974500Y-59567135D01*
X91974500Y-59740500D01*
X91954815Y-59807539D01*
X91902011Y-59853294D01*
X91850500Y-59864500D01*
X90914046Y-59864500D01*
X90881957Y-59860276D01*
X90879057Y-59859499D01*
X90720943Y-59859499D01*
X90607804Y-59889815D01*
X90568214Y-59900423D01*
X90431284Y-59979481D01*
X90431281Y-59979483D01*
X69899507Y-80511256D01*
X69838184Y-80544741D01*
X69768492Y-80539757D01*
X69712559Y-80497885D01*
X69693897Y-80461897D01*
X69651557Y-80331588D01*
X69555051Y-80142184D01*
X69555049Y-80142181D01*
X69555048Y-80142179D01*
X69430109Y-79970213D01*
X69279786Y-79819890D01*
X69107820Y-79694951D01*
X69107115Y-79694591D01*
X69099054Y-79690485D01*
X69048259Y-79642512D01*
X69031463Y-79574692D01*
X69053999Y-79508556D01*
X69099054Y-79469515D01*
X69107816Y-79465051D01*
X69163834Y-79424352D01*
X69279786Y-79340109D01*
X69279788Y-79340106D01*
X69279792Y-79340104D01*
X69430104Y-79189792D01*
X69430106Y-79189788D01*
X69430109Y-79189786D01*
X69555048Y-79017820D01*
X69555047Y-79017820D01*
X69555051Y-79017816D01*
X69651557Y-78828412D01*
X69717246Y-78626243D01*
X69750500Y-78416287D01*
X69750500Y-78203713D01*
X69717246Y-77993757D01*
X69651557Y-77791588D01*
X69555051Y-77602184D01*
X69555049Y-77602181D01*
X69555048Y-77602179D01*
X69430109Y-77430213D01*
X69279786Y-77279890D01*
X69107820Y-77154951D01*
X69107115Y-77154591D01*
X69099054Y-77150485D01*
X69048259Y-77102512D01*
X69031463Y-77034692D01*
X69053999Y-76968556D01*
X69099054Y-76929515D01*
X69107816Y-76925051D01*
X69153796Y-76891645D01*
X69279786Y-76800109D01*
X69279788Y-76800106D01*
X69279792Y-76800104D01*
X69430104Y-76649792D01*
X69430106Y-76649788D01*
X69430109Y-76649786D01*
X69555048Y-76477820D01*
X69555047Y-76477820D01*
X69555051Y-76477816D01*
X69651557Y-76288412D01*
X69717246Y-76086243D01*
X69750500Y-75876287D01*
X69750500Y-75663713D01*
X69717246Y-75453757D01*
X69703506Y-75411473D01*
X69701512Y-75341635D01*
X69733755Y-75285478D01*
X71808506Y-73210728D01*
X71808511Y-73210724D01*
X71818714Y-73200520D01*
X71818716Y-73200520D01*
X71930520Y-73088716D01*
X72009577Y-72951784D01*
X72050500Y-72799057D01*
X72050500Y-56749096D01*
X72070185Y-56682058D01*
X72122989Y-56636303D01*
X72192147Y-56626359D01*
X72255703Y-56655384D01*
X72262181Y-56661416D01*
X72525139Y-56924374D01*
X72525149Y-56924385D01*
X72529479Y-56928715D01*
X72529480Y-56928716D01*
X72641284Y-57040520D01*
X72728095Y-57090639D01*
X72728097Y-57090641D01*
X72766151Y-57112611D01*
X72778215Y-57119577D01*
X72930943Y-57160500D01*
X82400831Y-57160500D01*
X82400847Y-57160501D01*
X82408443Y-57160501D01*
X82566554Y-57160501D01*
X82566557Y-57160501D01*
X82719285Y-57119577D01*
X82769404Y-57090639D01*
X82856216Y-57040520D01*
X82968020Y-56928716D01*
X82968020Y-56928714D01*
X82978228Y-56918507D01*
X82978230Y-56918504D01*
X83471133Y-56425600D01*
X83532454Y-56392117D01*
X83597126Y-56395351D01*
X83733757Y-56439746D01*
X83943713Y-56473000D01*
X83943714Y-56473000D01*
X84156286Y-56473000D01*
X84156287Y-56473000D01*
X84366243Y-56439746D01*
X84502873Y-56395351D01*
X84572708Y-56393356D01*
X84628866Y-56425601D01*
X85243784Y-57040520D01*
X85243786Y-57040521D01*
X85243790Y-57040524D01*
X85380709Y-57119573D01*
X85380712Y-57119575D01*
X85380716Y-57119577D01*
X85533443Y-57160501D01*
X85533445Y-57160501D01*
X85699154Y-57160501D01*
X85699170Y-57160500D01*
X95003331Y-57160500D01*
X95003347Y-57160501D01*
X95010943Y-57160501D01*
X95169054Y-57160501D01*
X95169057Y-57160501D01*
X95321785Y-57119577D01*
X95371904Y-57090639D01*
X95458716Y-57040520D01*
X95570520Y-56928716D01*
X95570520Y-56928714D01*
X95580728Y-56918507D01*
X95580730Y-56918504D01*
X96071133Y-56428100D01*
X96132454Y-56394617D01*
X96197126Y-56397851D01*
X96333757Y-56442246D01*
X96543713Y-56475500D01*
X96543714Y-56475500D01*
X96756286Y-56475500D01*
X96756287Y-56475500D01*
X96966243Y-56442246D01*
X97168412Y-56376557D01*
X97357816Y-56280051D01*
X97379789Y-56264086D01*
X97529786Y-56155109D01*
X97529788Y-56155106D01*
X97529792Y-56155104D01*
X97680104Y-56004792D01*
X97799683Y-55840204D01*
X97855011Y-55797540D01*
X97924624Y-55791561D01*
X97986420Y-55824166D01*
X98000313Y-55840199D01*
X98074621Y-55942476D01*
X98119896Y-56004792D01*
X98270213Y-56155109D01*
X98442179Y-56280048D01*
X98442181Y-56280049D01*
X98442184Y-56280051D01*
X98631588Y-56376557D01*
X98833757Y-56442246D01*
X99043713Y-56475500D01*
X99043714Y-56475500D01*
X99256286Y-56475500D01*
X99256287Y-56475500D01*
X99466243Y-56442246D01*
X99668412Y-56376557D01*
X99857816Y-56280051D01*
X99879789Y-56264086D01*
X100029786Y-56155109D01*
X100029788Y-56155106D01*
X100029792Y-56155104D01*
X100180104Y-56004792D01*
X100180106Y-56004788D01*
X100180109Y-56004786D01*
X100305048Y-55832820D01*
X100305047Y-55832820D01*
X100305051Y-55832816D01*
X100401557Y-55643412D01*
X100467246Y-55441243D01*
X100500500Y-55231287D01*
X100500500Y-54768713D01*
X100467246Y-54558757D01*
X100401557Y-54356588D01*
X100305051Y-54167184D01*
X100305049Y-54167181D01*
X100305048Y-54167179D01*
X100180109Y-53995213D01*
X100029786Y-53844890D01*
X99857820Y-53719951D01*
X99668414Y-53623444D01*
X99668413Y-53623443D01*
X99668412Y-53623443D01*
X99466243Y-53557754D01*
X99466241Y-53557753D01*
X99466240Y-53557753D01*
X99294125Y-53530493D01*
X99256287Y-53524500D01*
X99043713Y-53524500D01*
X99005875Y-53530493D01*
X98833760Y-53557753D01*
X98631585Y-53623444D01*
X98442179Y-53719951D01*
X98270213Y-53844890D01*
X98119894Y-53995209D01*
X98119890Y-53995214D01*
X98000318Y-54159793D01*
X97944989Y-54202459D01*
X97875375Y-54208438D01*
X97813580Y-54175833D01*
X97799682Y-54159793D01*
X97680109Y-53995214D01*
X97680105Y-53995209D01*
X97529786Y-53844890D01*
X97357820Y-53719951D01*
X97168414Y-53623444D01*
X97168413Y-53623443D01*
X97168412Y-53623443D01*
X96966243Y-53557754D01*
X96966241Y-53557753D01*
X96966240Y-53557753D01*
X96794125Y-53530493D01*
X96756287Y-53524500D01*
X96543713Y-53524500D01*
X96505875Y-53530493D01*
X96333760Y-53557753D01*
X96131585Y-53623444D01*
X95942179Y-53719951D01*
X95770213Y-53844890D01*
X95619894Y-53995209D01*
X95619890Y-53995214D01*
X95500318Y-54159793D01*
X95444989Y-54202459D01*
X95375375Y-54208438D01*
X95313580Y-54175833D01*
X95299682Y-54159793D01*
X95180109Y-53995214D01*
X95180105Y-53995209D01*
X95029786Y-53844890D01*
X94857820Y-53719951D01*
X94668414Y-53623444D01*
X94668413Y-53623443D01*
X94668412Y-53623443D01*
X94466243Y-53557754D01*
X94466241Y-53557753D01*
X94466240Y-53557753D01*
X94294125Y-53530493D01*
X94256287Y-53524500D01*
X94043713Y-53524500D01*
X94005875Y-53530493D01*
X93833760Y-53557753D01*
X93833757Y-53557754D01*
X93697129Y-53602147D01*
X93627290Y-53604142D01*
X93571132Y-53571897D01*
X93067590Y-53068355D01*
X93067588Y-53068352D01*
X92948717Y-52949481D01*
X92948716Y-52949480D01*
X92861904Y-52899360D01*
X92861904Y-52899359D01*
X92861900Y-52899358D01*
X92811785Y-52870423D01*
X92659057Y-52829499D01*
X92500943Y-52829499D01*
X92493347Y-52829499D01*
X92493331Y-52829500D01*
X83204170Y-52829500D01*
X83204154Y-52829499D01*
X83196558Y-52829499D01*
X83038443Y-52829499D01*
X82962079Y-52849961D01*
X82885714Y-52870423D01*
X82885709Y-52870426D01*
X82748790Y-52949475D01*
X82748782Y-52949481D01*
X82128867Y-53569396D01*
X82067544Y-53602881D01*
X82002868Y-53599646D01*
X81866240Y-53555253D01*
X81672071Y-53524500D01*
X81656287Y-53522000D01*
X81443713Y-53522000D01*
X81427929Y-53524500D01*
X81233760Y-53555253D01*
X81233757Y-53555254D01*
X81097129Y-53599647D01*
X81027290Y-53601642D01*
X80971132Y-53569397D01*
X80450090Y-53048355D01*
X80450088Y-53048352D01*
X80331217Y-52929481D01*
X80331216Y-52929480D01*
X80244404Y-52879360D01*
X80244404Y-52879359D01*
X80244400Y-52879358D01*
X80194285Y-52850423D01*
X80041557Y-52809499D01*
X79883443Y-52809499D01*
X79875847Y-52809499D01*
X79875831Y-52809500D01*
X70626670Y-52809500D01*
X70626654Y-52809499D01*
X70619058Y-52809499D01*
X70460943Y-52809499D01*
X70386307Y-52829498D01*
X70308214Y-52850423D01*
X70308209Y-52850426D01*
X70171290Y-52929475D01*
X70171282Y-52929481D01*
X69528867Y-53571896D01*
X69467544Y-53605381D01*
X69402868Y-53602146D01*
X69266240Y-53557753D01*
X69094125Y-53530493D01*
X69056287Y-53524500D01*
X68843713Y-53524500D01*
X68805875Y-53530493D01*
X68633760Y-53557753D01*
X68633757Y-53557754D01*
X68497129Y-53602147D01*
X68427290Y-53604142D01*
X68371132Y-53571897D01*
X67857590Y-53058355D01*
X67857588Y-53058352D01*
X67738717Y-52939481D01*
X67738709Y-52939475D01*
X67619106Y-52870423D01*
X67619106Y-52870422D01*
X67619101Y-52870421D01*
X67605679Y-52862671D01*
X67601786Y-52860423D01*
X67563603Y-52850192D01*
X67449057Y-52819499D01*
X67290943Y-52819499D01*
X67283347Y-52819499D01*
X67283331Y-52819500D01*
X57845941Y-52819500D01*
X57808625Y-52829498D01*
X57808626Y-52829499D01*
X57693214Y-52860423D01*
X57693209Y-52860426D01*
X57556290Y-52939475D01*
X57556282Y-52939481D01*
X57444478Y-53051286D01*
X56928867Y-53566896D01*
X56867544Y-53600381D01*
X56802868Y-53597146D01*
X56666240Y-53552753D01*
X56504957Y-53527208D01*
X56456287Y-53519500D01*
X56243713Y-53519500D01*
X56195042Y-53527208D01*
X56033760Y-53552753D01*
X55831585Y-53618444D01*
X55642179Y-53714951D01*
X55470215Y-53839889D01*
X55331035Y-53979069D01*
X55269712Y-54012553D01*
X55200020Y-54007569D01*
X55144087Y-53965697D01*
X55137815Y-53956484D01*
X55042315Y-53801654D01*
X54918345Y-53677684D01*
X54769124Y-53585643D01*
X54769119Y-53585641D01*
X54602697Y-53530494D01*
X54602690Y-53530493D01*
X54499986Y-53520000D01*
X54100000Y-53520000D01*
X54100000Y-54590854D01*
X54033343Y-54552370D01*
X53912535Y-54520000D01*
X53787465Y-54520000D01*
X53666657Y-54552370D01*
X53600000Y-54590854D01*
X53600000Y-53520000D01*
X53200028Y-53520000D01*
X53200012Y-53520001D01*
X53097302Y-53530494D01*
X52930880Y-53585641D01*
X52930875Y-53585643D01*
X52781654Y-53677684D01*
X52657684Y-53801654D01*
X52565643Y-53950875D01*
X52565641Y-53950880D01*
X52510494Y-54117302D01*
X52510493Y-54117309D01*
X52500000Y-54220013D01*
X52500000Y-54745000D01*
X53445854Y-54745000D01*
X53407370Y-54811657D01*
X53375000Y-54932465D01*
X53375000Y-55057535D01*
X53407370Y-55178343D01*
X53445854Y-55245000D01*
X52500001Y-55245000D01*
X52500001Y-55769986D01*
X52510494Y-55872697D01*
X52565641Y-56039119D01*
X52565643Y-56039124D01*
X52657684Y-56188345D01*
X52781654Y-56312315D01*
X52930875Y-56404356D01*
X52930880Y-56404358D01*
X53097302Y-56459505D01*
X53097309Y-56459506D01*
X53200019Y-56469999D01*
X53599999Y-56469999D01*
X53600000Y-56469998D01*
X53600000Y-55399145D01*
X53666657Y-55437630D01*
X53787465Y-55470000D01*
X53912535Y-55470000D01*
X54033343Y-55437630D01*
X54100000Y-55399145D01*
X54100000Y-56344402D01*
X54080315Y-56411441D01*
X54063681Y-56432083D01*
X50766320Y-59729443D01*
X50766318Y-59729446D01*
X50759936Y-59740500D01*
X50730097Y-59792184D01*
X50687262Y-59866376D01*
X50646338Y-60019104D01*
X50646338Y-60019106D01*
X50646338Y-60187207D01*
X50646339Y-60187220D01*
X50646339Y-71336308D01*
X50626654Y-71403347D01*
X50573850Y-71449102D01*
X50554435Y-71456082D01*
X50522353Y-71464678D01*
X50353691Y-71550616D01*
X50206582Y-71669743D01*
X50087452Y-71816855D01*
X50087321Y-71817114D01*
X50087204Y-71817237D01*
X50083914Y-71822304D01*
X50082987Y-71821702D01*
X50039344Y-71867908D01*
X49971522Y-71884700D01*
X49905388Y-71862159D01*
X49870461Y-71821850D01*
X49869764Y-71822304D01*
X49866502Y-71817281D01*
X49866357Y-71817114D01*
X49866225Y-71816855D01*
X49838268Y-71782331D01*
X49747096Y-71669743D01*
X49645984Y-71587864D01*
X49599985Y-71550614D01*
X49474707Y-71486783D01*
X49431327Y-71464680D01*
X49364401Y-71446747D01*
X49248482Y-71415687D01*
X49169865Y-71409500D01*
X49169860Y-71409500D01*
X48559096Y-71409500D01*
X48492057Y-71389815D01*
X48446302Y-71337011D01*
X48436358Y-71267853D01*
X48465383Y-71204297D01*
X48471415Y-71197819D01*
X48872948Y-70796286D01*
X49333713Y-70335521D01*
X49333716Y-70335520D01*
X49445520Y-70223716D01*
X49495639Y-70136904D01*
X49524577Y-70086785D01*
X49565500Y-69934058D01*
X49565500Y-69775943D01*
X49565500Y-55429499D01*
X49585185Y-55362460D01*
X49637989Y-55316705D01*
X49689500Y-55305499D01*
X49862871Y-55305499D01*
X49862872Y-55305499D01*
X49922483Y-55299091D01*
X50057331Y-55248796D01*
X50172546Y-55162546D01*
X50258796Y-55047331D01*
X50309091Y-54912483D01*
X50315500Y-54852873D01*
X50315499Y-53950880D01*
X50315499Y-53057129D01*
X50315498Y-53057123D01*
X50315497Y-53057116D01*
X50309091Y-52997517D01*
X50298261Y-52968481D01*
X50258797Y-52862671D01*
X50258793Y-52862664D01*
X50172547Y-52747455D01*
X50172544Y-52747452D01*
X50057335Y-52661206D01*
X50057328Y-52661202D01*
X49925917Y-52612189D01*
X49869983Y-52570318D01*
X49845566Y-52504853D01*
X49860418Y-52436580D01*
X49881563Y-52408332D01*
X49995104Y-52294792D01*
X50120051Y-52122816D01*
X50216557Y-51933412D01*
X50282246Y-51731243D01*
X50315500Y-51521287D01*
X50315500Y-51308713D01*
X50282246Y-51098757D01*
X50216557Y-50896588D01*
X50216554Y-50896582D01*
X50213766Y-50891109D01*
X50213765Y-50891108D01*
X50186634Y-50837860D01*
X106699500Y-50837860D01*
X106699500Y-51162139D01*
X106731284Y-51484857D01*
X106731287Y-51484874D01*
X106794545Y-51802902D01*
X106794548Y-51802913D01*
X106888686Y-52113247D01*
X106963882Y-52294784D01*
X107010912Y-52408326D01*
X107012786Y-52412849D01*
X107012788Y-52412854D01*
X107165646Y-52698830D01*
X107165657Y-52698848D01*
X107345811Y-52968467D01*
X107345821Y-52968481D01*
X107551546Y-53219158D01*
X107780841Y-53448453D01*
X107780846Y-53448457D01*
X107780847Y-53448458D01*
X108031524Y-53654183D01*
X108301158Y-53834347D01*
X108301167Y-53834352D01*
X108301169Y-53834353D01*
X108587145Y-53987211D01*
X108587147Y-53987211D01*
X108587153Y-53987215D01*
X108886754Y-54111314D01*
X109197077Y-54205449D01*
X109197083Y-54205450D01*
X109197086Y-54205451D01*
X109197097Y-54205454D01*
X109396528Y-54245122D01*
X109515132Y-54268714D01*
X109837857Y-54300500D01*
X109837860Y-54300500D01*
X110162140Y-54300500D01*
X110162143Y-54300500D01*
X110484868Y-54268714D01*
X110642295Y-54237399D01*
X110802902Y-54205454D01*
X110802913Y-54205451D01*
X110802913Y-54205450D01*
X110802923Y-54205449D01*
X111113246Y-54111314D01*
X111412847Y-53987215D01*
X111698842Y-53834347D01*
X111968476Y-53654183D01*
X112219153Y-53448458D01*
X112448458Y-53219153D01*
X112654183Y-52968476D01*
X112834347Y-52698842D01*
X112987215Y-52412847D01*
X113111314Y-52113246D01*
X113205449Y-51802923D01*
X113205451Y-51802913D01*
X113205454Y-51802902D01*
X113237399Y-51642295D01*
X113268714Y-51484868D01*
X113300500Y-51162143D01*
X113300500Y-50837857D01*
X113268714Y-50515132D01*
X113245122Y-50396528D01*
X113205454Y-50197097D01*
X113205451Y-50197086D01*
X113205450Y-50197083D01*
X113205449Y-50197077D01*
X113111314Y-49886754D01*
X112987215Y-49587153D01*
X112878584Y-49383920D01*
X112834353Y-49301169D01*
X112834352Y-49301167D01*
X112834347Y-49301158D01*
X112654183Y-49031524D01*
X112448458Y-48780847D01*
X112448457Y-48780846D01*
X112448453Y-48780841D01*
X112219158Y-48551546D01*
X111968481Y-48345821D01*
X111968480Y-48345820D01*
X111968476Y-48345817D01*
X111698842Y-48165653D01*
X111698837Y-48165650D01*
X111698830Y-48165646D01*
X111412854Y-48012788D01*
X111412849Y-48012786D01*
X111370424Y-47995213D01*
X111325098Y-47976438D01*
X111113247Y-47888686D01*
X110802913Y-47794548D01*
X110802902Y-47794545D01*
X110484874Y-47731287D01*
X110484857Y-47731284D01*
X110240812Y-47707248D01*
X110162143Y-47699500D01*
X109837857Y-47699500D01*
X109765099Y-47706666D01*
X109515142Y-47731284D01*
X109515125Y-47731287D01*
X109197097Y-47794545D01*
X109197086Y-47794548D01*
X108886752Y-47888686D01*
X108587150Y-48012786D01*
X108587145Y-48012788D01*
X108301169Y-48165646D01*
X108301151Y-48165657D01*
X108031532Y-48345811D01*
X108031518Y-48345821D01*
X107780841Y-48551546D01*
X107551546Y-48780841D01*
X107345821Y-49031518D01*
X107345811Y-49031532D01*
X107165657Y-49301151D01*
X107165646Y-49301169D01*
X107012788Y-49587145D01*
X107012786Y-49587150D01*
X106888686Y-49886752D01*
X106794548Y-50197086D01*
X106794545Y-50197097D01*
X106731287Y-50515125D01*
X106731284Y-50515142D01*
X106699500Y-50837860D01*
X50186634Y-50837860D01*
X50120048Y-50707179D01*
X49995109Y-50535213D01*
X49844786Y-50384890D01*
X49672820Y-50259951D01*
X49672115Y-50259591D01*
X49664054Y-50255485D01*
X49613259Y-50207512D01*
X49596463Y-50139692D01*
X49618999Y-50073556D01*
X49664054Y-50034515D01*
X49672816Y-50030051D01*
X49718958Y-49996527D01*
X49844786Y-49905109D01*
X49844788Y-49905106D01*
X49844792Y-49905104D01*
X49995104Y-49754792D01*
X49995106Y-49754788D01*
X49995109Y-49754786D01*
X50120048Y-49582820D01*
X50120047Y-49582820D01*
X50120051Y-49582816D01*
X50216557Y-49393412D01*
X50282246Y-49191243D01*
X50315500Y-48981287D01*
X50315500Y-48768713D01*
X50282246Y-48558757D01*
X50216557Y-48356588D01*
X50120051Y-48167184D01*
X50120049Y-48167181D01*
X50120048Y-48167179D01*
X49995109Y-47995213D01*
X49844786Y-47844890D01*
X49672820Y-47719951D01*
X49483414Y-47623444D01*
X49483413Y-47623443D01*
X49483412Y-47623443D01*
X49281243Y-47557754D01*
X49281241Y-47557753D01*
X49281240Y-47557753D01*
X49119957Y-47532208D01*
X49071287Y-47524500D01*
X48858713Y-47524500D01*
X48810042Y-47532208D01*
X48648760Y-47557753D01*
X48446585Y-47623444D01*
X48257179Y-47719951D01*
X48085213Y-47844890D01*
X47934890Y-47995213D01*
X47809951Y-48167179D01*
X47713444Y-48356585D01*
X47647753Y-48558760D01*
X47614500Y-48768713D01*
X47614500Y-48981286D01*
X47644470Y-49170513D01*
X47647754Y-49191243D01*
X47683471Y-49301169D01*
X47713444Y-49393414D01*
X47809951Y-49582820D01*
X47934890Y-49754786D01*
X48085213Y-49905109D01*
X48257182Y-50030050D01*
X48265946Y-50034516D01*
X48316742Y-50082491D01*
X48333536Y-50150312D01*
X48310998Y-50216447D01*
X48265946Y-50255484D01*
X48257182Y-50259949D01*
X48085213Y-50384890D01*
X47934890Y-50535213D01*
X47809951Y-50707179D01*
X47713444Y-50896585D01*
X47647753Y-51098760D01*
X47614500Y-51308713D01*
X47614500Y-51521287D01*
X47647754Y-51731243D01*
X47671044Y-51802923D01*
X47713444Y-51933414D01*
X47809951Y-52122820D01*
X47934890Y-52294786D01*
X48048430Y-52408326D01*
X48081915Y-52469649D01*
X48076931Y-52539341D01*
X48035059Y-52595274D01*
X48004083Y-52612189D01*
X47872669Y-52661203D01*
X47872664Y-52661206D01*
X47757455Y-52747452D01*
X47757452Y-52747455D01*
X47671206Y-52862664D01*
X47671202Y-52862671D01*
X47620908Y-52997517D01*
X47616203Y-53041284D01*
X47614501Y-53057123D01*
X47614500Y-53057135D01*
X47614500Y-54852870D01*
X47614501Y-54852876D01*
X47620908Y-54912483D01*
X47671202Y-55047328D01*
X47671206Y-55047335D01*
X47757452Y-55162544D01*
X47757455Y-55162547D01*
X47872664Y-55248793D01*
X47872671Y-55248797D01*
X47917618Y-55265561D01*
X48007517Y-55299091D01*
X48067127Y-55305500D01*
X48240500Y-55305499D01*
X48307539Y-55325183D01*
X48353294Y-55377987D01*
X48364500Y-55429499D01*
X48364500Y-59535242D01*
X48344815Y-59602281D01*
X48292011Y-59648036D01*
X48222853Y-59657980D01*
X48159297Y-59628955D01*
X48152819Y-59622923D01*
X47999786Y-59469890D01*
X47827820Y-59344951D01*
X47638414Y-59248444D01*
X47638413Y-59248443D01*
X47638412Y-59248443D01*
X47436243Y-59182754D01*
X47436241Y-59182753D01*
X47436240Y-59182753D01*
X47274957Y-59157208D01*
X47226287Y-59149500D01*
X46763713Y-59149500D01*
X46715042Y-59157208D01*
X46553760Y-59182753D01*
X46351585Y-59248444D01*
X46162179Y-59344951D01*
X45990213Y-59469890D01*
X45839890Y-59620213D01*
X45714951Y-59792179D01*
X45618444Y-59981585D01*
X45552753Y-60183760D01*
X45543846Y-60240000D01*
X45519500Y-60393713D01*
X45519500Y-60606287D01*
X45529534Y-60669644D01*
X45545747Y-60772007D01*
X45552754Y-60816243D01*
X45601088Y-60965000D01*
X45618444Y-61018414D01*
X45714951Y-61207820D01*
X45839890Y-61379786D01*
X45990209Y-61530105D01*
X45990214Y-61530109D01*
X46154793Y-61649682D01*
X46197459Y-61705011D01*
X46203438Y-61774625D01*
X46170833Y-61836420D01*
X46154793Y-61850318D01*
X45990214Y-61969890D01*
X45990209Y-61969894D01*
X45839890Y-62120213D01*
X45714951Y-62292179D01*
X45618444Y-62481585D01*
X45552753Y-62683760D01*
X45544834Y-62733760D01*
X45519500Y-62893713D01*
X45519500Y-63106287D01*
X45520292Y-63111287D01*
X45552753Y-63316240D01*
X45597146Y-63452868D01*
X45599141Y-63522709D01*
X45566896Y-63578867D01*
X40718125Y-68427639D01*
X40606320Y-68539443D01*
X40606318Y-68539446D01*
X40575265Y-68593233D01*
X40575264Y-68593234D01*
X40527263Y-68676372D01*
X40527262Y-68676373D01*
X40502707Y-68768012D01*
X40486338Y-68829104D01*
X40486338Y-68829106D01*
X40486338Y-68997207D01*
X40486339Y-68997220D01*
X40486339Y-71336308D01*
X40466654Y-71403347D01*
X40413850Y-71449102D01*
X40394435Y-71456082D01*
X40362353Y-71464678D01*
X40193691Y-71550616D01*
X40046582Y-71669743D01*
X39927453Y-71816853D01*
X39841519Y-71985512D01*
X39792526Y-72168356D01*
X39792526Y-72168357D01*
X39786339Y-72246973D01*
X39200500Y-72246973D01*
X39200500Y-50837860D01*
X39699500Y-50837860D01*
X39699500Y-51162139D01*
X39731284Y-51484857D01*
X39731287Y-51484874D01*
X39794545Y-51802902D01*
X39794548Y-51802913D01*
X39888686Y-52113247D01*
X39963882Y-52294784D01*
X40010912Y-52408326D01*
X40012786Y-52412849D01*
X40012788Y-52412854D01*
X40165646Y-52698830D01*
X40165657Y-52698848D01*
X40345811Y-52968467D01*
X40345821Y-52968481D01*
X40551546Y-53219158D01*
X40780841Y-53448453D01*
X40780846Y-53448457D01*
X40780847Y-53448458D01*
X41031524Y-53654183D01*
X41301158Y-53834347D01*
X41301167Y-53834352D01*
X41301169Y-53834353D01*
X41587145Y-53987211D01*
X41587147Y-53987211D01*
X41587153Y-53987215D01*
X41886754Y-54111314D01*
X42197077Y-54205449D01*
X42197083Y-54205450D01*
X42197086Y-54205451D01*
X42197097Y-54205454D01*
X42396528Y-54245122D01*
X42515132Y-54268714D01*
X42837857Y-54300500D01*
X42837860Y-54300500D01*
X43162140Y-54300500D01*
X43162143Y-54300500D01*
X43484868Y-54268714D01*
X43642295Y-54237399D01*
X43802902Y-54205454D01*
X43802913Y-54205451D01*
X43802913Y-54205450D01*
X43802923Y-54205449D01*
X44113246Y-54111314D01*
X44412847Y-53987215D01*
X44698842Y-53834347D01*
X44968476Y-53654183D01*
X45219153Y-53448458D01*
X45448458Y-53219153D01*
X45654183Y-52968476D01*
X45834347Y-52698842D01*
X45987215Y-52412847D01*
X46111314Y-52113246D01*
X46205449Y-51802923D01*
X46205451Y-51802913D01*
X46205454Y-51802902D01*
X46237399Y-51642295D01*
X46268714Y-51484868D01*
X46300500Y-51162143D01*
X46300500Y-50837857D01*
X46268714Y-50515132D01*
X46245122Y-50396528D01*
X46205454Y-50197097D01*
X46205451Y-50197086D01*
X46205450Y-50197083D01*
X46205449Y-50197077D01*
X46111314Y-49886754D01*
X45987215Y-49587153D01*
X45878584Y-49383920D01*
X45834353Y-49301169D01*
X45834352Y-49301167D01*
X45834347Y-49301158D01*
X45654183Y-49031524D01*
X45448458Y-48780847D01*
X45448457Y-48780846D01*
X45448453Y-48780841D01*
X45219158Y-48551546D01*
X44968481Y-48345821D01*
X44968480Y-48345820D01*
X44968476Y-48345817D01*
X44698842Y-48165653D01*
X44698837Y-48165650D01*
X44698830Y-48165646D01*
X44412854Y-48012788D01*
X44412849Y-48012786D01*
X44370424Y-47995213D01*
X44325098Y-47976438D01*
X44113247Y-47888686D01*
X43802913Y-47794548D01*
X43802902Y-47794545D01*
X43484874Y-47731287D01*
X43484857Y-47731284D01*
X43240812Y-47707248D01*
X43162143Y-47699500D01*
X42837857Y-47699500D01*
X42765099Y-47706666D01*
X42515142Y-47731284D01*
X42515125Y-47731287D01*
X42197097Y-47794545D01*
X42197086Y-47794548D01*
X41886752Y-47888686D01*
X41587150Y-48012786D01*
X41587145Y-48012788D01*
X41301169Y-48165646D01*
X41301151Y-48165657D01*
X41031532Y-48345811D01*
X41031518Y-48345821D01*
X40780841Y-48551546D01*
X40551546Y-48780841D01*
X40345821Y-49031518D01*
X40345811Y-49031532D01*
X40165657Y-49301151D01*
X40165646Y-49301169D01*
X40012788Y-49587145D01*
X40012786Y-49587150D01*
X39888686Y-49886752D01*
X39794548Y-50197086D01*
X39794545Y-50197097D01*
X39731287Y-50515125D01*
X39731284Y-50515142D01*
X39699500Y-50837860D01*
X39200500Y-50837860D01*
X39200500Y-50003480D01*
X39200695Y-49996527D01*
X39206860Y-49886752D01*
X39217713Y-49693494D01*
X39219267Y-49679700D01*
X39269523Y-49383915D01*
X39272616Y-49370363D01*
X39330193Y-49170513D01*
X39355673Y-49082068D01*
X39360265Y-49068948D01*
X39396575Y-48981287D01*
X39475075Y-48791768D01*
X39481097Y-48779262D01*
X39626230Y-48516665D01*
X39633625Y-48504897D01*
X39807245Y-48260201D01*
X39815896Y-48249354D01*
X40015816Y-48025645D01*
X40025647Y-48015815D01*
X40029034Y-48012788D01*
X40249354Y-47815896D01*
X40260201Y-47807245D01*
X40504902Y-47633621D01*
X40516665Y-47626230D01*
X40779262Y-47481097D01*
X40791768Y-47475075D01*
X41068948Y-47360265D01*
X41082068Y-47355673D01*
X41370369Y-47272614D01*
X41383915Y-47269523D01*
X41679700Y-47219267D01*
X41693494Y-47217713D01*
X41996528Y-47200695D01*
X42003481Y-47200500D01*
X42039882Y-47200500D01*
X110960118Y-47200500D01*
X110996519Y-47200500D01*
X111003472Y-47200695D01*
G37*
%TD.AperFunction*%
%TD*%
M02*
