%TF.GenerationSoftware,KiCad,Pcbnew,9.0.2*%
%TF.CreationDate,2025-07-15T17:02:53+05:30*%
%TF.ProjectId,peripherals-board-v2,70657269-7068-4657-9261-6c732d626f61,2*%
%TF.SameCoordinates,Original*%
%TF.FileFunction,Legend,Bot*%
%TF.FilePolarity,Positive*%
%FSLAX46Y46*%
G04 Gerber Fmt 4.6, Leading zero omitted, Abs format (unit mm)*
G04 Created by KiCad (PCBNEW 9.0.2) date 2025-07-15 17:02:53*
%MOMM*%
%LPD*%
G01*
G04 APERTURE LIST*
%ADD10C,0.125000*%
%ADD11C,0.225000*%
%ADD12C,0.460000*%
G04 APERTURE END LIST*
D10*
X90779668Y-67141119D02*
X90779668Y-66141119D01*
X90779668Y-66141119D02*
X90541573Y-66141119D01*
X90541573Y-66141119D02*
X90398716Y-66188738D01*
X90398716Y-66188738D02*
X90303478Y-66283976D01*
X90303478Y-66283976D02*
X90255859Y-66379214D01*
X90255859Y-66379214D02*
X90208240Y-66569690D01*
X90208240Y-66569690D02*
X90208240Y-66712547D01*
X90208240Y-66712547D02*
X90255859Y-66903023D01*
X90255859Y-66903023D02*
X90303478Y-66998261D01*
X90303478Y-66998261D02*
X90398716Y-67093500D01*
X90398716Y-67093500D02*
X90541573Y-67141119D01*
X90541573Y-67141119D02*
X90779668Y-67141119D01*
X89398716Y-67093500D02*
X89493954Y-67141119D01*
X89493954Y-67141119D02*
X89684430Y-67141119D01*
X89684430Y-67141119D02*
X89779668Y-67093500D01*
X89779668Y-67093500D02*
X89827287Y-66998261D01*
X89827287Y-66998261D02*
X89827287Y-66617309D01*
X89827287Y-66617309D02*
X89779668Y-66522071D01*
X89779668Y-66522071D02*
X89684430Y-66474452D01*
X89684430Y-66474452D02*
X89493954Y-66474452D01*
X89493954Y-66474452D02*
X89398716Y-66522071D01*
X89398716Y-66522071D02*
X89351097Y-66617309D01*
X89351097Y-66617309D02*
X89351097Y-66712547D01*
X89351097Y-66712547D02*
X89827287Y-66807785D01*
X88970144Y-67093500D02*
X88874906Y-67141119D01*
X88874906Y-67141119D02*
X88684430Y-67141119D01*
X88684430Y-67141119D02*
X88589192Y-67093500D01*
X88589192Y-67093500D02*
X88541573Y-66998261D01*
X88541573Y-66998261D02*
X88541573Y-66950642D01*
X88541573Y-66950642D02*
X88589192Y-66855404D01*
X88589192Y-66855404D02*
X88684430Y-66807785D01*
X88684430Y-66807785D02*
X88827287Y-66807785D01*
X88827287Y-66807785D02*
X88922525Y-66760166D01*
X88922525Y-66760166D02*
X88970144Y-66664928D01*
X88970144Y-66664928D02*
X88970144Y-66617309D01*
X88970144Y-66617309D02*
X88922525Y-66522071D01*
X88922525Y-66522071D02*
X88827287Y-66474452D01*
X88827287Y-66474452D02*
X88684430Y-66474452D01*
X88684430Y-66474452D02*
X88589192Y-66522071D01*
X88113001Y-67141119D02*
X88113001Y-66474452D01*
X88113001Y-66141119D02*
X88160620Y-66188738D01*
X88160620Y-66188738D02*
X88113001Y-66236357D01*
X88113001Y-66236357D02*
X88065382Y-66188738D01*
X88065382Y-66188738D02*
X88113001Y-66141119D01*
X88113001Y-66141119D02*
X88113001Y-66236357D01*
X87208240Y-66474452D02*
X87208240Y-67283976D01*
X87208240Y-67283976D02*
X87255859Y-67379214D01*
X87255859Y-67379214D02*
X87303478Y-67426833D01*
X87303478Y-67426833D02*
X87398716Y-67474452D01*
X87398716Y-67474452D02*
X87541573Y-67474452D01*
X87541573Y-67474452D02*
X87636811Y-67426833D01*
X87208240Y-67093500D02*
X87303478Y-67141119D01*
X87303478Y-67141119D02*
X87493954Y-67141119D01*
X87493954Y-67141119D02*
X87589192Y-67093500D01*
X87589192Y-67093500D02*
X87636811Y-67045880D01*
X87636811Y-67045880D02*
X87684430Y-66950642D01*
X87684430Y-66950642D02*
X87684430Y-66664928D01*
X87684430Y-66664928D02*
X87636811Y-66569690D01*
X87636811Y-66569690D02*
X87589192Y-66522071D01*
X87589192Y-66522071D02*
X87493954Y-66474452D01*
X87493954Y-66474452D02*
X87303478Y-66474452D01*
X87303478Y-66474452D02*
X87208240Y-66522071D01*
X86732049Y-66474452D02*
X86732049Y-67141119D01*
X86732049Y-66569690D02*
X86684430Y-66522071D01*
X86684430Y-66522071D02*
X86589192Y-66474452D01*
X86589192Y-66474452D02*
X86446335Y-66474452D01*
X86446335Y-66474452D02*
X86351097Y-66522071D01*
X86351097Y-66522071D02*
X86303478Y-66617309D01*
X86303478Y-66617309D02*
X86303478Y-67141119D01*
X85446335Y-67093500D02*
X85541573Y-67141119D01*
X85541573Y-67141119D02*
X85732049Y-67141119D01*
X85732049Y-67141119D02*
X85827287Y-67093500D01*
X85827287Y-67093500D02*
X85874906Y-66998261D01*
X85874906Y-66998261D02*
X85874906Y-66617309D01*
X85874906Y-66617309D02*
X85827287Y-66522071D01*
X85827287Y-66522071D02*
X85732049Y-66474452D01*
X85732049Y-66474452D02*
X85541573Y-66474452D01*
X85541573Y-66474452D02*
X85446335Y-66522071D01*
X85446335Y-66522071D02*
X85398716Y-66617309D01*
X85398716Y-66617309D02*
X85398716Y-66712547D01*
X85398716Y-66712547D02*
X85874906Y-66807785D01*
X84541573Y-67141119D02*
X84541573Y-66141119D01*
X84541573Y-67093500D02*
X84636811Y-67141119D01*
X84636811Y-67141119D02*
X84827287Y-67141119D01*
X84827287Y-67141119D02*
X84922525Y-67093500D01*
X84922525Y-67093500D02*
X84970144Y-67045880D01*
X84970144Y-67045880D02*
X85017763Y-66950642D01*
X85017763Y-66950642D02*
X85017763Y-66664928D01*
X85017763Y-66664928D02*
X84970144Y-66569690D01*
X84970144Y-66569690D02*
X84922525Y-66522071D01*
X84922525Y-66522071D02*
X84827287Y-66474452D01*
X84827287Y-66474452D02*
X84636811Y-66474452D01*
X84636811Y-66474452D02*
X84541573Y-66522071D01*
X83303477Y-67141119D02*
X83303477Y-66141119D01*
X83303477Y-66522071D02*
X83208239Y-66474452D01*
X83208239Y-66474452D02*
X83017763Y-66474452D01*
X83017763Y-66474452D02*
X82922525Y-66522071D01*
X82922525Y-66522071D02*
X82874906Y-66569690D01*
X82874906Y-66569690D02*
X82827287Y-66664928D01*
X82827287Y-66664928D02*
X82827287Y-66950642D01*
X82827287Y-66950642D02*
X82874906Y-67045880D01*
X82874906Y-67045880D02*
X82922525Y-67093500D01*
X82922525Y-67093500D02*
X83017763Y-67141119D01*
X83017763Y-67141119D02*
X83208239Y-67141119D01*
X83208239Y-67141119D02*
X83303477Y-67093500D01*
X82493953Y-66474452D02*
X82255858Y-67141119D01*
X82017763Y-66474452D02*
X82255858Y-67141119D01*
X82255858Y-67141119D02*
X82351096Y-67379214D01*
X82351096Y-67379214D02*
X82398715Y-67426833D01*
X82398715Y-67426833D02*
X82493953Y-67474452D01*
X80922524Y-66855404D02*
X80446334Y-66855404D01*
X81017762Y-67141119D02*
X80684429Y-66141119D01*
X80684429Y-66141119D02*
X80351096Y-67141119D01*
X79589191Y-67141119D02*
X79589191Y-66141119D01*
X79589191Y-67093500D02*
X79684429Y-67141119D01*
X79684429Y-67141119D02*
X79874905Y-67141119D01*
X79874905Y-67141119D02*
X79970143Y-67093500D01*
X79970143Y-67093500D02*
X80017762Y-67045880D01*
X80017762Y-67045880D02*
X80065381Y-66950642D01*
X80065381Y-66950642D02*
X80065381Y-66664928D01*
X80065381Y-66664928D02*
X80017762Y-66569690D01*
X80017762Y-66569690D02*
X79970143Y-66522071D01*
X79970143Y-66522071D02*
X79874905Y-66474452D01*
X79874905Y-66474452D02*
X79684429Y-66474452D01*
X79684429Y-66474452D02*
X79589191Y-66522071D01*
X79113000Y-67141119D02*
X79113000Y-66141119D01*
X79113000Y-66522071D02*
X79017762Y-66474452D01*
X79017762Y-66474452D02*
X78827286Y-66474452D01*
X78827286Y-66474452D02*
X78732048Y-66522071D01*
X78732048Y-66522071D02*
X78684429Y-66569690D01*
X78684429Y-66569690D02*
X78636810Y-66664928D01*
X78636810Y-66664928D02*
X78636810Y-66950642D01*
X78636810Y-66950642D02*
X78684429Y-67045880D01*
X78684429Y-67045880D02*
X78732048Y-67093500D01*
X78732048Y-67093500D02*
X78827286Y-67141119D01*
X78827286Y-67141119D02*
X79017762Y-67141119D01*
X79017762Y-67141119D02*
X79113000Y-67093500D01*
X78208238Y-67141119D02*
X78208238Y-66141119D01*
X77779667Y-67141119D02*
X77779667Y-66617309D01*
X77779667Y-66617309D02*
X77827286Y-66522071D01*
X77827286Y-66522071D02*
X77922524Y-66474452D01*
X77922524Y-66474452D02*
X78065381Y-66474452D01*
X78065381Y-66474452D02*
X78160619Y-66522071D01*
X78160619Y-66522071D02*
X78208238Y-66569690D01*
X76874905Y-66474452D02*
X76874905Y-67141119D01*
X77303476Y-66474452D02*
X77303476Y-66998261D01*
X77303476Y-66998261D02*
X77255857Y-67093500D01*
X77255857Y-67093500D02*
X77160619Y-67141119D01*
X77160619Y-67141119D02*
X77017762Y-67141119D01*
X77017762Y-67141119D02*
X76922524Y-67093500D01*
X76922524Y-67093500D02*
X76874905Y-67045880D01*
X76541571Y-66474452D02*
X76160619Y-66474452D01*
X76398714Y-66141119D02*
X76398714Y-66998261D01*
X76398714Y-66998261D02*
X76351095Y-67093500D01*
X76351095Y-67093500D02*
X76255857Y-67141119D01*
X76255857Y-67141119D02*
X76160619Y-67141119D01*
X75065380Y-67141119D02*
X75065380Y-66141119D01*
X75065380Y-66141119D02*
X74684428Y-66141119D01*
X74684428Y-66141119D02*
X74589190Y-66188738D01*
X74589190Y-66188738D02*
X74541571Y-66236357D01*
X74541571Y-66236357D02*
X74493952Y-66331595D01*
X74493952Y-66331595D02*
X74493952Y-66474452D01*
X74493952Y-66474452D02*
X74541571Y-66569690D01*
X74541571Y-66569690D02*
X74589190Y-66617309D01*
X74589190Y-66617309D02*
X74684428Y-66664928D01*
X74684428Y-66664928D02*
X75065380Y-66664928D01*
X73636809Y-67141119D02*
X73636809Y-66617309D01*
X73636809Y-66617309D02*
X73684428Y-66522071D01*
X73684428Y-66522071D02*
X73779666Y-66474452D01*
X73779666Y-66474452D02*
X73970142Y-66474452D01*
X73970142Y-66474452D02*
X74065380Y-66522071D01*
X73636809Y-67093500D02*
X73732047Y-67141119D01*
X73732047Y-67141119D02*
X73970142Y-67141119D01*
X73970142Y-67141119D02*
X74065380Y-67093500D01*
X74065380Y-67093500D02*
X74112999Y-66998261D01*
X74112999Y-66998261D02*
X74112999Y-66903023D01*
X74112999Y-66903023D02*
X74065380Y-66807785D01*
X74065380Y-66807785D02*
X73970142Y-66760166D01*
X73970142Y-66760166D02*
X73732047Y-66760166D01*
X73732047Y-66760166D02*
X73636809Y-66712547D01*
X73303475Y-66474452D02*
X72922523Y-66474452D01*
X73160618Y-66141119D02*
X73160618Y-66998261D01*
X73160618Y-66998261D02*
X73112999Y-67093500D01*
X73112999Y-67093500D02*
X73017761Y-67141119D01*
X73017761Y-67141119D02*
X72922523Y-67141119D01*
X72589189Y-67141119D02*
X72589189Y-66474452D01*
X72589189Y-66141119D02*
X72636808Y-66188738D01*
X72636808Y-66188738D02*
X72589189Y-66236357D01*
X72589189Y-66236357D02*
X72541570Y-66188738D01*
X72541570Y-66188738D02*
X72589189Y-66141119D01*
X72589189Y-66141119D02*
X72589189Y-66236357D01*
X71970142Y-67141119D02*
X72065380Y-67093500D01*
X72065380Y-67093500D02*
X72112999Y-66998261D01*
X72112999Y-66998261D02*
X72112999Y-66141119D01*
X90351097Y-68751063D02*
X90351097Y-67751063D01*
X90351097Y-68703444D02*
X90446335Y-68751063D01*
X90446335Y-68751063D02*
X90636811Y-68751063D01*
X90636811Y-68751063D02*
X90732049Y-68703444D01*
X90732049Y-68703444D02*
X90779668Y-68655824D01*
X90779668Y-68655824D02*
X90827287Y-68560586D01*
X90827287Y-68560586D02*
X90827287Y-68274872D01*
X90827287Y-68274872D02*
X90779668Y-68179634D01*
X90779668Y-68179634D02*
X90732049Y-68132015D01*
X90732049Y-68132015D02*
X90636811Y-68084396D01*
X90636811Y-68084396D02*
X90446335Y-68084396D01*
X90446335Y-68084396D02*
X90351097Y-68132015D01*
X89874906Y-68751063D02*
X89874906Y-68084396D01*
X89874906Y-67751063D02*
X89922525Y-67798682D01*
X89922525Y-67798682D02*
X89874906Y-67846301D01*
X89874906Y-67846301D02*
X89827287Y-67798682D01*
X89827287Y-67798682D02*
X89874906Y-67751063D01*
X89874906Y-67751063D02*
X89874906Y-67846301D01*
X89493954Y-68084396D02*
X89255859Y-68751063D01*
X89017764Y-68084396D02*
X89255859Y-68751063D01*
X89255859Y-68751063D02*
X89351097Y-68989158D01*
X89351097Y-68989158D02*
X89398716Y-69036777D01*
X89398716Y-69036777D02*
X89493954Y-69084396D01*
X88493954Y-68751063D02*
X88589192Y-68703444D01*
X88589192Y-68703444D02*
X88636811Y-68608205D01*
X88636811Y-68608205D02*
X88636811Y-67751063D01*
X87684430Y-68751063D02*
X87684430Y-68227253D01*
X87684430Y-68227253D02*
X87732049Y-68132015D01*
X87732049Y-68132015D02*
X87827287Y-68084396D01*
X87827287Y-68084396D02*
X88017763Y-68084396D01*
X88017763Y-68084396D02*
X88113001Y-68132015D01*
X87684430Y-68703444D02*
X87779668Y-68751063D01*
X87779668Y-68751063D02*
X88017763Y-68751063D01*
X88017763Y-68751063D02*
X88113001Y-68703444D01*
X88113001Y-68703444D02*
X88160620Y-68608205D01*
X88160620Y-68608205D02*
X88160620Y-68512967D01*
X88160620Y-68512967D02*
X88113001Y-68417729D01*
X88113001Y-68417729D02*
X88017763Y-68370110D01*
X88017763Y-68370110D02*
X87779668Y-68370110D01*
X87779668Y-68370110D02*
X87684430Y-68322491D01*
X87208239Y-68751063D02*
X87208239Y-67751063D01*
X87208239Y-68132015D02*
X87113001Y-68084396D01*
X87113001Y-68084396D02*
X86922525Y-68084396D01*
X86922525Y-68084396D02*
X86827287Y-68132015D01*
X86827287Y-68132015D02*
X86779668Y-68179634D01*
X86779668Y-68179634D02*
X86732049Y-68274872D01*
X86732049Y-68274872D02*
X86732049Y-68560586D01*
X86732049Y-68560586D02*
X86779668Y-68655824D01*
X86779668Y-68655824D02*
X86827287Y-68703444D01*
X86827287Y-68703444D02*
X86922525Y-68751063D01*
X86922525Y-68751063D02*
X87113001Y-68751063D01*
X87113001Y-68751063D02*
X87208239Y-68703444D01*
X86351096Y-68703444D02*
X86255858Y-68751063D01*
X86255858Y-68751063D02*
X86065382Y-68751063D01*
X86065382Y-68751063D02*
X85970144Y-68703444D01*
X85970144Y-68703444D02*
X85922525Y-68608205D01*
X85922525Y-68608205D02*
X85922525Y-68560586D01*
X85922525Y-68560586D02*
X85970144Y-68465348D01*
X85970144Y-68465348D02*
X86065382Y-68417729D01*
X86065382Y-68417729D02*
X86208239Y-68417729D01*
X86208239Y-68417729D02*
X86303477Y-68370110D01*
X86303477Y-68370110D02*
X86351096Y-68274872D01*
X86351096Y-68274872D02*
X86351096Y-68227253D01*
X86351096Y-68227253D02*
X86303477Y-68132015D01*
X86303477Y-68132015D02*
X86208239Y-68084396D01*
X86208239Y-68084396D02*
X86065382Y-68084396D01*
X86065382Y-68084396D02*
X85970144Y-68132015D01*
X85113001Y-68703444D02*
X85208239Y-68751063D01*
X85208239Y-68751063D02*
X85398715Y-68751063D01*
X85398715Y-68751063D02*
X85493953Y-68703444D01*
X85493953Y-68703444D02*
X85541572Y-68608205D01*
X85541572Y-68608205D02*
X85541572Y-68227253D01*
X85541572Y-68227253D02*
X85493953Y-68132015D01*
X85493953Y-68132015D02*
X85398715Y-68084396D01*
X85398715Y-68084396D02*
X85208239Y-68084396D01*
X85208239Y-68084396D02*
X85113001Y-68132015D01*
X85113001Y-68132015D02*
X85065382Y-68227253D01*
X85065382Y-68227253D02*
X85065382Y-68322491D01*
X85065382Y-68322491D02*
X85541572Y-68417729D01*
X84208239Y-68751063D02*
X84208239Y-67751063D01*
X84208239Y-68703444D02*
X84303477Y-68751063D01*
X84303477Y-68751063D02*
X84493953Y-68751063D01*
X84493953Y-68751063D02*
X84589191Y-68703444D01*
X84589191Y-68703444D02*
X84636810Y-68655824D01*
X84636810Y-68655824D02*
X84684429Y-68560586D01*
X84684429Y-68560586D02*
X84684429Y-68274872D01*
X84684429Y-68274872D02*
X84636810Y-68179634D01*
X84636810Y-68179634D02*
X84589191Y-68132015D01*
X84589191Y-68132015D02*
X84493953Y-68084396D01*
X84493953Y-68084396D02*
X84303477Y-68084396D01*
X84303477Y-68084396D02*
X84208239Y-68132015D01*
X83732048Y-68655824D02*
X83684429Y-68703444D01*
X83684429Y-68703444D02*
X83732048Y-68751063D01*
X83732048Y-68751063D02*
X83779667Y-68703444D01*
X83779667Y-68703444D02*
X83732048Y-68655824D01*
X83732048Y-68655824D02*
X83732048Y-68751063D01*
X82827287Y-68084396D02*
X82827287Y-68893920D01*
X82827287Y-68893920D02*
X82874906Y-68989158D01*
X82874906Y-68989158D02*
X82922525Y-69036777D01*
X82922525Y-69036777D02*
X83017763Y-69084396D01*
X83017763Y-69084396D02*
X83160620Y-69084396D01*
X83160620Y-69084396D02*
X83255858Y-69036777D01*
X82827287Y-68703444D02*
X82922525Y-68751063D01*
X82922525Y-68751063D02*
X83113001Y-68751063D01*
X83113001Y-68751063D02*
X83208239Y-68703444D01*
X83208239Y-68703444D02*
X83255858Y-68655824D01*
X83255858Y-68655824D02*
X83303477Y-68560586D01*
X83303477Y-68560586D02*
X83303477Y-68274872D01*
X83303477Y-68274872D02*
X83255858Y-68179634D01*
X83255858Y-68179634D02*
X83208239Y-68132015D01*
X83208239Y-68132015D02*
X83113001Y-68084396D01*
X83113001Y-68084396D02*
X82922525Y-68084396D01*
X82922525Y-68084396D02*
X82827287Y-68132015D01*
X82351096Y-68751063D02*
X82351096Y-68084396D01*
X82351096Y-67751063D02*
X82398715Y-67798682D01*
X82398715Y-67798682D02*
X82351096Y-67846301D01*
X82351096Y-67846301D02*
X82303477Y-67798682D01*
X82303477Y-67798682D02*
X82351096Y-67751063D01*
X82351096Y-67751063D02*
X82351096Y-67846301D01*
X82017763Y-68084396D02*
X81636811Y-68084396D01*
X81874906Y-67751063D02*
X81874906Y-68608205D01*
X81874906Y-68608205D02*
X81827287Y-68703444D01*
X81827287Y-68703444D02*
X81732049Y-68751063D01*
X81732049Y-68751063D02*
X81636811Y-68751063D01*
X81303477Y-68751063D02*
X81303477Y-67751063D01*
X80874906Y-68751063D02*
X80874906Y-68227253D01*
X80874906Y-68227253D02*
X80922525Y-68132015D01*
X80922525Y-68132015D02*
X81017763Y-68084396D01*
X81017763Y-68084396D02*
X81160620Y-68084396D01*
X81160620Y-68084396D02*
X81255858Y-68132015D01*
X81255858Y-68132015D02*
X81303477Y-68179634D01*
X79970144Y-68084396D02*
X79970144Y-68751063D01*
X80398715Y-68084396D02*
X80398715Y-68608205D01*
X80398715Y-68608205D02*
X80351096Y-68703444D01*
X80351096Y-68703444D02*
X80255858Y-68751063D01*
X80255858Y-68751063D02*
X80113001Y-68751063D01*
X80113001Y-68751063D02*
X80017763Y-68703444D01*
X80017763Y-68703444D02*
X79970144Y-68655824D01*
X79493953Y-68751063D02*
X79493953Y-67751063D01*
X79493953Y-68132015D02*
X79398715Y-68084396D01*
X79398715Y-68084396D02*
X79208239Y-68084396D01*
X79208239Y-68084396D02*
X79113001Y-68132015D01*
X79113001Y-68132015D02*
X79065382Y-68179634D01*
X79065382Y-68179634D02*
X79017763Y-68274872D01*
X79017763Y-68274872D02*
X79017763Y-68560586D01*
X79017763Y-68560586D02*
X79065382Y-68655824D01*
X79065382Y-68655824D02*
X79113001Y-68703444D01*
X79113001Y-68703444D02*
X79208239Y-68751063D01*
X79208239Y-68751063D02*
X79398715Y-68751063D01*
X79398715Y-68751063D02*
X79493953Y-68703444D01*
X78589191Y-68655824D02*
X78541572Y-68703444D01*
X78541572Y-68703444D02*
X78589191Y-68751063D01*
X78589191Y-68751063D02*
X78636810Y-68703444D01*
X78636810Y-68703444D02*
X78589191Y-68655824D01*
X78589191Y-68655824D02*
X78589191Y-68751063D01*
X78113001Y-68751063D02*
X78113001Y-68084396D01*
X78113001Y-67751063D02*
X78160620Y-67798682D01*
X78160620Y-67798682D02*
X78113001Y-67846301D01*
X78113001Y-67846301D02*
X78065382Y-67798682D01*
X78065382Y-67798682D02*
X78113001Y-67751063D01*
X78113001Y-67751063D02*
X78113001Y-67846301D01*
X77493954Y-68751063D02*
X77589192Y-68703444D01*
X77589192Y-68703444D02*
X77636811Y-68655824D01*
X77636811Y-68655824D02*
X77684430Y-68560586D01*
X77684430Y-68560586D02*
X77684430Y-68274872D01*
X77684430Y-68274872D02*
X77636811Y-68179634D01*
X77636811Y-68179634D02*
X77589192Y-68132015D01*
X77589192Y-68132015D02*
X77493954Y-68084396D01*
X77493954Y-68084396D02*
X77351097Y-68084396D01*
X77351097Y-68084396D02*
X77255859Y-68132015D01*
X77255859Y-68132015D02*
X77208240Y-68179634D01*
X77208240Y-68179634D02*
X77160621Y-68274872D01*
X77160621Y-68274872D02*
X77160621Y-68560586D01*
X77160621Y-68560586D02*
X77208240Y-68655824D01*
X77208240Y-68655824D02*
X77255859Y-68703444D01*
X77255859Y-68703444D02*
X77351097Y-68751063D01*
X77351097Y-68751063D02*
X77493954Y-68751063D01*
X76017764Y-67703444D02*
X76874906Y-68989158D01*
X75779668Y-68084396D02*
X75589192Y-68751063D01*
X75589192Y-68751063D02*
X75398716Y-68274872D01*
X75398716Y-68274872D02*
X75208240Y-68751063D01*
X75208240Y-68751063D02*
X75017764Y-68084396D01*
X74636811Y-68751063D02*
X74636811Y-68084396D01*
X74636811Y-68274872D02*
X74589192Y-68179634D01*
X74589192Y-68179634D02*
X74541573Y-68132015D01*
X74541573Y-68132015D02*
X74446335Y-68084396D01*
X74446335Y-68084396D02*
X74351097Y-68084396D01*
X73874906Y-68751063D02*
X73970144Y-68703444D01*
X73970144Y-68703444D02*
X74017763Y-68655824D01*
X74017763Y-68655824D02*
X74065382Y-68560586D01*
X74065382Y-68560586D02*
X74065382Y-68274872D01*
X74065382Y-68274872D02*
X74017763Y-68179634D01*
X74017763Y-68179634D02*
X73970144Y-68132015D01*
X73970144Y-68132015D02*
X73874906Y-68084396D01*
X73874906Y-68084396D02*
X73732049Y-68084396D01*
X73732049Y-68084396D02*
X73636811Y-68132015D01*
X73636811Y-68132015D02*
X73589192Y-68179634D01*
X73589192Y-68179634D02*
X73541573Y-68274872D01*
X73541573Y-68274872D02*
X73541573Y-68560586D01*
X73541573Y-68560586D02*
X73589192Y-68655824D01*
X73589192Y-68655824D02*
X73636811Y-68703444D01*
X73636811Y-68703444D02*
X73732049Y-68751063D01*
X73732049Y-68751063D02*
X73874906Y-68751063D01*
X73113001Y-68370110D02*
X72351097Y-68370110D01*
X71922525Y-67846301D02*
X71874906Y-67798682D01*
X71874906Y-67798682D02*
X71779668Y-67751063D01*
X71779668Y-67751063D02*
X71541573Y-67751063D01*
X71541573Y-67751063D02*
X71446335Y-67798682D01*
X71446335Y-67798682D02*
X71398716Y-67846301D01*
X71398716Y-67846301D02*
X71351097Y-67941539D01*
X71351097Y-67941539D02*
X71351097Y-68036777D01*
X71351097Y-68036777D02*
X71398716Y-68179634D01*
X71398716Y-68179634D02*
X71970144Y-68751063D01*
X71970144Y-68751063D02*
X71351097Y-68751063D01*
X70446335Y-67751063D02*
X70922525Y-67751063D01*
X70922525Y-67751063D02*
X70970144Y-68227253D01*
X70970144Y-68227253D02*
X70922525Y-68179634D01*
X70922525Y-68179634D02*
X70827287Y-68132015D01*
X70827287Y-68132015D02*
X70589192Y-68132015D01*
X70589192Y-68132015D02*
X70493954Y-68179634D01*
X70493954Y-68179634D02*
X70446335Y-68227253D01*
X70446335Y-68227253D02*
X70398716Y-68322491D01*
X70398716Y-68322491D02*
X70398716Y-68560586D01*
X70398716Y-68560586D02*
X70446335Y-68655824D01*
X70446335Y-68655824D02*
X70493954Y-68703444D01*
X70493954Y-68703444D02*
X70589192Y-68751063D01*
X70589192Y-68751063D02*
X70827287Y-68751063D01*
X70827287Y-68751063D02*
X70922525Y-68703444D01*
X70922525Y-68703444D02*
X70970144Y-68655824D01*
D11*
X90623402Y-62724014D02*
X90623402Y-60924014D01*
X90623402Y-60924014D02*
X89937688Y-60924014D01*
X89937688Y-60924014D02*
X89766259Y-61009728D01*
X89766259Y-61009728D02*
X89680545Y-61095442D01*
X89680545Y-61095442D02*
X89594831Y-61266871D01*
X89594831Y-61266871D02*
X89594831Y-61524014D01*
X89594831Y-61524014D02*
X89680545Y-61695442D01*
X89680545Y-61695442D02*
X89766259Y-61781157D01*
X89766259Y-61781157D02*
X89937688Y-61866871D01*
X89937688Y-61866871D02*
X90623402Y-61866871D01*
X88137688Y-62638300D02*
X88309116Y-62724014D01*
X88309116Y-62724014D02*
X88651974Y-62724014D01*
X88651974Y-62724014D02*
X88823402Y-62638300D01*
X88823402Y-62638300D02*
X88909116Y-62466871D01*
X88909116Y-62466871D02*
X88909116Y-61781157D01*
X88909116Y-61781157D02*
X88823402Y-61609728D01*
X88823402Y-61609728D02*
X88651974Y-61524014D01*
X88651974Y-61524014D02*
X88309116Y-61524014D01*
X88309116Y-61524014D02*
X88137688Y-61609728D01*
X88137688Y-61609728D02*
X88051974Y-61781157D01*
X88051974Y-61781157D02*
X88051974Y-61952585D01*
X88051974Y-61952585D02*
X88909116Y-62124014D01*
X87280545Y-62724014D02*
X87280545Y-61524014D01*
X87280545Y-61866871D02*
X87194831Y-61695442D01*
X87194831Y-61695442D02*
X87109117Y-61609728D01*
X87109117Y-61609728D02*
X86937688Y-61524014D01*
X86937688Y-61524014D02*
X86766259Y-61524014D01*
X86166259Y-62724014D02*
X86166259Y-61524014D01*
X86166259Y-60924014D02*
X86251973Y-61009728D01*
X86251973Y-61009728D02*
X86166259Y-61095442D01*
X86166259Y-61095442D02*
X86080545Y-61009728D01*
X86080545Y-61009728D02*
X86166259Y-60924014D01*
X86166259Y-60924014D02*
X86166259Y-61095442D01*
X85309116Y-61524014D02*
X85309116Y-63324014D01*
X85309116Y-61609728D02*
X85137688Y-61524014D01*
X85137688Y-61524014D02*
X84794830Y-61524014D01*
X84794830Y-61524014D02*
X84623402Y-61609728D01*
X84623402Y-61609728D02*
X84537688Y-61695442D01*
X84537688Y-61695442D02*
X84451973Y-61866871D01*
X84451973Y-61866871D02*
X84451973Y-62381157D01*
X84451973Y-62381157D02*
X84537688Y-62552585D01*
X84537688Y-62552585D02*
X84623402Y-62638300D01*
X84623402Y-62638300D02*
X84794830Y-62724014D01*
X84794830Y-62724014D02*
X85137688Y-62724014D01*
X85137688Y-62724014D02*
X85309116Y-62638300D01*
X83680545Y-62724014D02*
X83680545Y-60924014D01*
X82909117Y-62724014D02*
X82909117Y-61781157D01*
X82909117Y-61781157D02*
X82994831Y-61609728D01*
X82994831Y-61609728D02*
X83166259Y-61524014D01*
X83166259Y-61524014D02*
X83423402Y-61524014D01*
X83423402Y-61524014D02*
X83594831Y-61609728D01*
X83594831Y-61609728D02*
X83680545Y-61695442D01*
X81366260Y-62638300D02*
X81537688Y-62724014D01*
X81537688Y-62724014D02*
X81880546Y-62724014D01*
X81880546Y-62724014D02*
X82051974Y-62638300D01*
X82051974Y-62638300D02*
X82137688Y-62466871D01*
X82137688Y-62466871D02*
X82137688Y-61781157D01*
X82137688Y-61781157D02*
X82051974Y-61609728D01*
X82051974Y-61609728D02*
X81880546Y-61524014D01*
X81880546Y-61524014D02*
X81537688Y-61524014D01*
X81537688Y-61524014D02*
X81366260Y-61609728D01*
X81366260Y-61609728D02*
X81280546Y-61781157D01*
X81280546Y-61781157D02*
X81280546Y-61952585D01*
X81280546Y-61952585D02*
X82137688Y-62124014D01*
X80509117Y-62724014D02*
X80509117Y-61524014D01*
X80509117Y-61866871D02*
X80423403Y-61695442D01*
X80423403Y-61695442D02*
X80337689Y-61609728D01*
X80337689Y-61609728D02*
X80166260Y-61524014D01*
X80166260Y-61524014D02*
X79994831Y-61524014D01*
X78623403Y-62724014D02*
X78623403Y-61781157D01*
X78623403Y-61781157D02*
X78709117Y-61609728D01*
X78709117Y-61609728D02*
X78880545Y-61524014D01*
X78880545Y-61524014D02*
X79223403Y-61524014D01*
X79223403Y-61524014D02*
X79394831Y-61609728D01*
X78623403Y-62638300D02*
X78794831Y-62724014D01*
X78794831Y-62724014D02*
X79223403Y-62724014D01*
X79223403Y-62724014D02*
X79394831Y-62638300D01*
X79394831Y-62638300D02*
X79480545Y-62466871D01*
X79480545Y-62466871D02*
X79480545Y-62295442D01*
X79480545Y-62295442D02*
X79394831Y-62124014D01*
X79394831Y-62124014D02*
X79223403Y-62038300D01*
X79223403Y-62038300D02*
X78794831Y-62038300D01*
X78794831Y-62038300D02*
X78623403Y-61952585D01*
X77509117Y-62724014D02*
X77680546Y-62638300D01*
X77680546Y-62638300D02*
X77766260Y-62466871D01*
X77766260Y-62466871D02*
X77766260Y-60924014D01*
X76909117Y-62638300D02*
X76737689Y-62724014D01*
X76737689Y-62724014D02*
X76394832Y-62724014D01*
X76394832Y-62724014D02*
X76223403Y-62638300D01*
X76223403Y-62638300D02*
X76137689Y-62466871D01*
X76137689Y-62466871D02*
X76137689Y-62381157D01*
X76137689Y-62381157D02*
X76223403Y-62209728D01*
X76223403Y-62209728D02*
X76394832Y-62124014D01*
X76394832Y-62124014D02*
X76651975Y-62124014D01*
X76651975Y-62124014D02*
X76823403Y-62038300D01*
X76823403Y-62038300D02*
X76909117Y-61866871D01*
X76909117Y-61866871D02*
X76909117Y-61781157D01*
X76909117Y-61781157D02*
X76823403Y-61609728D01*
X76823403Y-61609728D02*
X76651975Y-61524014D01*
X76651975Y-61524014D02*
X76394832Y-61524014D01*
X76394832Y-61524014D02*
X76223403Y-61609728D01*
X73394831Y-61781157D02*
X73137688Y-61866871D01*
X73137688Y-61866871D02*
X73051974Y-61952585D01*
X73051974Y-61952585D02*
X72966260Y-62124014D01*
X72966260Y-62124014D02*
X72966260Y-62381157D01*
X72966260Y-62381157D02*
X73051974Y-62552585D01*
X73051974Y-62552585D02*
X73137688Y-62638300D01*
X73137688Y-62638300D02*
X73309117Y-62724014D01*
X73309117Y-62724014D02*
X73994831Y-62724014D01*
X73994831Y-62724014D02*
X73994831Y-60924014D01*
X73994831Y-60924014D02*
X73394831Y-60924014D01*
X73394831Y-60924014D02*
X73223403Y-61009728D01*
X73223403Y-61009728D02*
X73137688Y-61095442D01*
X73137688Y-61095442D02*
X73051974Y-61266871D01*
X73051974Y-61266871D02*
X73051974Y-61438300D01*
X73051974Y-61438300D02*
X73137688Y-61609728D01*
X73137688Y-61609728D02*
X73223403Y-61695442D01*
X73223403Y-61695442D02*
X73394831Y-61781157D01*
X73394831Y-61781157D02*
X73994831Y-61781157D01*
X71937688Y-62724014D02*
X72109117Y-62638300D01*
X72109117Y-62638300D02*
X72194831Y-62552585D01*
X72194831Y-62552585D02*
X72280545Y-62381157D01*
X72280545Y-62381157D02*
X72280545Y-61866871D01*
X72280545Y-61866871D02*
X72194831Y-61695442D01*
X72194831Y-61695442D02*
X72109117Y-61609728D01*
X72109117Y-61609728D02*
X71937688Y-61524014D01*
X71937688Y-61524014D02*
X71680545Y-61524014D01*
X71680545Y-61524014D02*
X71509117Y-61609728D01*
X71509117Y-61609728D02*
X71423403Y-61695442D01*
X71423403Y-61695442D02*
X71337688Y-61866871D01*
X71337688Y-61866871D02*
X71337688Y-62381157D01*
X71337688Y-62381157D02*
X71423403Y-62552585D01*
X71423403Y-62552585D02*
X71509117Y-62638300D01*
X71509117Y-62638300D02*
X71680545Y-62724014D01*
X71680545Y-62724014D02*
X71937688Y-62724014D01*
X69794832Y-62724014D02*
X69794832Y-61781157D01*
X69794832Y-61781157D02*
X69880546Y-61609728D01*
X69880546Y-61609728D02*
X70051974Y-61524014D01*
X70051974Y-61524014D02*
X70394832Y-61524014D01*
X70394832Y-61524014D02*
X70566260Y-61609728D01*
X69794832Y-62638300D02*
X69966260Y-62724014D01*
X69966260Y-62724014D02*
X70394832Y-62724014D01*
X70394832Y-62724014D02*
X70566260Y-62638300D01*
X70566260Y-62638300D02*
X70651974Y-62466871D01*
X70651974Y-62466871D02*
X70651974Y-62295442D01*
X70651974Y-62295442D02*
X70566260Y-62124014D01*
X70566260Y-62124014D02*
X70394832Y-62038300D01*
X70394832Y-62038300D02*
X69966260Y-62038300D01*
X69966260Y-62038300D02*
X69794832Y-61952585D01*
X68937689Y-62724014D02*
X68937689Y-61524014D01*
X68937689Y-61866871D02*
X68851975Y-61695442D01*
X68851975Y-61695442D02*
X68766261Y-61609728D01*
X68766261Y-61609728D02*
X68594832Y-61524014D01*
X68594832Y-61524014D02*
X68423403Y-61524014D01*
X67051975Y-62724014D02*
X67051975Y-60924014D01*
X67051975Y-62638300D02*
X67223403Y-62724014D01*
X67223403Y-62724014D02*
X67566260Y-62724014D01*
X67566260Y-62724014D02*
X67737689Y-62638300D01*
X67737689Y-62638300D02*
X67823403Y-62552585D01*
X67823403Y-62552585D02*
X67909117Y-62381157D01*
X67909117Y-62381157D02*
X67909117Y-61866871D01*
X67909117Y-61866871D02*
X67823403Y-61695442D01*
X67823403Y-61695442D02*
X67737689Y-61609728D01*
X67737689Y-61609728D02*
X67566260Y-61524014D01*
X67566260Y-61524014D02*
X67223403Y-61524014D01*
X67223403Y-61524014D02*
X67051975Y-61609728D01*
X90623402Y-65621913D02*
X90623402Y-63821913D01*
X90623402Y-64679056D02*
X89594831Y-64679056D01*
X89594831Y-65621913D02*
X89594831Y-63821913D01*
X88909117Y-63821913D02*
X88480545Y-65621913D01*
X88480545Y-65621913D02*
X88137688Y-64336199D01*
X88137688Y-64336199D02*
X87794831Y-65621913D01*
X87794831Y-65621913D02*
X87366260Y-63821913D01*
X84280545Y-65621913D02*
X84880545Y-64764770D01*
X85309116Y-65621913D02*
X85309116Y-63821913D01*
X85309116Y-63821913D02*
X84623402Y-63821913D01*
X84623402Y-63821913D02*
X84451973Y-63907627D01*
X84451973Y-63907627D02*
X84366259Y-63993341D01*
X84366259Y-63993341D02*
X84280545Y-64164770D01*
X84280545Y-64164770D02*
X84280545Y-64421913D01*
X84280545Y-64421913D02*
X84366259Y-64593341D01*
X84366259Y-64593341D02*
X84451973Y-64679056D01*
X84451973Y-64679056D02*
X84623402Y-64764770D01*
X84623402Y-64764770D02*
X85309116Y-64764770D01*
X82823402Y-65536199D02*
X82994830Y-65621913D01*
X82994830Y-65621913D02*
X83337688Y-65621913D01*
X83337688Y-65621913D02*
X83509116Y-65536199D01*
X83509116Y-65536199D02*
X83594830Y-65364770D01*
X83594830Y-65364770D02*
X83594830Y-64679056D01*
X83594830Y-64679056D02*
X83509116Y-64507627D01*
X83509116Y-64507627D02*
X83337688Y-64421913D01*
X83337688Y-64421913D02*
X82994830Y-64421913D01*
X82994830Y-64421913D02*
X82823402Y-64507627D01*
X82823402Y-64507627D02*
X82737688Y-64679056D01*
X82737688Y-64679056D02*
X82737688Y-64850484D01*
X82737688Y-64850484D02*
X83594830Y-65021913D01*
X82137688Y-64421913D02*
X81709116Y-65621913D01*
X81709116Y-65621913D02*
X81280545Y-64421913D01*
X80594830Y-65621913D02*
X80594830Y-64421913D01*
X80594830Y-63821913D02*
X80680544Y-63907627D01*
X80680544Y-63907627D02*
X80594830Y-63993341D01*
X80594830Y-63993341D02*
X80509116Y-63907627D01*
X80509116Y-63907627D02*
X80594830Y-63821913D01*
X80594830Y-63821913D02*
X80594830Y-63993341D01*
X79823401Y-65536199D02*
X79651973Y-65621913D01*
X79651973Y-65621913D02*
X79309116Y-65621913D01*
X79309116Y-65621913D02*
X79137687Y-65536199D01*
X79137687Y-65536199D02*
X79051973Y-65364770D01*
X79051973Y-65364770D02*
X79051973Y-65279056D01*
X79051973Y-65279056D02*
X79137687Y-65107627D01*
X79137687Y-65107627D02*
X79309116Y-65021913D01*
X79309116Y-65021913D02*
X79566259Y-65021913D01*
X79566259Y-65021913D02*
X79737687Y-64936199D01*
X79737687Y-64936199D02*
X79823401Y-64764770D01*
X79823401Y-64764770D02*
X79823401Y-64679056D01*
X79823401Y-64679056D02*
X79737687Y-64507627D01*
X79737687Y-64507627D02*
X79566259Y-64421913D01*
X79566259Y-64421913D02*
X79309116Y-64421913D01*
X79309116Y-64421913D02*
X79137687Y-64507627D01*
X78280544Y-65621913D02*
X78280544Y-64421913D01*
X78280544Y-63821913D02*
X78366258Y-63907627D01*
X78366258Y-63907627D02*
X78280544Y-63993341D01*
X78280544Y-63993341D02*
X78194830Y-63907627D01*
X78194830Y-63907627D02*
X78280544Y-63821913D01*
X78280544Y-63821913D02*
X78280544Y-63993341D01*
X77166258Y-65621913D02*
X77337687Y-65536199D01*
X77337687Y-65536199D02*
X77423401Y-65450484D01*
X77423401Y-65450484D02*
X77509115Y-65279056D01*
X77509115Y-65279056D02*
X77509115Y-64764770D01*
X77509115Y-64764770D02*
X77423401Y-64593341D01*
X77423401Y-64593341D02*
X77337687Y-64507627D01*
X77337687Y-64507627D02*
X77166258Y-64421913D01*
X77166258Y-64421913D02*
X76909115Y-64421913D01*
X76909115Y-64421913D02*
X76737687Y-64507627D01*
X76737687Y-64507627D02*
X76651973Y-64593341D01*
X76651973Y-64593341D02*
X76566258Y-64764770D01*
X76566258Y-64764770D02*
X76566258Y-65279056D01*
X76566258Y-65279056D02*
X76651973Y-65450484D01*
X76651973Y-65450484D02*
X76737687Y-65536199D01*
X76737687Y-65536199D02*
X76909115Y-65621913D01*
X76909115Y-65621913D02*
X77166258Y-65621913D01*
X75794830Y-64421913D02*
X75794830Y-65621913D01*
X75794830Y-64593341D02*
X75709116Y-64507627D01*
X75709116Y-64507627D02*
X75537687Y-64421913D01*
X75537687Y-64421913D02*
X75280544Y-64421913D01*
X75280544Y-64421913D02*
X75109116Y-64507627D01*
X75109116Y-64507627D02*
X75023402Y-64679056D01*
X75023402Y-64679056D02*
X75023402Y-65621913D01*
X72880544Y-63993341D02*
X72794830Y-63907627D01*
X72794830Y-63907627D02*
X72623402Y-63821913D01*
X72623402Y-63821913D02*
X72194830Y-63821913D01*
X72194830Y-63821913D02*
X72023402Y-63907627D01*
X72023402Y-63907627D02*
X71937687Y-63993341D01*
X71937687Y-63993341D02*
X71851973Y-64164770D01*
X71851973Y-64164770D02*
X71851973Y-64336199D01*
X71851973Y-64336199D02*
X71937687Y-64593341D01*
X71937687Y-64593341D02*
X72966259Y-65621913D01*
X72966259Y-65621913D02*
X71851973Y-65621913D01*
D12*
X89214286Y-59975556D02*
X89323810Y-60085080D01*
X89323810Y-60085080D02*
X89652381Y-60194603D01*
X89652381Y-60194603D02*
X89871429Y-60194603D01*
X89871429Y-60194603D02*
X90200000Y-60085080D01*
X90200000Y-60085080D02*
X90419048Y-59866032D01*
X90419048Y-59866032D02*
X90528571Y-59646984D01*
X90528571Y-59646984D02*
X90638095Y-59208889D01*
X90638095Y-59208889D02*
X90638095Y-58880318D01*
X90638095Y-58880318D02*
X90528571Y-58442222D01*
X90528571Y-58442222D02*
X90419048Y-58223175D01*
X90419048Y-58223175D02*
X90200000Y-58004127D01*
X90200000Y-58004127D02*
X89871429Y-57894603D01*
X89871429Y-57894603D02*
X89652381Y-57894603D01*
X89652381Y-57894603D02*
X89323810Y-58004127D01*
X89323810Y-58004127D02*
X89214286Y-58113651D01*
X88557143Y-57894603D02*
X87242857Y-57894603D01*
X87900000Y-60194603D02*
X87900000Y-57894603D01*
X85161905Y-60194603D02*
X85928571Y-59099365D01*
X86476190Y-60194603D02*
X86476190Y-57894603D01*
X86476190Y-57894603D02*
X85600000Y-57894603D01*
X85600000Y-57894603D02*
X85380952Y-58004127D01*
X85380952Y-58004127D02*
X85271429Y-58113651D01*
X85271429Y-58113651D02*
X85161905Y-58332699D01*
X85161905Y-58332699D02*
X85161905Y-58661270D01*
X85161905Y-58661270D02*
X85271429Y-58880318D01*
X85271429Y-58880318D02*
X85380952Y-58989841D01*
X85380952Y-58989841D02*
X85600000Y-59099365D01*
X85600000Y-59099365D02*
X86476190Y-59099365D01*
X83080952Y-60194603D02*
X84176190Y-60194603D01*
X84176190Y-60194603D02*
X84176190Y-57894603D01*
X82314285Y-59318413D02*
X80561905Y-59318413D01*
X81438095Y-60194603D02*
X81438095Y-58442222D01*
X79576190Y-59537460D02*
X78480952Y-59537460D01*
X79795238Y-60194603D02*
X79028571Y-57894603D01*
X79028571Y-57894603D02*
X78261905Y-60194603D01*
X76399999Y-60194603D02*
X77495237Y-60194603D01*
X77495237Y-60194603D02*
X77495237Y-57894603D01*
X75961904Y-57894603D02*
X74647618Y-57894603D01*
X75304761Y-60194603D02*
X75304761Y-57894603D01*
X73880951Y-59318413D02*
X72128571Y-59318413D01*
X73004761Y-60194603D02*
X73004761Y-58442222D01*
X71033332Y-60194603D02*
X71033332Y-57894603D01*
X71033332Y-57894603D02*
X70485713Y-57894603D01*
X70485713Y-57894603D02*
X70157142Y-58004127D01*
X70157142Y-58004127D02*
X69938094Y-58223175D01*
X69938094Y-58223175D02*
X69828571Y-58442222D01*
X69828571Y-58442222D02*
X69719047Y-58880318D01*
X69719047Y-58880318D02*
X69719047Y-59208889D01*
X69719047Y-59208889D02*
X69828571Y-59646984D01*
X69828571Y-59646984D02*
X69938094Y-59866032D01*
X69938094Y-59866032D02*
X70157142Y-60085080D01*
X70157142Y-60085080D02*
X70485713Y-60194603D01*
X70485713Y-60194603D02*
X71033332Y-60194603D01*
X68733332Y-58989841D02*
X67966666Y-58989841D01*
X67638094Y-60194603D02*
X68733332Y-60194603D01*
X68733332Y-60194603D02*
X68733332Y-57894603D01*
X68733332Y-57894603D02*
X67638094Y-57894603D01*
X65885714Y-58989841D02*
X66652380Y-58989841D01*
X66652380Y-60194603D02*
X66652380Y-57894603D01*
X66652380Y-57894603D02*
X65557142Y-57894603D01*
X64680951Y-58989841D02*
X63914285Y-58989841D01*
X63585713Y-60194603D02*
X64680951Y-60194603D01*
X64680951Y-60194603D02*
X64680951Y-57894603D01*
X64680951Y-57894603D02*
X63585713Y-57894603D01*
X62709523Y-59537460D02*
X61614285Y-59537460D01*
X62928571Y-60194603D02*
X62161904Y-57894603D01*
X62161904Y-57894603D02*
X61395238Y-60194603D01*
X60957142Y-57894603D02*
X59642856Y-57894603D01*
X60299999Y-60194603D02*
X60299999Y-57894603D01*
M02*
