M48
; DRILL file {KiCad 9.0.2} date 2025-07-16T11:23:53+0530
; FORMAT={-:-/ absolute / metric / decimal}
; #@! TF.CreationDate,2025-07-16T11:23:53+05:30
; #@! TF.GenerationSoftware,Kicad,Pcbnew,9.0.2
; #@! TF.FileFunction,Plated,1,2,PTH
FMAT,2
METRIC
; #@! TA.AperFunction,Plated,PTH,ViaDrill
T1C0.300
; #@! TA.AperFunction,Plated,PTH,ComponentDrill
T2C0.800
; #@! TA.AperFunction,Plated,PTH,ComponentDrill
T3C0.950
; #@! TA.AperFunction,Plated,PTH,ComponentDrill
T4C1.000
; #@! TA.AperFunction,Plated,PTH,ComponentDrill
T5C1.300
; #@! TA.AperFunction,Plated,PTH,ComponentDrill
T6C3.200
%
G90
G05
T1
X48.707Y-82.877
X56.33Y-82.88
X68.11Y-85.24
X69.31Y-85.24
T2
X41.087Y-73.81
X41.087Y-89.05
X43.627Y-73.81
X43.627Y-89.05
X46.167Y-73.81
X46.167Y-89.05
X48.707Y-73.81
X48.707Y-89.05
X51.247Y-73.81
X51.247Y-89.05
X53.787Y-73.81
X53.787Y-89.05
X56.327Y-73.81
X56.327Y-89.05
X58.867Y-73.81
X58.867Y-89.05
X59.965Y-95.39
X61.407Y-73.81
X61.407Y-89.05
X61.617Y-76.35
X61.617Y-78.89
X61.617Y-81.43
X61.617Y-83.97
X61.617Y-86.51
X67.585Y-95.39
T3
X46.995Y-60.5
X46.995Y-63.0
X46.995Y-65.5
X46.995Y-68.0
X50.015Y-93.92
X52.515Y-93.92
X53.85Y-54.995
X55.015Y-93.92
X56.35Y-54.995
X58.85Y-54.995
X61.35Y-54.995
X66.45Y-55.0
X68.95Y-55.0
X71.45Y-55.0
X73.95Y-55.0
X79.05Y-54.997
X81.55Y-54.997
X84.05Y-54.997
X86.55Y-54.997
X91.65Y-55.0
X94.15Y-55.0
X96.65Y-55.0
X99.15Y-55.0
X106.0Y-60.49
X106.0Y-62.99
X106.0Y-65.49
X106.0Y-67.99
T4
X48.965Y-48.875
X48.965Y-51.415
X48.965Y-53.955
X55.117Y-60.51
X55.117Y-63.05
X55.117Y-65.59
X55.117Y-68.13
X57.657Y-60.51
X57.657Y-63.05
X57.657Y-65.59
X57.657Y-68.13
X68.4Y-68.15
X68.4Y-70.69
X68.4Y-73.23
X68.4Y-75.77
X68.4Y-78.31
X68.4Y-80.85
X84.429Y-70.69
X84.429Y-73.23
X84.429Y-75.77
X84.429Y-78.31
X91.708Y-73.87
X91.708Y-89.11
X93.325Y-60.465
X93.325Y-63.005
X93.325Y-65.545
X94.248Y-73.87
X94.248Y-89.11
X95.985Y-60.465
X95.985Y-63.005
X95.985Y-65.545
X96.788Y-73.87
X96.788Y-89.11
X98.645Y-60.465
X98.645Y-63.005
X98.645Y-65.545
X99.328Y-73.87
X99.328Y-89.11
X101.868Y-73.87
X101.868Y-89.11
X104.408Y-73.87
X104.408Y-89.11
X106.948Y-73.87
X106.948Y-89.11
X109.488Y-73.87
X109.488Y-89.11
T5
X87.85Y-96.5
X92.85Y-96.5
X97.85Y-96.5
X102.85Y-96.5
T6
X43.0Y-51.0
X43.0Y-98.0
X110.0Y-51.0
X110.0Y-98.0
M30
