%TF.GenerationSoftware,KiCad,Pcbnew,9.0.2*%
%TF.CreationDate,2025-07-15T17:02:53+05:30*%
%TF.ProjectId,peripherals-board-v2,70657269-7068-4657-9261-6c732d626f61,2*%
%TF.SameCoordinates,Original*%
%TF.FileFunction,Soldermask,Bot*%
%TF.FilePolarity,Negative*%
%FSLAX46Y46*%
G04 Gerber Fmt 4.6, Leading zero omitted, Abs format (unit mm)*
G04 Created by KiCad (PCBNEW 9.0.2) date 2025-07-15 17:02:53*
%MOMM*%
%LPD*%
G01*
G04 APERTURE LIST*
G04 Aperture macros list*
%AMRoundRect*
0 Rectangle with rounded corners*
0 $1 Rounding radius*
0 $2 $3 $4 $5 $6 $7 $8 $9 X,Y pos of 4 corners*
0 Add a 4 corners polygon primitive as box body*
4,1,4,$2,$3,$4,$5,$6,$7,$8,$9,$2,$3,0*
0 Add four circle primitives for the rounded corners*
1,1,$1+$1,$2,$3*
1,1,$1+$1,$4,$5*
1,1,$1+$1,$6,$7*
1,1,$1+$1,$8,$9*
0 Add four rect primitives between the rounded corners*
20,1,$1+$1,$2,$3,$4,$5,0*
20,1,$1+$1,$4,$5,$6,$7,0*
20,1,$1+$1,$6,$7,$8,$9,0*
20,1,$1+$1,$8,$9,$2,$3,0*%
G04 Aperture macros list end*
%ADD10C,1.700000*%
%ADD11R,1.700000X1.700000*%
%ADD12RoundRect,0.250000X0.725000X-0.600000X0.725000X0.600000X-0.725000X0.600000X-0.725000X-0.600000X0*%
%ADD13O,1.950000X1.700000*%
%ADD14C,3.600000*%
%ADD15C,5.600000*%
%ADD16RoundRect,0.250000X-0.600000X-0.725000X0.600000X-0.725000X0.600000X0.725000X-0.600000X0.725000X0*%
%ADD17O,1.700000X1.950000*%
%ADD18RoundRect,0.250000X-0.725000X0.600000X-0.725000X-0.600000X0.725000X-0.600000X0.725000X0.600000X0*%
%ADD19RoundRect,0.400000X0.400000X-0.900000X0.400000X0.900000X-0.400000X0.900000X-0.400000X-0.900000X0*%
%ADD20RoundRect,0.400050X0.400050X-0.899950X0.400050X0.899950X-0.400050X0.899950X-0.400050X-0.899950X0*%
%ADD21RoundRect,0.400000X0.900000X-0.400000X0.900000X0.400000X-0.900000X0.400000X-0.900000X-0.400000X0*%
%ADD22RoundRect,0.393700X0.906300X-0.393700X0.906300X0.393700X-0.906300X0.393700X-0.906300X-0.393700X0*%
%ADD23RoundRect,0.250001X-1.149999X-1.149999X1.149999X-1.149999X1.149999X1.149999X-1.149999X1.149999X0*%
%ADD24C,2.800000*%
%ADD25RoundRect,0.250000X0.600000X0.725000X-0.600000X0.725000X-0.600000X-0.725000X0.600000X-0.725000X0*%
%ADD26RoundRect,0.250000X0.550000X0.550000X-0.550000X0.550000X-0.550000X-0.550000X0.550000X-0.550000X0*%
%ADD27C,1.600000*%
G04 APERTURE END LIST*
D10*
%TO.C,J12*%
X95985000Y-65545000D03*
X95985000Y-63005000D03*
D11*
X95985000Y-60465000D03*
%TD*%
%TO.C,J13*%
X98645000Y-60465000D03*
D10*
X98645000Y-63005000D03*
X98645000Y-65545000D03*
%TD*%
D11*
%TO.C,J11*%
X93325000Y-60465000D03*
D10*
X93325000Y-63005000D03*
X93325000Y-65545000D03*
%TD*%
D12*
%TO.C,J7*%
X46995000Y-68000000D03*
D13*
X46995000Y-65500000D03*
X46995000Y-63000000D03*
X46995000Y-60500000D03*
%TD*%
D14*
%TO.C,REF\u002A\u002A*%
X43000000Y-51000000D03*
D15*
X43000000Y-51000000D03*
%TD*%
D16*
%TO.C,J3*%
X91650000Y-55000000D03*
D17*
X94150000Y-55000000D03*
X96650000Y-55000000D03*
X99150000Y-55000000D03*
%TD*%
D14*
%TO.C,REF\u002A\u002A*%
X110000000Y-98000000D03*
D15*
X110000000Y-98000000D03*
%TD*%
D18*
%TO.C,J6*%
X106000000Y-60490000D03*
D13*
X106000000Y-62990000D03*
X106000000Y-65490000D03*
X106000000Y-67990000D03*
%TD*%
D19*
%TO.C,RZ1*%
X41086839Y-73210000D03*
X43626839Y-73210000D03*
X46166839Y-73210000D03*
X48706839Y-73210000D03*
X51246839Y-73210000D03*
D20*
X53786839Y-73210000D03*
X56326839Y-73210000D03*
X58866839Y-73210000D03*
X61406839Y-73210000D03*
D21*
X62216839Y-76350000D03*
D22*
X62216839Y-78890000D03*
X62216839Y-81430000D03*
X62216839Y-83970000D03*
X62216839Y-86510000D03*
D20*
X61406839Y-89650000D03*
X58866839Y-89650000D03*
X56326839Y-89650000D03*
X53786839Y-89650000D03*
X51246839Y-89650000D03*
X48706839Y-89650000D03*
X46166839Y-89650000D03*
X43626839Y-89650000D03*
X41086839Y-89650000D03*
%TD*%
D16*
%TO.C,J2*%
X79050000Y-54997500D03*
D17*
X81550000Y-54997500D03*
X84050000Y-54997500D03*
X86550000Y-54997500D03*
%TD*%
D11*
%TO.C,U3*%
X91708200Y-89110000D03*
D10*
X94248200Y-89110000D03*
X96788200Y-89110000D03*
X99328200Y-89110000D03*
X101868200Y-89110000D03*
X104408200Y-89110000D03*
X106948200Y-89110000D03*
X109488200Y-89110000D03*
X109488200Y-73870000D03*
X106948200Y-73870000D03*
X104408200Y-73870000D03*
X101868200Y-73870000D03*
X99328200Y-73870000D03*
X96788200Y-73870000D03*
X94248200Y-73870000D03*
D11*
X91708200Y-73870000D03*
%TD*%
D14*
%TO.C,REF\u002A\u002A*%
X110000000Y-51000000D03*
D15*
X110000000Y-51000000D03*
%TD*%
D23*
%TO.C,J1*%
X87850000Y-96500000D03*
D24*
X92850000Y-96500000D03*
X97850000Y-96500000D03*
X102850000Y-96500000D03*
%TD*%
D11*
%TO.C,U4*%
X68400000Y-68150000D03*
D10*
X68400000Y-70690000D03*
X68400000Y-73230000D03*
X68400000Y-75770000D03*
X68400000Y-78310000D03*
X68400000Y-80850000D03*
D11*
X84429320Y-70690000D03*
D10*
X84429320Y-73230000D03*
X84429320Y-75770000D03*
X84429320Y-78310000D03*
%TD*%
D16*
%TO.C,J5*%
X66450000Y-55000000D03*
D17*
X68950000Y-55000000D03*
X71450000Y-55000000D03*
X73950000Y-55000000D03*
%TD*%
D14*
%TO.C,REF\u002A\u002A*%
X43000000Y-98000000D03*
D15*
X43000000Y-98000000D03*
%TD*%
D25*
%TO.C,J8*%
X55015000Y-93920000D03*
D17*
X52515000Y-93920000D03*
X50015000Y-93920000D03*
%TD*%
D11*
%TO.C,J10*%
X55117500Y-68130000D03*
D10*
X57657500Y-68130000D03*
X55117500Y-65590000D03*
X57657500Y-65590000D03*
X55117500Y-63050000D03*
X57657500Y-63050000D03*
X55117500Y-60510000D03*
X57657500Y-60510000D03*
%TD*%
D11*
%TO.C,J9*%
X48965000Y-53955000D03*
D10*
X48965000Y-51415000D03*
X48965000Y-48875000D03*
%TD*%
D26*
%TO.C,SW1*%
X67585000Y-95390000D03*
D27*
X59965000Y-95390000D03*
%TD*%
D16*
%TO.C,J4*%
X53850000Y-54995000D03*
D17*
X56350000Y-54995000D03*
X58850000Y-54995000D03*
X61350000Y-54995000D03*
%TD*%
M02*
